<svg width="56" height="56" viewBox="0 0 56 56" fill="none" xmlns="http://www.w3.org/2000/svg">
<g filter="url(#filter0_di_8518_33171)">
<rect x="6" y="4" width="40" height="40" rx="8" fill="#FFC85A"/>
<path d="M38 24.0732C38 17.4462 32.627 12.0732 26 12.0732C19.373 12.0732 14 17.4462 14 24.0732C14 30.0632 18.388 35.0272 24.125 35.9272V27.5422H21.078V24.0722H24.125V21.4302C24.125 18.4232 25.917 16.7612 28.658 16.7612C29.97 16.7612 31.344 16.9962 31.344 16.9962V19.9492H29.83C28.339 19.9492 27.874 20.8742 27.874 21.8232V24.0732H31.202L30.67 27.5432H27.874V35.9282C33.612 35.0272 38 30.0622 38 24.0732Z" fill="white"/>
</g>
<defs>
<filter id="filter0_di_8518_33171" x="0" y="0" width="56" height="56" filterUnits="userSpaceOnUse" color-interpolation-filters="sRGB">
<feFlood flood-opacity="0" result="BackgroundImageFix"/>
<feColorMatrix in="SourceAlpha" type="matrix" values="0 0 0 0 0 0 0 0 0 0 0 0 0 0 0 0 0 0 127 0" result="hardAlpha"/>
<feOffset dx="2" dy="4"/>
<feGaussianBlur stdDeviation="4"/>
<feComposite in2="hardAlpha" operator="out"/>
<feColorMatrix type="matrix" values="0 0 0 0 0.0392157 0 0 0 0 0.141176 0 0 0 0 0.184314 0 0 0 0.2 0"/>
<feBlend mode="normal" in2="BackgroundImageFix" result="effect1_dropShadow_8518_33171"/>
<feBlend mode="normal" in="SourceGraphic" in2="effect1_dropShadow_8518_33171" result="shape"/>
<feColorMatrix in="SourceAlpha" type="matrix" values="0 0 0 0 0 0 0 0 0 0 0 0 0 0 0 0 0 0 127 0" result="hardAlpha"/>
<feOffset dx="2"/>
<feGaussianBlur stdDeviation="1"/>
<feComposite in2="hardAlpha" operator="arithmetic" k2="-1" k3="1"/>
<feColorMatrix type="matrix" values="0 0 0 0 0.0392157 0 0 0 0 0.141176 0 0 0 0 0.184314 0 0 0 0.3 0"/>
<feBlend mode="normal" in2="shape" result="effect2_innerShadow_8518_33171"/>
</filter>
</defs>
</svg>
