<svg width="56" height="56" viewBox="0 0 56 56" fill="none" xmlns="http://www.w3.org/2000/svg">
<g filter="url(#filter0_di_8518_33168)">
<rect x="6" y="4" width="40" height="40" rx="8" fill="#FF80B4"/>
<path d="M25.9999 20.0946C23.8495 20.0946 22.0946 21.8495 22.0946 23.9999C22.0946 26.1503 23.8495 27.9052 25.9999 27.9052C28.1503 27.9052 29.9052 26.1503 29.9052 23.9999C29.9052 21.8495 28.1503 20.0946 25.9999 20.0946ZM37.7128 23.9999C37.7128 22.3827 37.7274 20.7802 37.6366 19.1659C37.5458 17.2909 37.1181 15.6268 35.747 14.2558C34.3729 12.8817 32.7118 12.4569 30.8368 12.3661C29.2196 12.2753 27.6171 12.2899 26.0028 12.2899C24.3856 12.2899 22.7831 12.2753 21.1688 12.3661C19.2938 12.4569 17.6298 12.8847 16.2587 14.2558C14.8847 15.6298 14.4599 17.2909 14.369 19.1659C14.2782 20.7831 14.2929 22.3856 14.2929 23.9999C14.2929 25.6142 14.2782 27.2196 14.369 28.8339C14.4599 30.7089 14.8876 32.3729 16.2587 33.744C17.6327 35.1181 19.2938 35.5429 21.1688 35.6337C22.786 35.7245 24.3886 35.7099 26.0028 35.7099C27.62 35.7099 29.2226 35.7245 30.8368 35.6337C32.7118 35.5429 34.3759 35.1151 35.747 33.744C37.121 32.37 37.5458 30.7089 37.6366 28.8339C37.7304 27.2196 37.7128 25.6171 37.7128 23.9999ZM25.9999 30.0087C22.6747 30.0087 19.9911 27.3251 19.9911 23.9999C19.9911 20.6747 22.6747 17.9911 25.9999 17.9911C29.3251 17.9911 32.0087 20.6747 32.0087 23.9999C32.0087 27.3251 29.3251 30.0087 25.9999 30.0087ZM32.2548 19.1483C31.4784 19.1483 30.8515 18.5214 30.8515 17.745C30.8515 16.9686 31.4784 16.3417 32.2548 16.3417C33.0311 16.3417 33.6581 16.9686 33.6581 17.745C33.6583 17.9294 33.6222 18.1119 33.5517 18.2823C33.4813 18.4527 33.3779 18.6075 33.2476 18.7378C33.1172 18.8682 32.9624 18.9715 32.7921 19.042C32.6217 19.1124 32.4391 19.1486 32.2548 19.1483Z" fill="white"/>
</g>
<defs>
<filter id="filter0_di_8518_33168" x="0" y="0" width="56" height="56" filterUnits="userSpaceOnUse" color-interpolation-filters="sRGB">
<feFlood flood-opacity="0" result="BackgroundImageFix"/>
<feColorMatrix in="SourceAlpha" type="matrix" values="0 0 0 0 0 0 0 0 0 0 0 0 0 0 0 0 0 0 127 0" result="hardAlpha"/>
<feOffset dx="2" dy="4"/>
<feGaussianBlur stdDeviation="4"/>
<feComposite in2="hardAlpha" operator="out"/>
<feColorMatrix type="matrix" values="0 0 0 0 0.0392157 0 0 0 0 0.141176 0 0 0 0 0.184314 0 0 0 0.2 0"/>
<feBlend mode="normal" in2="BackgroundImageFix" result="effect1_dropShadow_8518_33168"/>
<feBlend mode="normal" in="SourceGraphic" in2="effect1_dropShadow_8518_33168" result="shape"/>
<feColorMatrix in="SourceAlpha" type="matrix" values="0 0 0 0 0 0 0 0 0 0 0 0 0 0 0 0 0 0 127 0" result="hardAlpha"/>
<feOffset dx="2"/>
<feGaussianBlur stdDeviation="1"/>
<feComposite in2="hardAlpha" operator="arithmetic" k2="-1" k3="1"/>
<feColorMatrix type="matrix" values="0 0 0 0 0.0392157 0 0 0 0 0.141176 0 0 0 0 0.184314 0 0 0 0.3 0"/>
<feBlend mode="normal" in2="shape" result="effect2_innerShadow_8518_33168"/>
</filter>
</defs>
</svg>
