<svg width="56" height="56" viewBox="0 0 56 56" fill="none" xmlns="http://www.w3.org/2000/svg">
<g filter="url(#filter0_di_8518_33167)">
<rect x="6" y="4" width="40" height="40" rx="8" fill="#8AD357"/>
<path d="M33.365 21.8628C33.714 21.8628 33.995 22.1478 33.995 22.4938C33.995 22.8388 33.714 23.1238 33.365 23.1238H31.61V24.2488H33.365C33.714 24.2488 33.995 24.5318 33.995 24.8788C33.995 25.2228 33.714 25.5078 33.365 25.5078H30.979C30.634 25.5078 30.352 25.2228 30.352 24.8788V20.1078C30.352 19.7628 30.634 19.4778 30.982 19.4778H33.368C33.714 19.4778 33.995 19.7628 33.995 20.1078C33.995 20.4568 33.714 20.7378 33.365 20.7378H31.61V21.8628H33.365ZM29.51 24.8788C29.51 25.1488 29.336 25.3888 29.078 25.4748C29.014 25.4958 28.945 25.5058 28.879 25.5058C28.668 25.5058 28.488 25.4158 28.369 25.2558L25.926 21.9388V24.8788C25.926 25.2228 25.647 25.5078 25.295 25.5078C24.949 25.5078 24.669 25.2228 24.669 24.8788V20.1078C24.669 19.8378 24.842 19.5978 25.099 19.5128C25.159 19.4898 25.235 19.4798 25.293 19.4798C25.488 19.4798 25.668 19.5838 25.788 19.7338L28.25 23.0638V20.1078C28.25 19.7628 28.532 19.4778 28.88 19.4778C29.225 19.4778 29.51 19.7628 29.51 20.1078V24.8788ZM23.769 24.8788C23.769 25.2228 23.487 25.5078 23.138 25.5078C22.793 25.5078 22.511 25.2228 22.511 24.8788V20.1078C22.511 19.7628 22.793 19.4778 23.141 19.4778C23.487 19.4778 23.769 19.7628 23.769 20.1078V24.8788ZM21.303 25.5078H18.917C18.572 25.5078 18.287 25.2228 18.287 24.8788V20.1078C18.287 19.7628 18.572 19.4778 18.917 19.4778C19.265 19.4778 19.547 19.7628 19.547 20.1078V24.2488H21.303C21.651 24.2488 21.932 24.5318 21.932 24.8788C21.932 25.2228 21.65 25.5078 21.303 25.5078ZM38 22.3138C38 16.9428 32.615 12.5718 26 12.5718C19.385 12.5718 14 16.9428 14 22.3138C14 27.1248 18.27 31.1558 24.035 31.9218C24.426 32.0038 24.958 32.1798 25.093 32.5118C25.213 32.8128 25.172 33.2778 25.131 33.5918L24.967 34.6118C24.922 34.9128 24.727 35.7978 26.016 35.2568C27.307 34.7178 32.932 31.1788 35.452 28.2818C37.176 26.3928 38 24.4578 38 22.3138Z" fill="white"/>
</g>
<defs>
<filter id="filter0_di_8518_33167" x="0" y="0" width="56" height="56" filterUnits="userSpaceOnUse" color-interpolation-filters="sRGB">
<feFlood flood-opacity="0" result="BackgroundImageFix"/>
<feColorMatrix in="SourceAlpha" type="matrix" values="0 0 0 0 0 0 0 0 0 0 0 0 0 0 0 0 0 0 127 0" result="hardAlpha"/>
<feOffset dx="2" dy="4"/>
<feGaussianBlur stdDeviation="4"/>
<feComposite in2="hardAlpha" operator="out"/>
<feColorMatrix type="matrix" values="0 0 0 0 0.0392157 0 0 0 0 0.141176 0 0 0 0 0.184314 0 0 0 0.2 0"/>
<feBlend mode="normal" in2="BackgroundImageFix" result="effect1_dropShadow_8518_33167"/>
<feBlend mode="normal" in="SourceGraphic" in2="effect1_dropShadow_8518_33167" result="shape"/>
<feColorMatrix in="SourceAlpha" type="matrix" values="0 0 0 0 0 0 0 0 0 0 0 0 0 0 0 0 0 0 127 0" result="hardAlpha"/>
<feOffset dx="2"/>
<feGaussianBlur stdDeviation="1"/>
<feComposite in2="hardAlpha" operator="arithmetic" k2="-1" k3="1"/>
<feColorMatrix type="matrix" values="0 0 0 0 0.0392157 0 0 0 0 0.141176 0 0 0 0 0.184314 0 0 0 0.3 0"/>
<feBlend mode="normal" in2="shape" result="effect2_innerShadow_8518_33167"/>
</filter>
</defs>
</svg>
