<svg width="56" height="56" viewBox="0 0 56 56" fill="none" xmlns="http://www.w3.org/2000/svg">
<g filter="url(#filter0_di_8518_33170)">
<rect x="6" y="4" width="40" height="40" rx="8" fill="#C28CFF"/>
<path d="M26.5251 12.02C27.8351 12 29.1351 12.01 30.4351 12C30.5151 13.53 31.0651 15.09 32.1851 16.17C33.3051 17.28 34.8851 17.79 36.4251 17.96V21.99C34.9851 21.94 33.5351 21.64 32.2251 21.02C31.6551 20.76 31.1251 20.43 30.6051 20.09C30.5951 23.01 30.6151 25.93 30.5851 28.84C30.5051 30.24 30.0451 31.63 29.2351 32.78C27.9251 34.7 25.6551 35.95 23.3251 35.99C21.8951 36.07 20.4651 35.68 19.2451 34.96C17.2251 33.77 15.8051 31.59 15.5951 29.25C15.5751 28.75 15.5651 28.25 15.5851 27.76C15.7651 25.86 16.7051 24.04 18.1651 22.8C19.8251 21.36 22.1451 20.67 24.3151 21.08C24.3351 22.56 24.2751 24.04 24.2751 25.52C23.2851 25.2 22.1251 25.29 21.2551 25.89C20.6251 26.3 20.1451 26.93 19.8951 27.64C19.6851 28.15 19.7451 28.71 19.7551 29.25C19.9951 30.89 21.5751 32.27 23.2551 32.12C24.3751 32.11 25.4451 31.46 26.0251 30.51C26.2151 30.18 26.4251 29.84 26.4351 29.45C26.5351 27.66 26.4951 25.88 26.5051 24.09C26.5151 20.06 26.4951 16.04 26.5251 12.02Z" fill="white"/>
</g>
<defs>
<filter id="filter0_di_8518_33170" x="0" y="0" width="56" height="56" filterUnits="userSpaceOnUse" color-interpolation-filters="sRGB">
<feFlood flood-opacity="0" result="BackgroundImageFix"/>
<feColorMatrix in="SourceAlpha" type="matrix" values="0 0 0 0 0 0 0 0 0 0 0 0 0 0 0 0 0 0 127 0" result="hardAlpha"/>
<feOffset dx="2" dy="4"/>
<feGaussianBlur stdDeviation="4"/>
<feComposite in2="hardAlpha" operator="out"/>
<feColorMatrix type="matrix" values="0 0 0 0 0.0392157 0 0 0 0 0.141176 0 0 0 0 0.184314 0 0 0 0.2 0"/>
<feBlend mode="normal" in2="BackgroundImageFix" result="effect1_dropShadow_8518_33170"/>
<feBlend mode="normal" in="SourceGraphic" in2="effect1_dropShadow_8518_33170" result="shape"/>
<feColorMatrix in="SourceAlpha" type="matrix" values="0 0 0 0 0 0 0 0 0 0 0 0 0 0 0 0 0 0 127 0" result="hardAlpha"/>
<feOffset dx="2"/>
<feGaussianBlur stdDeviation="1"/>
<feComposite in2="hardAlpha" operator="arithmetic" k2="-1" k3="1"/>
<feColorMatrix type="matrix" values="0 0 0 0 0.0392157 0 0 0 0 0.141176 0 0 0 0 0.184314 0 0 0 0.3 0"/>
<feBlend mode="normal" in2="shape" result="effect2_innerShadow_8518_33170"/>
</filter>
</defs>
</svg>
