<svg width="56" height="56" viewBox="0 0 56 56" fill="none" xmlns="http://www.w3.org/2000/svg">
<g filter="url(#filter0_di_8518_33169)">
<rect x="6" y="4" width="40" height="40" rx="8" fill="#30B6ED"/>
<path d="M37.953 16.5701C37.0545 16.9657 36.1026 17.2268 35.128 17.3451C36.1541 16.7283 36.9224 15.7611 37.291 14.6221C36.34 15.1771 35.286 15.5811 34.164 15.8061C33.4238 15.0145 32.4429 14.4895 31.3736 14.3126C30.3044 14.1357 29.2067 14.3167 28.2509 14.8277C27.2952 15.3386 26.5349 16.1508 26.0881 17.1382C25.6412 18.1256 25.533 19.2329 25.78 20.2881C21.69 20.0951 18.067 18.1301 15.64 15.1621C15.1988 15.9119 14.9687 16.7671 14.974 17.6371C14.974 19.3471 15.844 20.8501 17.162 21.7331C16.3809 21.7082 15.617 21.497 14.934 21.1171V21.1771C14.9336 22.3135 15.3263 23.415 16.0455 24.2948C16.7647 25.1747 17.7662 25.7786 18.88 26.0041C18.1583 26.1975 17.4024 26.2265 16.668 26.0891C16.9841 27.0671 17.5977 27.922 18.423 28.5346C19.2484 29.1471 20.2444 29.4868 21.272 29.5061C19.5315 30.872 17.3825 31.6134 15.17 31.6111C14.78 31.6111 14.391 31.5881 14 31.5441C16.2557 32.9884 18.8785 33.7551 21.557 33.7531C30.61 33.7531 35.555 26.2571 35.555 19.7681C35.555 19.5581 35.555 19.3481 35.54 19.1381C36.506 18.443 37.3392 17.5799 38 16.5901L37.953 16.5701Z" fill="white"/>
</g>
<defs>
<filter id="filter0_di_8518_33169" x="0" y="0" width="56" height="56" filterUnits="userSpaceOnUse" color-interpolation-filters="sRGB">
<feFlood flood-opacity="0" result="BackgroundImageFix"/>
<feColorMatrix in="SourceAlpha" type="matrix" values="0 0 0 0 0 0 0 0 0 0 0 0 0 0 0 0 0 0 127 0" result="hardAlpha"/>
<feOffset dx="2" dy="4"/>
<feGaussianBlur stdDeviation="4"/>
<feComposite in2="hardAlpha" operator="out"/>
<feColorMatrix type="matrix" values="0 0 0 0 0.0392157 0 0 0 0 0.141176 0 0 0 0 0.184314 0 0 0 0.2 0"/>
<feBlend mode="normal" in2="BackgroundImageFix" result="effect1_dropShadow_8518_33169"/>
<feBlend mode="normal" in="SourceGraphic" in2="effect1_dropShadow_8518_33169" result="shape"/>
<feColorMatrix in="SourceAlpha" type="matrix" values="0 0 0 0 0 0 0 0 0 0 0 0 0 0 0 0 0 0 127 0" result="hardAlpha"/>
<feOffset dx="2"/>
<feGaussianBlur stdDeviation="1"/>
<feComposite in2="hardAlpha" operator="arithmetic" k2="-1" k3="1"/>
<feColorMatrix type="matrix" values="0 0 0 0 0.0392157 0 0 0 0 0.141176 0 0 0 0 0.184314 0 0 0 0.3 0"/>
<feBlend mode="normal" in2="shape" result="effect2_innerShadow_8518_33169"/>
</filter>
</defs>
</svg>
