<svg width="56" height="56" viewBox="0 0 56 56" fill="none" xmlns="http://www.w3.org/2000/svg">
<g filter="url(#filter0_di_8518_33166)">
<rect x="6" y="4" width="40" height="40" rx="8" fill="#FF7D43"/>
<path d="M37.498 18.1859C37.3624 17.6752 37.095 17.2091 36.7226 16.8342C36.3502 16.4593 35.8858 16.1889 35.376 16.0499C33.505 15.5449 26 15.5449 26 15.5449C26 15.5449 18.495 15.5449 16.623 16.0499C16.1134 16.1891 15.6493 16.4597 15.2771 16.8345C14.9049 17.2094 14.6376 17.6754 14.502 18.1859C14 20.0699 14 23.9999 14 23.9999C14 23.9999 14 27.9299 14.502 29.8139C14.6376 30.3246 14.905 30.7908 15.2774 31.1657C15.6498 31.5405 16.1142 31.811 16.624 31.9499C18.495 32.4549 26 32.4549 26 32.4549C26 32.4549 33.505 32.4549 35.377 31.9499C35.8869 31.8111 36.3513 31.5407 36.7237 31.1658C37.0961 30.7909 37.3635 30.3247 37.499 29.8139C38 27.9299 38 23.9999 38 23.9999C38 23.9999 38 20.0699 37.498 18.1859ZM23.545 27.5679V20.4319L29.818 23.9999L23.545 27.5679Z" fill="white"/>
</g>
<defs>
<filter id="filter0_di_8518_33166" x="0" y="0" width="56" height="56" filterUnits="userSpaceOnUse" color-interpolation-filters="sRGB">
<feFlood flood-opacity="0" result="BackgroundImageFix"/>
<feColorMatrix in="SourceAlpha" type="matrix" values="0 0 0 0 0 0 0 0 0 0 0 0 0 0 0 0 0 0 127 0" result="hardAlpha"/>
<feOffset dx="2" dy="4"/>
<feGaussianBlur stdDeviation="4"/>
<feComposite in2="hardAlpha" operator="out"/>
<feColorMatrix type="matrix" values="0 0 0 0 0.0392157 0 0 0 0 0.141176 0 0 0 0 0.184314 0 0 0 0.2 0"/>
<feBlend mode="normal" in2="BackgroundImageFix" result="effect1_dropShadow_8518_33166"/>
<feBlend mode="normal" in="SourceGraphic" in2="effect1_dropShadow_8518_33166" result="shape"/>
<feColorMatrix in="SourceAlpha" type="matrix" values="0 0 0 0 0 0 0 0 0 0 0 0 0 0 0 0 0 0 127 0" result="hardAlpha"/>
<feOffset dx="2"/>
<feGaussianBlur stdDeviation="1"/>
<feComposite in2="hardAlpha" operator="arithmetic" k2="-1" k3="1"/>
<feColorMatrix type="matrix" values="0 0 0 0 0.0392157 0 0 0 0 0.141176 0 0 0 0 0.184314 0 0 0 0.3 0"/>
<feBlend mode="normal" in2="shape" result="effect2_innerShadow_8518_33166"/>
</filter>
</defs>
</svg>
