<svg width="1104" height="1032" viewBox="0 0 1104 1032" fill="none" xmlns="http://www.w3.org/2000/svg">
<path fill-rule="evenodd" clip-rule="evenodd" d="M579.874 44.1018C592.489 19.6256 563.316 -9.58797 538.874 3.04492C519.162 10.9405 514.432 39.3645 529.412 54.366C543.605 69.3676 571.989 63.8407 579.086 44.1018H579.874ZM311.797 55.1556C313.374 39.3645 294.451 25.1525 280.258 31.4689C259.758 36.9958 257.393 69.3676 277.105 77.2631C292.085 85.9482 313.374 72.5258 311.797 55.1556ZM810.105 78.0527C787.24 74.8944 783.297 38.5749 805.374 31.4689C822.72 22.7838 837.701 38.5749 840.855 55.1556C836.913 69.3676 825.874 82.0005 810.105 78.0527ZM394.585 179.905C398.528 151.481 363.835 127.795 339.393 143.586C316.528 155.429 313.374 190.959 333.874 205.961C355.162 225.699 393.797 209.119 394.585 179.905ZM712.336 160.166C723.374 131.742 767.528 130.953 780.143 158.587C792.759 179.905 776.99 206.75 755.701 213.856C726.528 219.383 698.932 187.801 713.124 160.166H712.336ZM553.066 168.062C530.201 169.641 508.124 187.801 508.124 212.277C506.547 232.016 520.739 248.597 537.297 256.492H542.028C551.489 257.282 560.951 258.071 569.624 253.334C591.701 243.859 602.739 213.856 590.124 192.538C583.816 176.747 567.259 170.431 551.489 167.272L553.066 168.062ZM123.354 247.807C145.431 233.595 175.393 259.65 167.508 284.127C162.778 305.445 134.393 314.13 118.624 300.707C101.277 288.074 104.431 257.282 123.354 248.597V247.807ZM997.759 273.862C1000.12 249.386 968.586 232.806 949.663 247.807C929.951 259.65 932.317 292.022 952.817 301.497C971.74 312.551 998.547 295.97 996.971 273.862H997.759ZM616.143 291.233C647.682 280.179 684.74 293.601 702.086 322.025C725.74 356.766 713.124 408.876 676.855 428.615C639.009 452.302 583.816 432.563 569.624 389.137C553.855 351.239 576.72 303.076 616.143 291.233ZM530.989 328.342C514.432 292.812 467.912 278.6 433.22 295.18C396.162 311.761 379.605 360.713 398.528 397.033C415.874 434.142 465.547 449.933 500.239 429.405C535.72 411.245 550.701 363.082 530.989 327.552V328.342ZM249.508 358.345C251.874 335.448 273.162 321.236 294.451 319.657C317.316 322.815 335.451 340.185 337.816 363.872C336.239 386.769 318.893 409.666 294.451 409.666C267.643 412.035 243.989 385.19 249.508 358.345ZM855.836 363.872C857.413 332.289 818.778 308.603 791.182 324.394C762.009 338.606 759.643 385.19 788.028 401.77C815.624 421.509 857.413 397.823 855.836 363.872ZM358.316 443.617C390.643 434.932 426.912 449.933 442.682 479.936C460.028 509.939 452.932 551.786 426.124 573.893C391.432 606.265 328.355 592.843 310.22 549.417C288.931 509.15 314.951 454.671 358.316 444.406V443.617ZM790.393 475.199C773.836 446.775 736.778 434.142 706.028 443.617C661.874 455.46 639.009 512.308 661.874 551.786C680.797 590.474 734.413 603.107 769.105 578.631C802.22 557.313 812.47 508.36 790.393 475.199ZM151.739 480.726C179.335 470.462 210.085 501.254 199.047 528.889C191.951 554.154 157.258 563.629 138.335 544.68C117.047 527.31 124.931 487.832 151.739 480.726ZM942.567 475.989C918.913 477.568 902.355 498.096 903.143 520.993C907.874 532.047 913.394 543.101 924.432 548.628C947.297 561.26 980.413 543.101 978.836 515.466C980.413 494.938 961.49 479.147 942.567 475.989ZM15.3351 494.148C31.8928 487.042 52.3928 501.254 48.4505 520.204C47.662 541.522 16.912 549.417 5.08507 532.047C-5.16493 519.414 1.14276 500.465 14.5466 494.148H15.3351ZM1101.84 505.202C1097.11 490.99 1078.18 485.463 1066.36 493.359C1046.64 503.623 1054.53 540.732 1078.18 538.363C1094.74 540.732 1109.72 520.204 1101.84 505.202ZM448.201 595.211C492.355 583.368 538.874 620.477 539.662 666.271C542.816 712.855 496.297 753.122 451.355 742.858C434.036 739.515 418.451 730.158 407.345 716.437C396.239 702.716 390.324 685.51 390.643 667.851C390.643 633.9 415.874 602.317 448.989 595.211H448.201ZM714.701 667.061C714.701 620.477 666.605 582.579 622.451 595.211C596.432 601.528 573.566 623.635 568.047 651.27C556.22 691.537 586.97 738.121 628.759 743.648C672.913 752.333 717.855 712.855 715.49 667.851L714.701 667.061ZM287.355 623.635C318.105 618.108 347.278 652.849 334.662 682.852C325.201 714.434 280.258 723.119 259.758 697.064C236.105 672.588 253.451 626.794 287.355 623.635ZM855.836 667.851C858.201 637.847 824.297 613.371 796.701 625.214C763.586 636.268 758.066 686.8 788.028 704.17C814.836 723.909 856.624 701.012 855.836 667.061V667.851ZM939.413 769.703C928.374 749.175 948.086 722.33 970.163 726.278C980.413 726.278 988.298 734.173 994.605 741.279V742.858L996.182 745.227C997.759 757.07 999.336 769.703 989.874 779.178C976.471 796.548 946.509 791.811 938.624 771.282L939.413 769.703ZM169.085 763.387C173.816 738.911 143.854 717.592 123.354 731.804C103.643 742.069 102.854 773.651 121.777 785.494C139.912 798.127 166.72 785.494 169.085 763.387ZM534.143 777.599C561.739 765.755 596.432 789.442 593.278 819.445C595.643 852.606 552.278 876.293 525.47 855.765C495.509 838.394 501.028 787.863 533.355 776.809L534.143 777.599ZM396.162 858.133C398.528 832.078 366.989 810.76 344.124 822.603C327.566 828.92 321.258 847.08 320.47 863.66C325.989 878.662 337.816 894.453 355.162 895.242C376.451 898.401 396.951 880.241 396.162 858.133ZM729.682 823.393C753.336 808.391 787.24 829.709 784.874 858.133C784.874 887.347 747.028 906.296 724.951 887.347C703.663 872.345 706.028 836.026 729.682 824.182V823.393ZM815.624 951.301C798.278 955.249 785.663 974.198 796.701 990.779C807.74 1009.73 839.278 1002.62 841.643 980.514C844.797 963.934 829.817 953.67 816.413 950.511L815.624 951.301ZM263.701 976.567C267.643 963.934 277.893 950.511 292.874 954.459C314.951 956.038 321.258 989.199 302.335 999.464C284.989 1011.31 265.278 995.516 263.701 976.567ZM565.682 973.408C549.912 963.144 525.47 972.619 520.739 991.568C512.855 1010.52 531.778 1034.2 551.489 1031.84C562.528 1031.84 571.201 1023.94 577.509 1016.04C579.086 1010.52 579.874 1005.78 581.451 1000.25C579.086 989.989 575.932 978.146 564.893 973.408H565.682Z" fill="url(#paint0_linear_8621_6785)" fill-opacity="0.14"/>
<defs>
<linearGradient id="paint0_linear_8621_6785" x1="378.5" y1="345.5" x2="707" y2="1112.5" gradientUnits="userSpaceOnUse">
<stop stop-color="#FEB08D"/>
<stop offset="1" stop-color="#9747FF"/>
</linearGradient>
</defs>
</svg>
