<svg width="398" height="303" viewBox="0 0 398 303" fill="none" xmlns="http://www.w3.org/2000/svg">
<path fill-rule="evenodd" clip-rule="evenodd" d="M241.319 18.3279C246.569 8.15604 234.429 -3.98459 224.257 1.26541C216.054 4.54666 214.085 16.3592 220.319 22.5935C226.226 28.8279 238.038 26.531 240.991 18.3279H241.319ZM129.757 22.9217C130.413 16.3592 122.538 10.4529 116.632 13.0779C108.101 15.3748 107.116 28.8279 115.319 32.1092C121.554 35.7185 130.413 30.1404 129.757 22.9217ZM337.132 32.4373C327.616 31.1248 325.976 16.031 335.163 13.0779C342.382 9.46854 348.616 16.031 349.929 22.9217C348.288 28.8279 343.694 34.0779 337.132 32.4373ZM164.21 74.7654C165.851 62.9529 151.413 53.1092 141.241 59.6717C131.726 64.5935 130.413 79.3592 138.944 85.5935C147.804 93.7967 163.882 86.906 164.21 74.7654ZM296.444 66.5623C301.038 54.7498 319.413 54.4217 324.663 65.906C329.913 74.7654 323.351 85.9217 314.491 88.8748C302.351 91.1717 290.866 78.0467 296.772 66.5623H296.444ZM230.163 69.8435C220.647 70.4998 211.46 78.0467 211.46 88.2185C210.804 96.4217 216.71 103.312 223.601 106.594H225.569C229.507 106.922 233.444 107.25 237.054 105.281C246.241 101.344 250.835 88.8748 245.585 80.0154C242.96 73.4529 236.069 70.8279 229.507 69.5154L230.163 69.8435ZM51.3349 102.984C60.5224 97.0779 72.9912 107.906 69.7099 118.078C67.7412 126.937 55.9287 130.547 49.3662 124.969C42.1474 119.719 43.4599 106.922 51.3349 103.312V102.984ZM415.226 113.812C416.21 103.64 403.085 96.7498 395.21 102.984C387.007 107.906 387.991 121.359 396.522 125.297C404.397 129.89 415.554 123 414.897 113.812H415.226ZM256.413 121.031C269.538 116.437 284.96 122.015 292.179 133.828C302.022 148.265 296.772 169.922 281.679 178.125C265.929 187.969 242.96 179.765 237.054 161.719C230.491 145.969 240.007 125.953 256.413 121.031ZM220.976 136.453C214.085 121.687 194.726 115.781 180.288 122.672C164.866 129.562 157.976 149.906 165.851 165C173.069 180.422 193.741 186.984 208.179 178.453C222.944 170.906 229.179 150.89 220.976 136.125V136.453ZM103.835 148.922C104.819 139.406 113.679 133.5 122.538 132.844C132.054 134.156 139.601 141.375 140.585 151.219C139.929 160.734 132.71 170.25 122.538 170.25C111.382 171.234 101.538 160.078 103.835 148.922ZM356.163 151.219C356.819 138.094 340.741 128.25 329.257 134.812C317.116 140.719 316.132 160.078 327.944 166.969C339.429 175.172 356.819 165.328 356.163 151.219ZM149.116 184.359C162.569 180.75 177.663 186.984 184.226 199.453C191.444 211.922 188.491 229.312 177.335 238.5C162.897 251.953 136.647 246.375 129.101 228.328C120.241 211.594 131.069 188.953 149.116 184.687V184.359ZM328.929 197.484C322.038 185.672 306.616 180.422 293.819 184.359C275.444 189.281 265.929 212.906 275.444 229.312C283.319 245.39 305.632 250.64 320.069 240.469C333.851 231.609 338.116 211.265 328.929 197.484ZM63.1474 199.781C74.6318 195.515 87.4287 208.312 82.8349 219.797C79.8818 230.297 65.4443 234.234 57.5693 226.359C48.7099 219.14 51.9912 202.734 63.1474 199.781ZM392.257 197.812C382.413 198.469 375.522 207 375.851 216.515C377.819 221.109 380.116 225.703 384.71 228C394.226 233.25 408.007 225.703 407.351 214.219C408.007 205.687 400.132 199.125 392.257 197.812ZM6.38182 205.359C13.2724 202.406 21.8037 208.312 20.1631 216.187C19.8349 225.047 7.03807 228.328 2.1162 221.109C-2.14943 215.859 0.475571 207.984 6.0537 205.359H6.38182ZM458.538 209.953C456.569 204.047 448.694 201.75 443.772 205.031C435.569 209.297 438.851 224.719 448.694 223.734C455.585 224.719 461.819 216.187 458.538 209.953ZM186.522 247.359C204.897 242.437 224.257 257.859 224.585 276.89C225.897 296.25 206.538 312.984 187.835 308.719C180.628 307.329 174.142 303.441 169.52 297.738C164.898 292.036 162.437 284.886 162.569 277.547C162.569 263.437 173.069 250.312 186.851 247.359H186.522ZM297.429 277.219C297.429 257.859 277.413 242.109 259.038 247.359C248.21 249.984 238.694 259.172 236.397 270.656C231.476 287.39 244.272 306.75 261.663 309.047C280.038 312.656 298.741 296.25 297.757 277.547L297.429 277.219ZM119.585 259.172C132.382 256.875 144.522 271.312 139.272 283.781C135.335 296.906 116.632 300.515 108.101 289.687C98.2568 279.515 105.476 260.484 119.585 259.172ZM356.163 277.547C357.147 265.078 343.038 254.906 331.554 259.828C317.772 264.422 315.476 285.422 327.944 292.64C339.101 300.844 356.491 291.328 356.163 277.219V277.547ZM390.944 319.875C386.351 311.344 394.554 300.187 403.741 301.828C408.007 301.828 411.288 305.109 413.913 308.062V308.719L414.569 309.703C415.226 314.625 415.882 319.875 411.944 323.812C406.366 331.031 393.897 329.062 390.616 320.531L390.944 319.875ZM70.3662 317.25C72.335 307.078 59.8662 298.219 51.3349 304.125C43.1318 308.39 42.8037 321.515 50.6787 326.437C58.2256 331.687 69.3818 326.437 70.3662 317.25ZM222.288 323.156C233.772 318.234 248.21 328.078 246.897 340.547C247.882 354.328 229.835 364.172 218.679 355.64C206.21 348.422 208.507 327.422 221.96 322.828L222.288 323.156ZM164.866 356.625C165.851 345.797 152.726 336.937 143.21 341.859C136.319 344.484 133.694 352.031 133.366 358.922C135.663 365.156 140.585 371.719 147.804 372.047C156.663 373.359 165.194 365.812 164.866 356.625ZM303.663 342.187C313.507 335.953 327.616 344.812 326.632 356.625C326.632 368.765 310.882 376.64 301.694 368.765C292.835 362.531 293.819 347.437 303.663 342.515V342.187ZM339.429 395.344C332.21 396.984 326.96 404.859 331.554 411.75C336.147 419.625 349.272 416.672 350.257 407.484C351.569 400.594 345.335 396.328 339.757 395.015L339.429 395.344ZM109.741 405.844C111.382 400.594 115.647 395.015 121.882 396.656C131.069 397.312 133.694 411.094 125.819 415.359C118.601 420.281 110.397 413.719 109.741 405.844ZM235.413 404.531C228.851 400.265 218.679 404.203 216.71 412.078C213.429 419.953 221.304 429.797 229.507 428.812C234.101 428.812 237.71 425.531 240.335 422.25C240.991 419.953 241.319 417.984 241.976 415.687C240.991 411.422 239.679 406.5 235.085 404.531H235.413Z" fill="url(#paint0_linear_8602_1523)" fill-opacity="0.32"/>
<defs>
<linearGradient id="paint0_linear_8602_1523" x1="229.719" y1="0" x2="229.719" y2="428.881" gradientUnits="userSpaceOnUse">
<stop stop-color="#FEB08D"/>
<stop offset="0.415" stop-color="#FFEAE1"/>
<stop offset="0.78" stop-color="white"/>
</linearGradient>
</defs>
</svg>
