<svg width="100" height="95" viewBox="0 0 100 95" fill="none" xmlns="http://www.w3.org/2000/svg">
<path d="M29.3473 34.5139H69.9028M24.2778 54.7917H29.3473M69.9028 54.7917H74.9723" stroke="url(#paint0_linear_8603_3508)" stroke-width="8" stroke-linecap="round" stroke-linejoin="round"/>
<path d="M4 75.0694V41.6617C4.00104 40.29 4.28043 38.9327 4.82125 37.6721L16.5773 10.2464C17.3582 8.42204 18.6573 6.86695 20.3135 5.77387C21.9698 4.6808 23.9105 4.09781 25.8949 4.09717H73.3551C75.3389 4.09739 77.2792 4.67963 78.9354 5.77176C80.5916 6.86389 81.891 8.41792 82.6727 10.2413L94.4338 37.667C94.9742 38.9312 95.2519 40.292 95.25 41.6668V75.0694M4 75.0694V87.236C4 88.0427 4.32046 88.8164 4.89088 89.3868C5.46131 89.9573 6.23497 90.2777 7.04167 90.2777H21.2361C22.0428 90.2777 22.8165 89.9573 23.3869 89.3868C23.9573 88.8164 24.2778 88.0427 24.2778 87.236V75.0694M4 75.0694H24.2778M95.25 75.0694V87.236C95.25 88.0427 94.9295 88.8164 94.3591 89.3868C93.7887 89.9573 93.015 90.2777 92.2083 90.2777H78.0139C77.6144 90.2777 77.2189 90.199 76.8499 90.0462C76.4809 89.8933 76.1455 89.6693 75.8631 89.3868C75.5806 89.1044 75.3566 88.7691 75.2037 88.4C75.0509 88.031 74.9722 87.6355 74.9722 87.236V75.0694M95.25 75.0694H74.9722M24.2778 75.0694H74.9722" stroke="url(#paint1_linear_8603_3508)" stroke-width="8"/>
<defs>
<linearGradient id="paint0_linear_8603_3508" x1="118.947" y1="110.673" x2="-10.2651" y2="-12.8795" gradientUnits="userSpaceOnUse">
<stop stop-color="#FF7D43"/>
<stop offset="1" stop-color="#A25DF9"/>
</linearGradient>
<linearGradient id="paint1_linear_8603_3508" x1="134.98" y1="114.918" x2="-15.4525" y2="-6.7491" gradientUnits="userSpaceOnUse">
<stop stop-color="#FF7D43"/>
<stop offset="1" stop-color="#A25DF9"/>
</linearGradient>
</defs>
</svg>
