<svg width="291" height="58" viewBox="0 0 291 58" fill="none" xmlns="http://www.w3.org/2000/svg">
<path d="M29.7685 56.1618C29.7816 55.9338 29.8399 55.7106 29.94 55.505C30.0401 55.2993 30.18 55.1152 30.3518 54.9632C30.5237 54.8112 30.724 54.6943 30.9414 54.6191C31.1587 54.5439 31.3889 54.5119 31.6188 54.5249C31.8486 54.5379 32.0736 54.5957 32.281 54.695C32.4883 54.7943 32.6739 54.9331 32.8271 55.1035C32.9803 55.274 33.0982 55.4727 33.1741 55.6883C33.2499 55.9039 33.2821 56.1323 33.269 56.3602C33.2425 56.8207 33.0326 57.2518 32.6856 57.5588C32.3386 57.8658 31.8829 58.0235 31.4187 57.9972C30.9545 57.9708 30.5199 57.7627 30.2104 57.4185C29.9009 57.0743 29.7419 56.6222 29.7685 56.1618ZM15.4117 54.2805C15.5087 54.1255 15.636 53.9914 15.7861 53.886C15.9363 53.7806 16.1061 53.7061 16.2857 53.6669C16.4653 53.6276 16.651 53.6244 16.8319 53.6574C17.0127 53.6904 17.1851 53.759 17.3388 53.8591C17.4926 53.9592 17.6245 54.0888 17.727 54.2403C17.8294 54.3918 17.9003 54.5621 17.9354 54.7412C17.9704 54.9203 17.969 55.1045 17.9312 55.283C17.8934 55.4615 17.82 55.6308 17.7152 55.7807C17.5118 56.0771 17.1991 56.2824 16.8445 56.3523C16.4899 56.4222 16.1218 56.3511 15.8196 56.1543C15.5173 55.9575 15.3052 55.6508 15.2287 55.3003C15.1523 54.9498 15.2184 54.5835 15.4117 54.2805ZM46.2049 53.7449C46.3664 53.6637 46.5425 53.6149 46.723 53.6013C46.9036 53.5877 47.085 53.6096 47.257 53.6658C47.429 53.7219 47.5881 53.8112 47.7253 53.9285C47.8624 54.0458 47.9748 54.1888 48.0561 54.3493C48.1789 54.5907 48.2267 54.8628 48.1936 55.1312C48.1604 55.3996 48.0478 55.6522 47.8699 55.8571C47.6921 56.0621 47.4569 56.21 47.1942 56.2824C46.9316 56.3547 46.6532 56.3482 46.3943 56.2636C46.1353 56.1789 45.9075 56.0201 45.7396 55.807C45.5718 55.594 45.4713 55.3364 45.4511 55.0667C45.4308 54.797 45.4916 54.5275 45.6258 54.2921C45.76 54.0567 45.9615 53.8667 46.2049 53.7449ZM18.7394 47.0456C18.8896 46.8077 19.0862 46.6019 19.3176 46.4402C19.549 46.2786 19.8106 46.1643 20.0871 46.1042C20.3635 46.0441 20.6493 46.0393 20.9277 46.09C21.206 46.1408 21.4714 46.2462 21.7082 46.3999C21.945 46.5537 22.1485 46.7527 22.3068 46.9854C22.4651 47.2182 22.575 47.4799 22.6301 47.7553C22.6852 48.0306 22.6843 48.3141 22.6276 48.5892C22.5708 48.8642 22.4593 49.1253 22.2996 49.3571C21.9853 49.8132 21.5033 50.1289 20.9569 50.2364C20.4106 50.3439 19.8435 50.2347 19.3775 49.9321C18.9114 49.6295 18.5836 49.1577 18.4643 48.6181C18.345 48.0784 18.4438 47.5138 18.7394 47.0456ZM41.8825 46.2665C42.1315 46.1405 42.4031 46.0645 42.6817 46.0428C42.9603 46.0211 43.2405 46.0541 43.5063 46.1399C43.772 46.2257 44.0181 46.3627 44.2304 46.543C44.4428 46.7233 44.6172 46.9433 44.7437 47.1905C44.9339 47.5604 45.0102 47.9777 44.9627 48.3902C44.9153 48.8028 44.7464 49.1924 44.4771 49.5103C44.2078 49.8282 43.85 50.0604 43.4484 50.1778C43.0468 50.2952 42.6193 50.2926 42.2192 50.1704C41.8191 50.0481 41.4642 49.8117 41.1988 49.4905C40.9334 49.1694 40.7693 48.7778 40.7269 48.3647C40.6846 47.9516 40.7659 47.5352 40.9607 47.1677C41.1555 46.8001 41.4552 46.4976 41.8223 46.298L41.8825 46.2665ZM29.2319 44.9777C29.3757 44.6842 29.5764 44.4217 29.8225 44.2051C30.0685 43.9886 30.3552 43.8222 30.6661 43.7156C30.977 43.6089 31.306 43.564 31.6343 43.5835C31.9627 43.6029 32.284 43.6864 32.5799 43.829C32.8757 43.9716 33.1404 44.1707 33.3587 44.4147C33.577 44.6588 33.7447 44.9432 33.8523 45.2515C33.9598 45.5599 34.0051 45.8863 33.9854 46.212C33.9658 46.5377 33.8817 46.8564 33.7379 47.1499C33.4475 47.7426 32.9316 48.1966 32.3038 48.412C31.6759 48.6274 30.9875 48.5866 30.39 48.2986C29.7924 48.0105 29.3347 47.4988 29.1176 46.876C28.9004 46.2532 28.9415 45.5704 29.2319 44.9777ZM7.07606 41.1316C7.48949 40.9264 7.96793 40.8914 8.4072 41.0344C8.84647 41.1775 9.211 41.4868 9.4214 41.8952C9.6318 42.3035 9.67103 42.7778 9.53056 43.2147C9.39009 43.6516 9.08129 44.0158 8.6714 44.2279C8.26151 44.44 7.78373 44.4829 7.34209 44.3473C6.90046 44.2116 6.53074 43.9084 6.31345 43.5036C6.09615 43.0988 6.04887 42.6253 6.18192 42.1861C6.31496 41.7469 6.61754 41.3776 7.02377 41.1587L7.07606 41.1316ZM54.0034 41.6261C54.2582 41.2403 54.6571 40.9707 55.1123 40.8767C55.5675 40.7826 56.0417 40.8718 56.4306 41.1246C56.8195 41.3773 57.0913 41.773 57.1861 42.2245C57.2809 42.676 57.191 43.1464 56.9362 43.5322C56.81 43.7232 56.6471 43.8877 56.4569 44.0162C56.2666 44.1448 56.0527 44.235 55.8273 44.2815C55.6019 44.3281 55.3695 44.3302 55.1433 44.2876C54.9171 44.2451 54.7015 44.1588 54.509 44.0336C54.3164 43.9085 54.1506 43.7469 54.021 43.5582C53.8913 43.3695 53.8004 43.1573 53.7535 42.9337C53.7066 42.7101 53.7045 42.4796 53.7473 42.2552C53.7902 42.0309 53.8772 41.8171 54.0034 41.6261ZM24.6112 33.9142C25.4454 33.4676 26.406 33.3098 27.3409 33.4656C28.2758 33.6215 29.1315 34.0822 29.7727 34.7749C30.4139 35.4675 30.8039 36.3525 30.8809 37.2897C30.958 38.2269 30.7177 39.1629 30.1982 39.9494C29.8116 40.5377 29.2828 41.0207 28.6598 41.3542C28.0368 41.6877 27.3396 41.8612 26.6317 41.8589C25.6837 41.8581 24.7631 41.5437 24.0155 40.9655C23.2679 40.3873 22.7361 39.5783 22.5042 38.6666C22.2724 37.7548 22.3537 36.7924 22.7353 35.9316C23.1169 35.0709 23.777 34.3609 24.6112 33.9142ZM35.3742 33.5962C36.3408 33.2876 37.3868 33.3316 38.3236 33.7202C39.2605 34.1089 40.0265 34.8167 40.4838 35.716C40.989 36.716 41.0741 37.8739 40.7206 38.936C40.367 39.9981 39.6036 40.878 38.5974 41.3831C38.0025 41.682 37.346 41.8402 36.6792 41.8454C35.6636 41.8455 34.6814 41.4858 33.9096 40.831C33.1378 40.1763 32.6272 39.2696 32.4697 38.2744C32.3123 37.2793 32.5184 36.261 33.051 35.4033C33.5835 34.5455 34.4074 33.9047 35.3742 33.5962ZM14.8592 35.9432C15.0733 35.6942 15.3348 35.4896 15.6288 35.3411C15.9228 35.1927 16.2435 35.1033 16.5725 35.0781C16.9014 35.0529 17.2321 35.0924 17.5456 35.1944C17.8591 35.2964 18.1492 35.4588 18.3992 35.6723C18.6493 35.8857 18.8543 36.1461 19.0026 36.4385C19.1509 36.7308 19.2395 37.0493 19.2634 37.3757C19.2872 37.7021 19.2458 38.0299 19.1416 38.3404C19.0373 38.6509 18.8723 38.9379 18.6559 39.1849C18.2215 39.6808 17.6068 39.9858 16.9462 40.0333C16.2857 40.0808 15.633 39.8669 15.1311 39.4383C14.6292 39.0097 14.3188 38.4014 14.2678 37.7464C14.2169 37.0914 14.4295 36.4431 14.8592 35.9432ZM44.4595 36.1343C44.64 35.8615 44.8729 35.6267 45.1449 35.4432C45.4169 35.2597 45.7227 35.1311 46.0448 35.0648C46.3669 34.9985 46.699 34.9958 47.0222 35.0569C47.3453 35.1179 47.6532 35.2415 47.9282 35.4206C48.4825 35.7831 48.8695 36.3487 49.0044 36.9935C49.1392 37.6384 49.011 38.31 48.6477 38.8613C48.2832 39.4122 47.7129 39.7969 47.0624 39.9308C46.4119 40.0646 45.7344 39.9367 45.179 39.575C44.6236 39.2134 44.2358 38.6478 44.1009 38.0025C43.9659 37.3573 44.0949 36.6853 44.4595 36.1343ZM17.3259 28.7839C17.3735 27.9633 17.6613 27.1742 18.1541 26.5134C18.6469 25.8525 19.3233 25.3486 20.1004 25.0633C20.8776 24.7779 21.7218 24.7236 22.5296 24.907C23.3374 25.0903 24.0737 25.5033 24.6485 26.0955C25.2232 26.6876 25.6114 27.4332 25.7655 28.2408C25.9195 29.0485 25.8328 29.8832 25.5159 30.6427C25.199 31.4022 24.6657 32.0535 23.9813 32.5169C23.2968 32.9804 22.491 33.2357 21.6625 33.2518L21.5846 33.2523H21.3516C20.2352 33.1879 19.1888 32.6915 18.4376 31.8698C17.6864 31.048 17.2902 29.9667 17.3344 28.8583L17.3378 28.7816L17.3259 28.7839ZM37.4254 28.7365C37.4906 27.6174 38.0012 26.5698 38.8449 25.8239C39.6886 25.0781 40.7963 24.6951 41.9246 24.7591C42.4826 24.7874 43.0294 24.9257 43.5329 25.166C44.0365 25.4062 44.4867 25.7436 44.8573 26.1584C45.3999 26.7611 45.7568 27.5054 45.886 28.3031C46.0151 29.1008 45.911 29.9186 45.586 30.6594C45.261 31.4003 44.7286 32.0332 44.0521 32.4831C43.3756 32.9331 42.5832 33.1813 41.7689 33.1982L41.6825 33.1993H41.4352C40.307 33.1347 39.2508 32.6282 38.4989 31.7914C37.747 30.9545 37.3609 29.8557 37.4254 28.7365ZM7.1903 28.9288C7.20189 28.649 7.26946 28.3744 7.3891 28.1208C7.50874 27.8672 7.67804 27.6397 7.88716 27.4517C8.09627 27.2636 8.34101 27.1187 8.60713 27.0254C8.87326 26.932 9.15544 26.8921 9.43725 26.908C9.71906 26.9239 9.99486 26.9953 10.2486 27.1179C10.5023 27.2406 10.729 27.4121 10.9152 27.6224C11.1015 27.8328 11.2437 28.0778 11.3336 28.3432C11.4235 28.6086 11.4593 28.8891 11.4388 29.1684C11.3983 29.721 11.1404 30.2356 10.7208 30.6013C10.3011 30.9669 9.75333 31.1542 9.19566 31.1228C8.638 31.0913 8.11516 30.8436 7.73998 30.4332C7.36481 30.0227 7.16738 29.4824 7.1903 28.9288ZM51.8368 28.8329C51.8528 28.5562 51.9236 28.2853 52.0451 28.0357C52.1666 27.786 52.3365 27.5626 52.5451 27.3781C52.7537 27.1936 52.9968 27.0517 53.2607 26.9604C53.5246 26.8692 53.804 26.8304 54.083 26.8462C54.362 26.862 54.6351 26.9322 54.8867 27.0528C55.1384 27.1733 55.3636 27.3419 55.5496 27.5487C55.7356 27.7556 55.8787 27.9968 55.9707 28.2586C56.0627 28.5203 56.1019 28.7975 56.0859 29.0742C56.0537 29.6331 55.799 30.1565 55.3778 30.5291C54.9566 30.9018 54.4035 31.0932 53.84 31.0612C53.2765 31.0293 52.7489 30.7767 52.3733 30.3589C51.9976 29.9411 51.8046 29.3918 51.8368 28.8329ZM1.4004 27.7088L1.45155 27.711C1.63225 27.7207 1.80924 27.7658 1.97234 27.8435C2.13544 27.9213 2.28144 28.0303 2.40196 28.1642C2.52248 28.2981 2.61514 28.4543 2.67462 28.6238C2.7341 28.7933 2.75923 28.9728 2.74856 29.152C2.73291 29.4191 2.63847 29.6757 2.47698 29.8899C2.31549 30.1041 2.09407 30.2665 1.84026 30.3569C1.58645 30.4473 1.31145 30.4617 1.04946 30.3983C0.787465 30.3349 0.550041 30.1966 0.366713 30.0004C0.183384 29.8042 0.0622387 29.5589 0.0183436 29.295C-0.0255515 29.031 0.00974012 28.7601 0.119829 28.5159C0.229919 28.2717 0.409948 28.065 0.637529 27.9215C0.86511 27.778 1.1302 27.704 1.39983 27.7088M61.9224 27.5678L61.9792 27.5701C62.3416 27.5918 62.6807 27.7545 62.9229 28.0228C63.1651 28.2911 63.2907 28.6434 63.2726 29.0031C63.2544 29.3627 63.0939 29.7008 62.826 29.9438C62.558 30.1868 62.2042 30.3151 61.8415 30.3008C61.4787 30.2866 61.1362 30.1309 60.8885 29.8677C60.6407 29.6044 60.5077 29.2548 60.5183 28.8949C60.5289 28.5349 60.6822 28.1936 60.945 27.9451C61.2078 27.6967 61.5594 27.5611 61.9224 27.5678ZM26.5942 16.1638C27.3825 16.16 28.1564 16.374 28.8291 16.7819C29.5018 17.1897 30.0467 17.7753 30.4028 18.473C30.7319 19.1178 30.8889 19.8354 30.8589 20.5574C30.8288 21.2794 30.6127 21.9818 30.2312 22.5974C29.8497 23.213 29.3155 23.7214 28.6796 24.074C28.0437 24.4265 27.3272 24.6116 26.5987 24.6114C25.8087 24.6136 25.0338 24.3971 24.361 23.9862C23.6883 23.5754 23.1445 22.9865 22.7907 22.2858C22.4654 21.6418 22.3115 20.926 22.3434 20.2063C22.3753 19.4867 22.592 18.787 22.973 18.1738C23.354 17.5605 23.8867 17.054 24.5204 16.7022C25.1541 16.3505 25.868 16.1652 26.5942 16.1638ZM36.6445 16.134C37.7744 16.1354 38.8575 16.5821 39.6554 17.3757C40.4534 18.1693 40.9008 19.2448 40.8993 20.3656C40.8978 21.4864 40.4474 22.5608 39.6474 23.3522C38.8473 24.1437 37.7631 24.5875 36.6331 24.586C36.0737 24.5853 35.5198 24.4752 35.0032 24.2622C34.4866 24.0491 34.0173 23.7372 33.6222 23.3443C32.8243 22.5507 32.3769 21.4752 32.3784 20.3544C32.3799 19.2335 32.8302 18.1592 33.6303 17.3677C34.4303 16.5763 35.5146 16.1325 36.6445 16.134ZM14.6262 19.1389C14.8045 18.8617 15.0366 18.6223 15.3089 18.4348C15.5813 18.2472 15.8884 18.1152 16.2126 18.0462C16.5367 17.9773 16.8715 17.9729 17.1974 18.0333C17.5233 18.0937 17.8338 18.2176 18.1111 18.3979C18.3883 18.5783 18.6267 18.8114 18.8124 19.0838C18.9981 19.3562 19.1275 19.6625 19.193 19.9849C19.2584 20.3073 19.2587 20.6393 19.1939 20.9618C19.129 21.2843 19.0002 21.5908 18.815 21.8636C18.449 22.4108 17.8795 22.792 17.231 22.9239C16.5824 23.0558 15.9076 22.9277 15.3541 22.5676C14.8005 22.2074 14.4132 21.6445 14.2768 21.0019C14.1404 20.3593 14.266 19.6893 14.6262 19.1383M45.3933 18.2165C45.687 18.0695 46.0071 17.9814 46.3352 17.9572C46.6633 17.933 46.993 17.9732 47.3054 18.0755C47.6178 18.1778 47.9068 18.3402 48.1559 18.5535C48.4049 18.7667 48.6092 19.0265 48.7569 19.3181C48.9797 19.757 49.0663 20.2516 49.0057 20.7393C48.9452 21.227 48.7402 21.686 48.4167 22.0582C48.0932 22.4303 47.6656 22.6989 47.1882 22.8301C46.7108 22.9612 46.2049 22.949 45.7344 22.7949C45.264 22.6408 44.8502 22.3519 44.5454 21.9645C44.2405 21.5772 44.0583 21.1088 44.0218 20.6188C43.9853 20.1287 44.0961 19.6389 44.3402 19.2113C44.5844 18.7837 44.9508 18.4375 45.3933 18.2165ZM6.3406 14.4686C6.46681 14.2776 6.62971 14.1131 6.82 13.9846C7.01028 13.8561 7.22422 13.766 7.44961 13.7195C7.67499 13.673 7.90741 13.6709 8.13358 13.7135C8.35976 13.7561 8.57526 13.8425 8.76779 13.9677C8.96032 14.0929 9.1261 14.2544 9.25568 14.4432C9.38525 14.6319 9.47608 14.8441 9.52297 15.0677C9.56987 15.2913 9.57191 15.5218 9.52898 15.7462C9.48605 15.9705 9.39899 16.1843 9.27278 16.3752C9.01788 16.761 8.61893 17.0305 8.16369 17.1245C7.70845 17.2185 7.23421 17.1293 6.84531 16.8764C6.4564 16.6236 6.18468 16.2279 6.08992 15.7763C5.99517 15.3247 6.08513 14.8543 6.34003 14.4686M54.6189 13.7644C54.8246 13.6617 55.0486 13.6002 55.2782 13.5834C55.5078 13.5666 55.7385 13.5948 55.9571 13.6664C56.1757 13.738 56.3779 13.8517 56.5522 14.0008C56.7266 14.1499 56.8696 14.3317 56.9731 14.5357C57.0766 14.7396 57.1386 14.9618 57.1556 15.1896C57.1725 15.4173 57.1441 15.6461 57.0719 15.863C56.9997 16.0798 56.8852 16.2804 56.7348 16.4533C56.5844 16.6263 56.4012 16.7681 56.1956 16.8708C55.7803 17.0782 55.299 17.1134 54.8575 16.9688C54.416 16.8242 54.0505 16.5115 53.8414 16.0996C53.6324 15.6876 53.5968 15.2102 53.7426 14.7723C53.8884 14.3343 54.2037 13.9718 54.6189 13.7644ZM29.0961 11.7946C29.1342 11.1367 29.4341 10.5207 29.93 10.0822C30.4259 9.64373 31.0771 9.41859 31.7404 9.45635C32.4037 9.4941 33.0246 9.79166 33.4667 10.2836C33.9088 10.7755 34.1357 11.4214 34.0977 12.0793C34.0596 12.7372 33.7596 13.3531 33.2637 13.7917C32.7678 14.2302 32.1166 14.4553 31.4534 14.4175C30.7901 14.3798 30.1692 14.0822 29.7271 13.5903C29.285 13.0984 29.058 12.4525 29.0961 11.7946ZM19.4749 7.96263C19.7247 7.83514 19.9975 7.75798 20.2776 7.73562C20.5576 7.71325 20.8394 7.74612 21.1066 7.83232C21.3737 7.91853 21.6211 8.05636 21.8343 8.23787C22.0475 8.41938 22.2223 8.64097 22.3487 8.88986C22.4752 9.13875 22.5506 9.41001 22.5708 9.68798C22.591 9.96595 22.5555 10.2451 22.4663 10.5094C22.3771 10.7737 22.2361 11.0179 22.0513 11.2278C21.8665 11.4377 21.6417 11.6093 21.3897 11.7326C20.8863 11.9789 20.3053 12.0179 19.773 11.8412C19.2408 11.6646 18.8005 11.2865 18.548 10.7893C18.2954 10.2921 18.2512 9.71609 18.4248 9.18668C18.5984 8.65726 18.9758 8.21732 19.4749 7.96263ZM40.9692 8.64029C41.121 8.40534 41.3182 8.20254 41.5494 8.0436C41.7807 7.88465 42.0413 7.77272 42.3164 7.71426C42.5915 7.65579 42.8755 7.65196 43.1521 7.70297C43.4287 7.75399 43.6924 7.85884 43.9279 8.01148C44.1634 8.16412 44.3661 8.36152 44.5243 8.59229C44.6825 8.82305 44.793 9.08261 44.8495 9.35598C44.906 9.62935 44.9074 9.91112 44.8535 10.185C44.7996 10.4589 44.6916 10.7195 44.5356 10.9518C44.2243 11.4155 43.7408 11.7384 43.1906 11.8503C42.6403 11.9623 42.0678 11.8541 41.5975 11.5493C41.1273 11.2445 40.7974 10.7679 40.6798 10.2231C40.5621 9.67826 40.6661 9.1094 40.9692 8.64029ZM15.818 1.81864C15.98 1.73386 16.1574 1.68195 16.3399 1.66595C16.5223 1.64994 16.7061 1.67017 16.8806 1.72544C17.0551 1.78072 17.2167 1.86993 17.356 1.98786C17.4953 2.1058 17.6095 2.25009 17.692 2.41232C17.7744 2.57454 17.8235 2.75143 17.8362 2.93267C17.8489 3.1139 17.8251 3.29583 17.7662 3.46784C17.7072 3.63984 17.6143 3.79847 17.4928 3.93444C17.3714 4.07042 17.2238 4.18102 17.0588 4.25978C16.7334 4.41506 16.3595 4.43746 16.0176 4.32217C15.6757 4.20687 15.3931 3.96309 15.2305 3.64324C15.068 3.3234 15.0384 2.95305 15.1483 2.61183C15.2582 2.27062 15.4987 1.9858 15.818 1.81864ZM45.5587 2.22117C45.656 2.06717 45.7832 1.93396 45.933 1.82932C46.0829 1.72468 46.2522 1.65072 46.4311 1.61176C46.6101 1.5728 46.7951 1.56962 46.9753 1.60241C47.1555 1.63521 47.3273 1.70331 47.4807 1.80274C47.634 1.90217 47.7659 2.03093 47.8685 2.1815C47.9711 2.33207 48.0424 2.50141 48.0783 2.67964C48.1141 2.85786 48.1138 3.04139 48.0773 3.21948C48.0408 3.39758 47.9688 3.56667 47.8657 3.71686C47.6649 4.01858 47.3519 4.22915 46.995 4.3025C46.6381 4.37585 46.2665 4.30601 45.9614 4.10826C45.6563 3.91051 45.4426 3.60095 45.367 3.2473C45.2915 2.89365 45.3602 2.5247 45.5581 2.22117M30.9973 0.0974437C31.4361 -0.0547694 31.918 -0.0278131 32.3368 0.172383C32.7557 0.372578 33.0772 0.729614 33.2306 1.16495C33.3841 1.60028 33.3569 2.07825 33.1551 2.49371C32.9533 2.90916 32.5933 3.22808 32.1545 3.38029C31.7156 3.5325 31.2337 3.50555 30.8149 3.30535C30.396 3.10516 30.0745 2.74812 29.9211 2.31279C29.7676 1.87746 29.7948 1.39949 29.9966 0.984029C30.1984 0.568571 30.5584 0.249657 30.9973 0.0974437ZM276.724 14.596C285.595 14.596 291 19.2606 291 29.1233C291 38.9865 285.603 43.6511 276.724 43.6511C267.846 43.6511 262.491 38.9865 262.491 29.1233C262.491 19.2601 267.855 14.596 276.724 14.596ZM88.8127 14.587C95.7968 14.587 101.203 18.0451 101.311 25.2214L101.312 25.4401H95.9087C95.9087 21.2654 93.0197 19.016 88.8951 19.016C83.257 19.016 80.5743 22.2233 80.5175 28.5161L80.5163 28.7078V29.5252C80.5163 36.0718 83.1609 39.2238 88.8968 39.2238C93.2232 39.2238 96.0565 37.0172 96.1128 33.0026L96.1139 32.8808H101.312C101.312 40.2076 95.9508 43.6438 88.8133 43.6438C80.1481 43.6438 75.1152 39.2238 75.1152 29.1165C75.1152 19.2539 80.148 14.587 88.8127 14.587ZM122.244 15.0859L133.267 43.1618H127.573L125.245 37.0629H112.299L110.031 43.1612H104.584L115.6 15.0853L122.244 15.0859ZM153.483 15.0859C159.713 15.0859 162.726 18.402 162.726 23.5977C162.726 27.3649 161.069 30.1285 157.798 31.455L157.692 31.4973L163.746 43.1618H157.969L152.615 32.308H143.828V43.1612H138.546V15.0853L153.483 15.0859ZM181.252 15.0859C189.791 15.0859 194.983 19.5059 194.983 29.1238C194.983 38.6454 189.89 43.0721 181.503 43.1601L181.247 43.1612H169.942V15.0853L181.252 15.0859ZM215.458 15.0859L226.474 43.1618H220.779L218.47 37.0629H205.515L203.245 43.1612H197.8L208.821 15.0853L215.458 15.0859ZM236.803 15.0859L249.098 31.8254L249.141 31.8891L249.234 32.0301L249.333 32.184L249.437 32.3492L249.654 32.6998L250.338 33.8296L250.435 33.9858L250.464 34.0303L250.495 34.0743L250.699 33.9937L250.696 33.8657L250.68 33.4745L250.643 32.6412L250.626 32.1936L250.621 31.9979L250.618 31.8316V31.7837H250.613V15.0859H255.686V43.1618H250.737L238.359 26.2599C238.27 26.1324 238.184 26.0034 238.1 25.8731L238.016 25.7412L237.933 25.6098L237.812 25.4125L237.657 25.156L237.583 25.0314L237.411 24.736L237.072 24.144L237.006 24.0341L236.981 23.9946L236.962 23.9664L236.754 24.0893L236.758 24.2049L236.81 25.3229L236.824 25.6814L236.833 25.9859L236.837 26.1719L236.838 26.2593V43.1612H231.763V15.0853L236.803 15.0859ZM276.725 19.016C271.089 19.016 267.96 22.2233 267.898 28.5229L267.897 28.7145V29.5737C267.897 35.9979 270.991 39.2311 276.724 39.2311C282.442 39.2311 285.532 36.0627 285.593 29.7654L285.594 29.5737V28.7145C285.594 22.2881 282.461 19.016 276.724 19.016M181.251 19.547H175.229V38.7001H181.252C186.562 38.7001 189.485 35.7329 189.584 29.7152L189.586 29.532V28.7145C189.586 22.6382 186.665 19.6079 181.411 19.5476L181.251 19.547ZM118.858 19.5792H118.653L118.589 19.7641L117.768 22.2588L117.525 22.9855L117.308 23.6242L117.223 23.8695L117.06 24.3335L116.982 24.5494L116.908 24.7518L113.949 32.6356L123.561 32.6333L120.674 24.939L120.641 24.8538L120.572 24.6717L120.499 24.4767L120.386 24.1609L120.266 23.8238L120.145 23.4698L120.02 23.1033L119.811 22.4786L118.95 19.847L118.867 19.6034L118.858 19.5792ZM212.08 19.5792H211.869L211.806 19.7641L210.984 22.2588L210.742 22.9855L210.525 23.6242L210.44 23.8695L210.277 24.3335L210.199 24.5494L210.125 24.7518L207.17 32.6356L216.782 32.6333L213.895 24.939L213.828 24.7642L213.757 24.5759L213.645 24.2692L213.528 23.9388L213.365 23.4698L213.199 22.9793L213.032 22.4786L212.766 21.6736L212.143 19.7646L212.08 19.5792ZM153.068 19.547H143.828V27.8954H153.068C155.792 27.8954 157.401 26.2604 157.401 23.5983C157.401 21.0906 155.949 19.5814 153.163 19.5482L153.068 19.547Z" fill="#0033AD"/>
</svg>
