<svg width="142" height="29" viewBox="0 0 142 29" fill="none" xmlns="http://www.w3.org/2000/svg">
<path d="M14.868 27.6836C14.8744 27.573 14.9026 27.4647 14.951 27.3649C14.9995 27.2651 15.0672 27.1758 15.1504 27.1021C15.2336 27.0283 15.3306 26.9716 15.4358 26.9351C15.541 26.8986 15.6525 26.8831 15.7637 26.8894C15.875 26.8957 15.9839 26.9238 16.0843 26.9719C16.1846 27.0201 16.2745 27.0875 16.3487 27.1701C16.4228 27.2528 16.4799 27.3492 16.5166 27.4539C16.5533 27.5585 16.5689 27.6693 16.5626 27.7799C16.5497 28.0033 16.4481 28.2125 16.2802 28.3614C16.1122 28.5103 15.8916 28.5868 15.6669 28.5741C15.4422 28.5613 15.2318 28.4603 15.0819 28.2933C14.9321 28.1263 14.8552 27.907 14.868 27.6836ZM7.91808 26.7708C7.96506 26.6956 8.0267 26.6306 8.09937 26.5794C8.17203 26.5283 8.25426 26.4921 8.3412 26.4731C8.42814 26.454 8.51803 26.4525 8.60559 26.4685C8.69314 26.4845 8.77659 26.5178 8.851 26.5664C8.92542 26.6149 8.98931 26.6778 9.03891 26.7513C9.0885 26.8248 9.1228 26.9075 9.13978 26.9943C9.15676 27.0812 9.15608 27.1706 9.13777 27.2572C9.11947 27.3438 9.08392 27.4259 9.03321 27.4987C8.93473 27.6425 8.78334 27.7421 8.61169 27.776C8.44004 27.8099 8.26186 27.7754 8.11555 27.6799C7.96924 27.5845 7.86653 27.4357 7.82954 27.2656C7.79255 27.0956 7.82452 26.9179 7.91808 26.7708ZM22.8247 26.511C22.9028 26.4715 22.9881 26.4479 23.0755 26.4413C23.1629 26.4347 23.2507 26.4453 23.334 26.4726C23.4172 26.4998 23.4943 26.5431 23.5606 26.6C23.627 26.6569 23.6814 26.7263 23.7208 26.8042C23.7802 26.9213 23.8034 27.0533 23.7873 27.1836C23.7713 27.3138 23.7168 27.4364 23.6307 27.5358C23.5446 27.6352 23.4307 27.707 23.3036 27.7421C23.1764 27.7772 23.0417 27.774 22.9163 27.733C22.791 27.6919 22.6807 27.6148 22.5994 27.5115C22.5182 27.4081 22.4695 27.2831 22.4597 27.1523C22.4499 27.0214 22.4794 26.8906 22.5443 26.7764C22.6093 26.6622 22.7068 26.57 22.8247 26.511ZM9.529 23.2606C9.60173 23.1451 9.69689 23.0453 9.80891 22.9668C9.92093 22.8884 10.0476 22.833 10.1814 22.8038C10.3152 22.7746 10.4536 22.7723 10.5883 22.7969C10.7231 22.8216 10.8515 22.8727 10.9662 22.9473C11.0808 23.0219 11.1793 23.1185 11.2559 23.2314C11.3326 23.3443 11.3858 23.4713 11.4124 23.6049C11.4391 23.7385 11.4387 23.876 11.4112 24.0095C11.3837 24.1429 11.3298 24.2696 11.2525 24.382C11.1003 24.6034 10.8669 24.7565 10.6025 24.8087C10.338 24.8609 10.0635 24.8078 9.83787 24.661C9.61227 24.5142 9.45356 24.2853 9.39581 24.0235C9.33806 23.7617 9.38588 23.4877 9.529 23.2606ZM20.7323 22.8825C20.8528 22.8214 20.9842 22.7846 21.1191 22.774C21.254 22.7635 21.3896 22.7795 21.5183 22.8211C21.6469 22.8628 21.7661 22.9292 21.8688 23.0167C21.9716 23.1042 22.0561 23.2109 22.1173 23.3309C22.2094 23.5103 22.2463 23.7128 22.2233 23.913C22.2004 24.1131 22.1186 24.3022 21.9882 24.4564C21.8579 24.6107 21.6847 24.7233 21.4903 24.7802C21.2959 24.8372 21.0889 24.8359 20.8952 24.7766C20.7016 24.7173 20.5298 24.6026 20.4013 24.4468C20.2728 24.291 20.1933 24.101 20.1728 23.9006C20.1523 23.7001 20.1917 23.4981 20.286 23.3198C20.3803 23.1415 20.5254 22.9947 20.7031 22.8979L20.7323 22.8825ZM14.6083 22.2572C14.6779 22.1149 14.775 21.9875 14.8941 21.8824C15.0133 21.7773 15.152 21.6966 15.3025 21.6449C15.453 21.5931 15.6123 21.5714 15.7713 21.5808C15.9302 21.5902 16.0857 21.6307 16.229 21.6999C16.3722 21.7691 16.5003 21.8657 16.606 21.9841C16.7117 22.1025 16.7929 22.2405 16.8449 22.3901C16.897 22.5397 16.9189 22.6981 16.9094 22.8561C16.8999 23.0142 16.8592 23.1688 16.7896 23.3112C16.649 23.5987 16.3993 23.819 16.0953 23.9235C15.7914 24.028 15.4581 24.0083 15.1689 23.8685C14.8796 23.7287 14.6581 23.4805 14.5529 23.1783C14.4478 22.8761 14.4677 22.5448 14.6083 22.2572ZM3.88294 20.3912C4.08308 20.2916 4.31468 20.2747 4.52733 20.3441C4.73997 20.4134 4.91643 20.5635 5.01828 20.7617C5.12014 20.9598 5.13913 21.1899 5.07113 21.4019C5.00313 21.6139 4.85364 21.7905 4.65522 21.8935C4.4568 21.9964 4.22551 22.0172 4.01172 21.9514C3.79793 21.8856 3.61896 21.7384 3.51377 21.542C3.40858 21.3457 3.38569 21.1159 3.4501 20.9028C3.5145 20.6897 3.66098 20.5106 3.85763 20.4043L3.88294 20.3912ZM26.5998 20.6311C26.7232 20.4439 26.9163 20.3131 27.1366 20.2675C27.357 20.2219 27.5865 20.2651 27.7748 20.3878C27.963 20.5104 28.0946 20.7024 28.1405 20.9215C28.1864 21.1405 28.1429 21.3687 28.0195 21.5559C27.9584 21.6486 27.8796 21.7284 27.7875 21.7908C27.6954 21.8532 27.5918 21.8969 27.4827 21.9195C27.3736 21.9421 27.2611 21.9431 27.1516 21.9224C27.0421 21.9018 26.9378 21.8599 26.8445 21.7992C26.7513 21.7385 26.671 21.6601 26.6083 21.5685C26.5455 21.477 26.5016 21.374 26.4788 21.2655C26.4561 21.1571 26.4551 21.0452 26.4758 20.9364C26.4966 20.8275 26.5387 20.7238 26.5998 20.6311ZM12.3714 16.8894C12.7753 16.6727 13.2403 16.5962 13.6928 16.6718C14.1454 16.7474 14.5597 16.971 14.8701 17.307C15.1805 17.6431 15.3692 18.0724 15.4065 18.5272C15.4438 18.9819 15.3275 19.436 15.076 19.8176C14.8889 20.103 14.6329 20.3374 14.3313 20.4992C14.0298 20.661 13.6922 20.7452 13.3495 20.7441C12.8906 20.7437 12.445 20.5911 12.0831 20.3106C11.7212 20.0301 11.4638 19.6376 11.3515 19.1952C11.2393 18.7528 11.2786 18.2859 11.4633 17.8683C11.6481 17.4506 11.9676 17.1062 12.3714 16.8894ZM17.5817 16.7352C18.0496 16.5854 18.5559 16.6067 19.0094 16.7953C19.463 16.9839 19.8338 17.3273 20.0552 17.7636C20.2997 18.2488 20.3409 18.8106 20.1698 19.3259C19.9986 19.8413 19.629 20.2682 19.142 20.5132C18.854 20.6582 18.5362 20.735 18.2134 20.7375C17.7218 20.7376 17.2463 20.563 16.8727 20.2454C16.4991 19.9277 16.2519 19.4878 16.1757 19.0049C16.0994 18.5221 16.1992 18.0281 16.457 17.6119C16.7148 17.1957 17.1137 16.8848 17.5817 16.7352ZM7.65065 17.8739C7.75427 17.7531 7.88088 17.6538 8.02321 17.5817C8.16554 17.5097 8.32077 17.4663 8.48001 17.4541C8.63924 17.4419 8.79934 17.4611 8.95109 17.5106C9.10285 17.56 9.24328 17.6388 9.36432 17.7424C9.48537 17.846 9.58463 17.9723 9.65642 18.1142C9.72821 18.256 9.77111 18.4105 9.78265 18.5689C9.7942 18.7272 9.77416 18.8863 9.72369 19.037C9.67322 19.1876 9.59331 19.3268 9.48856 19.4467C9.27827 19.6873 8.9807 19.8353 8.66094 19.8583C8.34118 19.8814 8.02526 19.7776 7.78228 19.5696C7.5393 19.3617 7.38904 19.0665 7.36437 18.7488C7.3397 18.431 7.44264 18.1164 7.65065 17.8739ZM21.9797 17.9666C22.0671 17.8342 22.1798 17.7203 22.3115 17.6313C22.4432 17.5422 22.5912 17.4798 22.7472 17.4477C22.9031 17.4155 23.0639 17.4142 23.2203 17.4438C23.3767 17.4735 23.5258 17.5334 23.6589 17.6203C23.9272 17.7962 24.1146 18.0706 24.1798 18.3835C24.2451 18.6964 24.183 19.0222 24.0072 19.2897C23.8307 19.557 23.5547 19.7436 23.2398 19.8086C22.9249 19.8735 22.5969 19.8114 22.328 19.636C22.0592 19.4605 21.8714 19.1861 21.8061 18.873C21.7408 18.5599 21.8032 18.2339 21.9797 17.9666ZM8.84474 14.4003C8.86777 14.0021 9.0071 13.6193 9.24566 13.2987C9.48422 12.978 9.81166 12.7335 10.1879 12.5951C10.5641 12.4567 10.9727 12.4303 11.3638 12.5193C11.7548 12.6082 12.1113 12.8086 12.3895 13.0959C12.6677 13.3832 12.8556 13.7449 12.9302 14.1368C13.0048 14.5287 12.9628 14.9336 12.8094 15.3021C12.656 15.6706 12.3978 15.9867 12.0665 16.2115C11.7352 16.4363 11.3451 16.5602 10.944 16.568L10.9063 16.5683H10.7935C10.2531 16.537 9.74657 16.2962 9.3829 15.8975C9.01924 15.4988 8.82748 14.9742 8.84887 14.4364L8.85052 14.3992L8.84474 14.4003ZM18.5746 14.3773C18.6062 13.8343 18.8534 13.326 19.2618 12.9641C19.6702 12.6023 20.2064 12.4165 20.7526 12.4475C21.0228 12.4613 21.2874 12.5284 21.5312 12.6449C21.775 12.7615 21.9929 12.9252 22.1723 13.1264C22.4349 13.4188 22.6077 13.78 22.6703 14.167C22.7328 14.5541 22.6824 14.9508 22.525 15.3103C22.3677 15.6697 22.11 15.9768 21.7825 16.1951C21.455 16.4134 21.0714 16.5338 20.6772 16.542L20.6354 16.5426H20.5157C19.9696 16.5112 19.4583 16.2655 19.0943 15.8595C18.7303 15.4534 18.5434 14.9203 18.5746 14.3773ZM3.93824 14.4706C3.94385 14.3348 3.97656 14.2016 4.03448 14.0785C4.09239 13.9555 4.17435 13.8451 4.27558 13.7539C4.37681 13.6627 4.49529 13.5924 4.62411 13.5471C4.75294 13.5018 4.88954 13.4824 5.02596 13.4902C5.16238 13.4979 5.29589 13.5325 5.41872 13.592C5.54156 13.6515 5.65125 13.7347 5.74143 13.8368C5.8316 13.9388 5.90045 14.0577 5.94396 14.1865C5.98748 14.3152 6.00479 14.4513 5.99488 14.5868C5.97529 14.8549 5.85044 15.1046 5.64729 15.282C5.44414 15.4594 5.17897 15.5503 4.90901 15.5351C4.63905 15.5198 4.38595 15.3996 4.20434 15.2005C4.02272 15.0013 3.92715 14.7392 3.93824 14.4706ZM25.551 14.4241C25.5587 14.2898 25.593 14.1584 25.6518 14.0373C25.7106 13.9161 25.7929 13.8077 25.8939 13.7182C25.9948 13.6287 26.1125 13.5599 26.2403 13.5156C26.368 13.4713 26.5033 13.4525 26.6383 13.4601C26.7734 13.4678 26.9056 13.5019 27.0274 13.5604C27.1492 13.6189 27.2583 13.7006 27.3483 13.801C27.4383 13.9014 27.5076 14.0184 27.5521 14.1454C27.5967 14.2724 27.6156 14.4069 27.6079 14.5411C27.5923 14.8123 27.469 15.0662 27.2651 15.247C27.0612 15.4278 26.7935 15.5207 26.5207 15.5052C26.2479 15.4897 25.9925 15.3672 25.8107 15.1644C25.6288 14.9617 25.5354 14.6953 25.551 14.4241ZM1.13543 13.8787L1.1602 13.8797C1.24767 13.8845 1.33334 13.9063 1.4123 13.944C1.49125 13.9818 1.56193 14.0346 1.62028 14.0996C1.67862 14.1646 1.72347 14.2404 1.75227 14.3226C1.78106 14.4049 1.79322 14.492 1.78806 14.5789C1.78048 14.7085 1.73477 14.833 1.65659 14.9369C1.57841 15.0408 1.47123 15.1196 1.34836 15.1635C1.2255 15.2074 1.09237 15.2143 0.965547 15.1836C0.83872 15.1528 0.723787 15.0857 0.63504 14.9905C0.546293 14.8953 0.487648 14.7763 0.466399 14.6482C0.44515 14.5202 0.462235 14.3887 0.515527 14.2703C0.56882 14.1518 0.65597 14.0515 0.766138 13.9819C0.876307 13.9122 1.00463 13.8763 1.13516 13.8787M30.4333 13.8103L30.4608 13.8114C30.6362 13.8219 30.8004 13.9009 30.9176 14.031C31.0348 14.1612 31.0956 14.3321 31.0869 14.5066C31.0781 14.6811 31.0004 14.8451 30.8707 14.963C30.741 15.0809 30.5697 15.1432 30.3941 15.1363C30.2185 15.1294 30.0527 15.0538 29.9328 14.9261C29.8128 14.7984 29.7485 14.6288 29.7536 14.4541C29.7587 14.2795 29.8329 14.1139 29.9601 13.9933C30.0874 13.8728 30.2576 13.807 30.4333 13.8103ZM13.3314 8.27724C13.713 8.27539 14.0876 8.37923 14.4133 8.57711C14.7389 8.775 15.0027 9.05911 15.1751 9.39763C15.3344 9.71043 15.4104 10.0586 15.3959 10.4089C15.3813 10.7592 15.2767 11.1 15.092 11.3987C14.9073 11.6974 14.6487 11.944 14.3409 12.1151C14.0331 12.2862 13.6862 12.3759 13.3336 12.3759C12.9511 12.3769 12.576 12.2719 12.2503 12.0725C11.9247 11.8732 11.6614 11.5875 11.4902 11.2475C11.3327 10.935 11.2582 10.5878 11.2736 10.2386C11.2891 9.88943 11.394 9.54998 11.5784 9.25244C11.7629 8.9549 12.0207 8.70914 12.3275 8.53847C12.6343 8.3678 12.9798 8.27788 13.3314 8.27724ZM18.1966 8.26274C18.7436 8.26347 19.2679 8.48019 19.6542 8.86523C20.0404 9.25026 20.257 9.77208 20.2563 10.3159C20.2555 10.8597 20.0376 11.3809 19.6503 11.7649C19.263 12.1489 18.7381 12.3643 18.1911 12.3636C17.9203 12.3632 17.6521 12.3098 17.4021 12.2064C17.152 12.1031 16.9248 11.9517 16.7336 11.7611C16.3473 11.376 16.1307 10.8542 16.1314 10.3104C16.1322 9.76661 16.3502 9.24537 16.7375 8.86136C17.1247 8.47735 17.6496 8.26202 18.1966 8.26274ZM7.53785 9.72068C7.62419 9.58618 7.73654 9.47007 7.86836 9.37907C8.00019 9.28807 8.14887 9.22399 8.3058 9.19055C8.46272 9.15711 8.62476 9.15498 8.78253 9.18427C8.94029 9.21356 9.09063 9.2737 9.22483 9.36119C9.35904 9.44869 9.47444 9.5618 9.56434 9.69397C9.65424 9.82614 9.71686 9.97474 9.74856 10.1312C9.78025 10.2876 9.7804 10.4487 9.749 10.6051C9.71759 10.7616 9.65525 10.9103 9.5656 11.0427C9.38842 11.3082 9.11273 11.4931 8.79879 11.5571C8.48484 11.6211 8.15818 11.559 7.8902 11.3842C7.62222 11.2095 7.43473 10.9364 7.3687 10.6246C7.30267 10.3128 7.36349 9.98773 7.53785 9.7204M22.4318 9.27317C22.574 9.20184 22.7289 9.15907 22.8877 9.14733C23.0466 9.13559 23.2061 9.1551 23.3574 9.20474C23.5086 9.25439 23.6485 9.33319 23.7691 9.43664C23.8897 9.5401 23.9885 9.66618 24.06 9.80766C24.1679 10.0206 24.2098 10.2606 24.1805 10.4972C24.1512 10.7338 24.052 10.9565 23.8953 11.1371C23.7387 11.3176 23.5318 11.448 23.3007 11.5116C23.0695 11.5752 22.8246 11.5693 22.5969 11.4945C22.3692 11.4198 22.1689 11.2796 22.0213 11.0916C21.8737 10.9037 21.7855 10.6765 21.7679 10.4387C21.7502 10.2009 21.8038 9.96329 21.922 9.75583C22.0402 9.54836 22.2176 9.3804 22.4318 9.27317ZM3.52691 7.45473C3.58801 7.36207 3.66687 7.28228 3.75898 7.21992C3.8511 7.15756 3.95466 7.11385 4.06377 7.09128C4.17288 7.06871 4.28538 7.06773 4.39487 7.08839C4.50436 7.10905 4.60868 7.15095 4.70188 7.21169C4.79508 7.27243 4.87534 7.35083 4.93806 7.44241C5.00079 7.53399 5.04476 7.63695 5.06746 7.74542C5.09016 7.85389 5.09114 7.96574 5.07036 8.07459C5.04958 8.18344 5.00744 8.28716 4.94634 8.37981C4.82295 8.56698 4.62982 8.69775 4.40945 8.74335C4.18907 8.78896 3.9595 8.74566 3.77124 8.62299C3.58297 8.50031 3.45144 8.30831 3.40557 8.08922C3.35969 7.87013 3.40325 7.64189 3.52664 7.45473M26.8978 7.11308C26.9973 7.06326 27.1058 7.03342 27.2169 7.02526C27.328 7.0171 27.4397 7.03079 27.5455 7.06553C27.6514 7.10028 27.7493 7.15541 27.8337 7.22777C27.918 7.30013 27.9873 7.38831 28.0374 7.48728C28.0875 7.58624 28.1175 7.69404 28.1257 7.80454C28.1339 7.91503 28.1202 8.02605 28.0852 8.13126C28.0503 8.23647 27.9948 8.3338 27.922 8.4177C27.8492 8.5016 27.7605 8.57043 27.661 8.62025C27.46 8.72087 27.227 8.73798 27.0132 8.6678C26.7995 8.59763 26.6226 8.44592 26.5214 8.24606C26.4202 8.04619 26.403 7.81455 26.4736 7.60207C26.5442 7.3896 26.6967 7.2137 26.8978 7.11308ZM14.5425 6.15736C14.561 5.83816 14.7062 5.53931 14.9462 5.32655C15.1863 5.1138 15.5015 5.00456 15.8226 5.02288C16.1437 5.0412 16.4443 5.18557 16.6583 5.42423C16.8723 5.66289 16.9821 5.97629 16.9637 6.29549C16.9453 6.61469 16.8001 6.91354 16.56 7.1263C16.32 7.33905 16.0047 7.44829 15.6837 7.42997C15.3626 7.41165 15.062 7.26728 14.848 7.02862C14.634 6.78996 14.5241 6.47656 14.5425 6.15736ZM9.88503 4.29815C10.006 4.23629 10.138 4.19886 10.2736 4.18801C10.4092 4.17716 10.5456 4.1931 10.6749 4.23493C10.8042 4.27675 10.924 4.34363 11.0272 4.43169C11.1304 4.51976 11.215 4.62727 11.2762 4.74803C11.3374 4.86879 11.374 5.0004 11.3837 5.13526C11.3935 5.27013 11.3763 5.40559 11.3331 5.53381C11.29 5.66204 11.2217 5.7805 11.1322 5.88236C11.0428 5.98422 10.9339 6.06745 10.812 6.12727C10.5683 6.24676 10.287 6.2657 10.0294 6.17998C9.77172 6.09426 9.55857 5.91082 9.43633 5.6696C9.31409 5.42837 9.29265 5.1489 9.37669 4.89204C9.46073 4.63518 9.64343 4.42172 9.88503 4.29815ZM20.2901 4.62694C20.3636 4.51295 20.4591 4.41455 20.571 4.33743C20.6829 4.26032 20.8091 4.20601 20.9423 4.17765C21.0755 4.14928 21.213 4.14742 21.3469 4.17217C21.4807 4.19692 21.6084 4.24779 21.7224 4.32185C21.8364 4.39591 21.9345 4.49169 22.0111 4.60365C22.0877 4.71561 22.1412 4.84155 22.1685 4.97418C22.1959 5.10682 22.1965 5.24353 22.1705 5.37642C22.1444 5.5093 22.0921 5.63574 22.0166 5.74843C21.8659 5.97342 21.6318 6.13011 21.3655 6.18441C21.0991 6.2387 20.8219 6.1862 20.5943 6.03834C20.3667 5.89047 20.207 5.65921 20.15 5.39488C20.0931 5.13055 20.1434 4.85454 20.2901 4.62694ZM8.11481 1.31719C8.19322 1.27605 8.27909 1.25087 8.36741 1.2431C8.45573 1.23534 8.54471 1.24515 8.62917 1.27197C8.71363 1.29879 8.79187 1.34207 8.85931 1.39929C8.92675 1.45651 8.98204 1.52652 9.02195 1.60523C9.06186 1.68394 9.0856 1.76977 9.09177 1.8577C9.09793 1.94563 9.08641 2.0339 9.05787 2.11735C9.02934 2.20081 8.98435 2.27777 8.92556 2.34374C8.86676 2.40971 8.79532 2.46338 8.71543 2.50159C8.5579 2.57693 8.37692 2.5878 8.21142 2.53186C8.04591 2.47592 7.9091 2.35764 7.83041 2.20246C7.75171 2.04727 7.73742 1.86758 7.7906 1.70203C7.84379 1.53648 7.9602 1.39829 8.11481 1.31719ZM22.5118 1.51249C22.5589 1.43777 22.6205 1.37314 22.6931 1.32237C22.7656 1.2716 22.8475 1.23572 22.9342 1.21681C23.0208 1.19791 23.1104 1.19637 23.1976 1.21228C23.2848 1.22819 23.368 1.26123 23.4422 1.30947C23.5165 1.35772 23.5803 1.42019 23.63 1.49324C23.6796 1.56629 23.7142 1.64846 23.7315 1.73493C23.7489 1.8214 23.7487 1.91045 23.731 1.99686C23.7134 2.08326 23.6786 2.1653 23.6286 2.23818C23.5314 2.38456 23.3799 2.48673 23.2071 2.52232C23.0344 2.55791 22.8545 2.52402 22.7068 2.42807C22.5591 2.33213 22.4556 2.18193 22.4191 2.01035C22.3825 1.83876 22.4157 1.65976 22.5116 1.51249M15.4629 0.482093C15.6753 0.408241 15.9086 0.42132 16.1113 0.518452C16.3141 0.615583 16.4697 0.788811 16.544 1.00003C16.6183 1.21124 16.6051 1.44315 16.5074 1.64472C16.4097 1.84629 16.2355 2.00102 16.023 2.07488C15.8106 2.14873 15.5773 2.13565 15.3746 2.03852C15.1718 1.94139 15.0162 1.76816 14.9419 1.55694C14.8676 1.34572 14.8808 1.11382 14.9785 0.912249C15.0762 0.710676 15.2504 0.555944 15.4629 0.482093ZM134.416 7.51654C138.71 7.51654 141.327 9.77976 141.327 14.5649C141.327 19.3504 138.714 21.6136 134.416 21.6136C130.118 21.6136 127.526 19.3504 127.526 14.5649C127.526 9.77948 130.122 7.51654 134.416 7.51654ZM43.4505 7.51217C46.8314 7.51217 49.4485 9.19002 49.5007 12.6718L49.5013 12.778H46.8856C46.8856 10.7524 45.4871 9.66104 43.4904 9.66104C40.7611 9.66104 39.4624 11.2172 39.4349 14.2704L39.4343 14.3634V14.76C39.4343 17.9362 40.7146 19.4656 43.4912 19.4656C45.5856 19.4656 46.9571 18.395 46.9843 16.4471L46.9849 16.388H49.5013C49.5013 19.9429 46.9059 21.6101 43.4508 21.6101C39.2561 21.6101 36.8197 19.4656 36.8197 14.5617C36.8197 9.77648 39.2561 7.51217 43.4505 7.51217ZM59.634 7.75424L64.97 21.3762H62.2139L61.087 18.4171H54.8199L53.7221 21.3759H51.085L56.4179 7.75397L59.634 7.75424ZM74.7566 7.75424C77.7723 7.75424 79.2308 9.36317 79.2308 11.884C79.2308 13.7118 78.4288 15.0527 76.8454 15.6963L76.7942 15.7168L79.7244 21.3762H76.9282L74.3364 16.1101H70.0828V21.3759H67.5257V7.75397L74.7566 7.75424ZM88.1991 7.75424C92.3328 7.75424 94.8459 9.89874 94.8459 14.5652C94.8459 19.1849 92.3807 21.3327 88.3205 21.3754L88.1967 21.3759H82.7242V7.75397L88.1991 7.75424ZM104.758 7.75424L110.09 21.3762H107.334L106.216 18.4171H99.9444L98.8455 21.3759H96.2097L101.545 7.75397L104.758 7.75424ZM115.091 7.75424L121.042 15.876L121.063 15.9069L121.108 15.9753L121.156 16.05L121.206 16.1301L121.311 16.3002L121.642 16.8484L121.69 16.9242L121.704 16.9458L121.718 16.9671L121.817 16.928L121.816 16.8659L121.808 16.6761L121.79 16.2718L121.782 16.0546L121.779 15.9597L121.778 15.879V15.8557H121.776V7.75424H124.231V21.3762H121.836L115.844 13.1757C115.801 13.1138 115.759 13.0513 115.718 12.988L115.678 12.924L115.637 12.8603L115.579 12.7646L115.504 12.6401L115.468 12.5796L115.385 12.4363L115.221 12.1491L115.189 12.0958L115.177 12.0766L115.167 12.0629L115.067 12.1226L115.069 12.1786L115.094 12.7211L115.101 12.895L115.105 13.0427L115.107 13.133L115.107 13.1754V21.3759H112.651V7.75397L115.091 7.75424ZM134.416 9.66104C131.688 9.66104 130.173 11.2172 130.143 14.2736L130.143 14.3666V14.7835C130.143 17.9004 131.64 19.4691 134.416 19.4691C137.184 19.4691 138.68 17.9319 138.709 14.8765L138.71 14.7835V14.3666C138.71 11.2486 137.193 9.66104 134.416 9.66104M88.1986 9.91871H85.2833V19.2115H88.1989C90.7695 19.2115 92.1845 17.7718 92.2324 14.8522L92.2335 14.7633V14.3666C92.2335 11.4185 90.8195 9.94825 88.2762 9.91899L88.1986 9.91871ZM57.995 9.9343H57.896L57.8649 10.024L57.4673 11.2344L57.3498 11.587L57.2447 11.8969L57.2034 12.0159L57.1245 12.241L57.0871 12.3458L57.051 12.444L55.6184 16.2691L60.2715 16.268L58.8741 12.5348L58.8581 12.4935L58.8245 12.4051L58.7896 12.3105L58.7346 12.1573L58.6768 11.9937L58.6179 11.822L58.5574 11.6442L58.4564 11.3411L58.0393 10.0642L57.9991 9.94607L57.995 9.9343ZM103.122 9.9343H103.02L102.99 10.024L102.592 11.2344L102.475 11.587L102.369 11.8969L102.328 12.0159L102.25 12.241L102.212 12.3458L102.176 12.444L100.745 16.2691L105.399 16.268L104.001 12.5348L103.969 12.45L103.934 12.3586L103.88 12.2098L103.823 12.0495L103.745 11.822L103.664 11.584L103.583 11.3411L103.455 10.9505L103.153 10.0243L103.122 9.9343ZM74.5557 9.91871H70.0828V13.9692H74.5557C75.8744 13.9692 76.6531 13.1759 76.6531 11.8843C76.6531 10.6676 75.9501 9.9354 74.6014 9.91926L74.5557 9.91871Z" fill="white"/>
</svg>
