<svg width="106" height="106" viewBox="0 0 106 106" fill="none" xmlns="http://www.w3.org/2000/svg">
<path d="M50.5705 55.9852C49.7894 56.7662 48.5231 56.7662 47.742 55.9852L40.777 49.0202C39.996 48.2391 38.7296 48.2391 37.9486 49.0202L35.4455 51.5233C34.6644 52.3044 34.6644 53.5707 35.4455 54.3517L47.742 66.6483C48.5231 67.4294 49.7894 67.4294 50.5705 66.6483L74.2108 43.008C74.9918 42.2269 74.9918 40.9606 74.2108 40.1796L71.7077 37.6764C70.9266 36.8954 69.6603 36.8954 68.8792 37.6764L50.5705 55.9852Z" fill="url(#paint0_linear_8603_3516)"/>
<path d="M105.875 51.1562C105.875 50.0517 104.98 49.1562 103.875 49.1562H99.9607C98.9218 49.1562 98.0606 48.3599 97.9309 47.3291C96.6737 37.3405 92.1287 28.0328 84.9854 20.8896C77.8422 13.7463 68.5345 9.20134 58.5459 7.9441C57.5151 7.81436 56.7188 6.95323 56.7188 5.9143V2C56.7188 0.895432 55.8233 0 54.7188 0H51.1562C50.0517 0 49.1562 0.895431 49.1562 2V5.9143C49.1562 6.95323 48.3599 7.81436 47.3291 7.9441C37.3405 9.20134 28.0328 13.7463 20.8896 20.8896C13.7463 28.0328 9.20134 37.3405 7.9441 47.3291C7.81436 48.3599 6.95323 49.1562 5.9143 49.1562H2C0.895432 49.1562 0 50.0517 0 51.1562V54.7188C0 55.8233 0.895431 56.7188 2 56.7188H5.9143C6.95323 56.7188 7.81436 57.5151 7.9441 58.5459C9.20134 68.5345 13.7463 77.8422 20.8896 84.9854C28.0328 92.1287 37.3405 96.6737 47.3291 97.9309C48.3599 98.0606 49.1562 98.9218 49.1562 99.9607V103.875C49.1562 104.98 50.0517 105.875 51.1562 105.875H54.7188C55.8233 105.875 56.7188 104.98 56.7188 103.875V99.9607C56.7188 98.9218 57.5151 98.0606 58.5459 97.9309C68.5345 96.6737 77.8422 92.1287 84.9854 84.9854C92.1287 77.8422 96.6737 68.5345 97.9309 58.5459C98.0606 57.5151 98.9218 56.7188 99.9607 56.7188H103.875C104.98 56.7188 105.875 55.8233 105.875 54.7188V51.1562ZM58.9145 90.2714C57.7447 90.4606 56.7188 89.531 56.7188 88.346V81.4062C56.7188 80.3017 55.8233 79.4062 54.7188 79.4062H51.1562C50.0517 79.4062 49.1562 80.3017 49.1562 81.4062V88.3463C49.1562 89.5312 48.1304 90.4607 46.9607 90.2717C39.1211 89.0047 31.8568 85.3016 26.2151 79.6599C20.5734 74.0182 16.8703 66.7539 15.6033 58.9143C15.4143 57.7446 16.3438 56.7188 17.5287 56.7188H24.4688C25.5733 56.7188 26.4688 55.8233 26.4688 54.7188V51.1562C26.4688 50.0517 25.5733 49.1562 24.4688 49.1562H17.5287C16.3438 49.1562 15.4143 48.1304 15.6033 46.9607C16.8703 39.1211 20.5734 31.8568 26.2151 26.2151C31.8568 20.5734 39.1211 16.8703 46.9607 15.6033C48.1304 15.4143 49.1562 16.3438 49.1562 17.5287V24.4688C49.1562 25.5733 50.0517 26.4688 51.1562 26.4688H54.7188C55.8233 26.4688 56.7188 25.5733 56.7188 24.4688V17.5287C56.7188 16.3438 57.7446 15.4143 58.9143 15.6033C66.7539 16.8703 74.0182 20.5734 79.6599 26.2151C85.3016 31.8568 89.0047 39.1211 90.2717 46.9607C90.4607 48.1304 89.5312 49.1562 88.3463 49.1562H81.4062C80.3017 49.1562 79.4062 50.0517 79.4062 51.1562V54.7188C79.4062 55.8233 80.3017 56.7188 81.4062 56.7188H88.3425C89.5274 56.7188 90.4569 57.7445 90.2679 58.9143C89.0011 66.7533 85.2985 74.0172 79.6575 79.6588C74.0166 85.3003 66.7533 89.0037 58.9145 90.2714Z" fill="url(#paint1_linear_8603_3516)"/>
<defs>
<linearGradient id="paint0_linear_8603_3516" x1="78.6205" y1="66.7485" x2="49.8221" y2="28.1394" gradientUnits="userSpaceOnUse">
<stop stop-color="#FF7D43"/>
<stop offset="1" stop-color="#A25DF9"/>
</linearGradient>
<linearGradient id="paint1_linear_8603_3516" x1="113.5" y1="101.5" x2="13.5" y2="-0.999998" gradientUnits="userSpaceOnUse">
<stop stop-color="#FF7D43"/>
<stop offset="1" stop-color="#A25DF9"/>
</linearGradient>
</defs>
</svg>
