<svg width="109" height="101" viewBox="0 0 109 101" fill="none" xmlns="http://www.w3.org/2000/svg">
<path d="M16.7692 5.0013e-05C12.8243 5.0013e-05 8.74515 1.49401 5.50031 4.33884C2.26385 7.18367 0 11.5561 0 16.8334C0 21.3068 1.86558 25.1196 4.19231 28.1454C6.51904 31.167 9.33627 33.5531 11.9229 35.9013C17.0962 40.602 20.9615 44.4653 20.9615 50.5C20.9615 51.1397 20.3411 52.6884 19.5194 53.9214C18.6977 55.1544 17.9473 55.8909 17.9473 55.8909L23.9758 61.812C23.9758 61.812 25.3173 60.4654 26.596 58.5211C27.6902 56.863 28.8892 54.7252 29.2162 51.9477C29.6899 53.3112 30.1469 54.7084 30.6583 56.0214C33.5385 63.4869 36.863 70.1782 40.6109 75.224C41.9734 77.0672 43.3778 78.6916 44.9373 80.0888C36.2718 80.7158 29.3462 87.9458 29.3462 96.7917V101H79.6538V96.7917C79.6538 87.849 72.594 80.5812 63.8027 80.0888C65.4421 78.6176 66.9334 76.9882 68.255 75.224C72.0239 70.195 75.298 63.4827 78.2117 56.0214C78.7567 54.6242 79.2765 53.1302 79.7838 51.6868C80.0647 54.5779 81.2763 56.8125 82.404 58.5211C83.6827 60.4612 85.0242 61.812 85.0242 61.812L91.0527 55.8909C91.0527 55.8909 90.2981 55.1502 89.4806 53.9214C88.6589 52.6884 88.0385 51.1397 88.0385 50.5C88.0385 44.4653 91.9038 40.602 97.0771 35.9013C99.6637 33.5531 102.485 31.167 104.808 28.1412C107.134 25.1196 109 21.3068 109 16.8334C109 11.5561 106.736 7.18367 103.496 4.33884C100.382 1.5803 96.3832 0.0399859 92.2308 5.0013e-05C88.1706 -0.00998064 84.2504 1.48913 81.226 4.20838H27.774C24.7496 1.48913 20.8294 -0.00998064 16.7692 5.0013e-05ZM16.7692 8.41671C18.7522 8.41671 20.0267 9.03955 20.9615 9.59925C21.0747 18.1843 22.5504 27.9139 24.8939 37.4795C22.6636 34.4537 19.8799 31.9413 17.4232 29.7193C14.7695 27.3205 12.3505 25.1027 10.7449 23.0154C9.13923 20.9281 8.38462 19.1185 8.38462 16.8334C8.38462 13.8875 9.52912 12.0653 11.1348 10.6513C12.7446 9.23734 14.9498 8.41671 16.7692 8.41671ZM92.2308 8.41671C94.0502 8.41671 96.2554 9.23734 97.8652 10.6513C99.4709 12.0653 100.615 13.8918 100.615 16.8334C100.615 19.1185 99.8608 20.9281 98.2551 23.0154C96.6495 25.1027 94.2305 27.3205 91.5768 29.7235C89.0698 31.9918 86.2358 34.6052 83.9761 37.7446C86.3825 28.1075 87.9253 18.2979 88.0385 9.59925C89.2938 8.80908 90.7492 8.39854 92.2308 8.41671ZM29.8702 12.625H79.1298C78.4926 25.1364 75.2645 40.3916 70.3511 52.9998C67.6345 59.9688 64.4903 66.0161 61.4425 70.094C58.3989 74.1719 55.6152 75.75 54.37 75.75C53.1417 75.75 50.4544 74.1719 47.4276 70.094C44.3965 66.0204 41.2188 59.9856 38.5147 52.9998C33.6349 40.3748 30.5074 25.0691 29.8702 12.625ZM50.3077 25.25V46.2917H58.6923V25.25H50.3077ZM46.1154 88.375H62.8846C65.8989 88.375 67.9573 90.2309 69.4372 92.5833H39.567C41.0385 90.2309 43.1011 88.375 46.1154 88.375Z" fill="url(#paint0_linear_8708_447)"/>
<defs>
<linearGradient id="paint0_linear_8708_447" x1="-8.65888" y1="-17.8535" x2="109.201" y2="119.701" gradientUnits="userSpaceOnUse">
<stop stop-color="#A25DF9"/>
<stop offset="1" stop-color="#FF7D43"/>
</linearGradient>
</defs>
</svg>
