<svg width="74" height="82" viewBox="0 0 74 82" fill="none" xmlns="http://www.w3.org/2000/svg">
<path d="M17.8335 64.0002V54.4168M17.8335 54.4168V48.6668C17.8335 46.8613 17.8335 45.9567 18.4238 45.3932C19.0142 44.8335 19.961 44.8335 21.8585 44.8335H24.5418C27.321 44.8335 29.575 46.9802 29.575 49.6252C29.575 52.2702 27.321 54.4168 24.5418 54.4168H17.8335ZM71.5002 44.8335H66.4708C63.3083 44.8335 61.7252 44.8335 60.7438 45.7688C59.7625 46.7042 59.7625 48.2107 59.7625 51.2237V54.4168M59.7625 54.4168V64.0002M59.7625 54.4168H68.146M51.3752 54.4168C51.3752 59.7068 46.871 64.0002 41.3127 64.0002C40.0592 64.0002 39.4343 64.0002 38.9628 63.7433C37.8473 63.13 37.9585 61.8842 37.9585 60.807V48.0267C37.9585 46.9495 37.8435 45.7037 38.9628 45.0903C39.4305 44.8335 40.0592 44.8335 41.3127 44.8335C46.871 44.8335 51.3752 49.1268 51.3752 54.4168Z" stroke="#F4622F" stroke-width="5" stroke-linecap="round" stroke-linejoin="round"/>
<path d="M48.5 79.3334H32.1202C19.6235 79.3334 13.3675 79.3334 9.02817 76.2744C7.79326 75.4084 6.68944 74.3691 5.75067 73.1886C2.5 69.1022 2.5 63.2219 2.5 51.4536V41.6978C2.5 30.3396 2.5 24.6586 4.29783 20.1237C7.18817 12.8289 13.2985 7.07891 21.0495 4.35725C25.8642 2.66675 31.894 2.66675 43.969 2.66675C50.8613 2.66675 54.3113 2.66675 57.0637 3.63275C61.4912 5.18908 64.9833 8.47425 66.6355 12.6411C67.6667 15.2324 67.6667 18.4792 67.6667 24.9691V33.3334" stroke="#F4622F" stroke-width="5" stroke-linecap="round" stroke-linejoin="round"/>
<path d="M2.5 41.0001C2.5 37.6115 3.84609 34.3618 6.24215 31.9657C8.63821 29.5697 11.888 28.2236 15.2765 28.2236C17.8295 28.2236 20.8387 28.6682 23.3188 28.0051C24.4026 27.7134 25.3906 27.142 26.1838 26.3481C26.977 25.5542 27.5476 24.5657 27.8383 23.4817C28.5015 21.0016 28.0568 17.9924 28.0568 15.4394C28.0579 12.0515 29.4044 8.80277 31.8003 6.40754C34.1963 4.01231 37.4455 2.66675 40.8333 2.66675" stroke="#F4622F" stroke-width="5" stroke-linecap="round" stroke-linejoin="round"/>
</svg>
