<svg width="35" height="35" viewBox="0 0 35 35" fill="none" xmlns="http://www.w3.org/2000/svg">
<path d="M15.344 34.888C14.8747 34.888 14.4907 34.7387 14.192 34.44C13.8933 34.1413 13.744 33.7573 13.744 33.288V21.192H1.904C1.43467 21.192 1.05067 21.0427 0.752 20.744C0.453333 20.4453 0.304 20.0827 0.304 19.656V15.624C0.304 15.1547 0.453333 14.7707 0.752 14.472C1.05067 14.1733 1.43467 14.024 1.904 14.024H13.744V2.312C13.744 1.84266 13.8933 1.45867 14.192 1.16C14.4907 0.861332 14.8747 0.711998 15.344 0.711998H19.76C20.2293 0.711998 20.6133 0.861332 20.912 1.16C21.2107 1.45867 21.36 1.84266 21.36 2.312V14.024H33.2C33.6267 14.024 33.9893 14.1733 34.288 14.472C34.5867 14.7707 34.736 15.1547 34.736 15.624V19.656C34.736 20.0827 34.5867 20.4453 34.288 20.744C33.9893 21.0427 33.6267 21.192 33.2 21.192H21.36V33.288C21.36 33.7573 21.2107 34.1413 20.912 34.44C20.6133 34.7387 20.2293 34.888 19.76 34.888H15.344Z" fill="#A25DF9"/>
</svg>
