<svg width="84" height="84" viewBox="0 0 84 84" fill="none" xmlns="http://www.w3.org/2000/svg">
<path d="M20.7812 33.1201C20.7812 34.3012 21.2504 35.4338 22.0855 36.269C22.9207 37.1041 24.0533 37.5732 25.2344 37.5732C26.4154 37.5732 27.5481 37.1041 28.3832 36.269C29.2183 35.4338 29.6875 34.3012 29.6875 33.1201C29.6875 31.9391 29.2183 30.8064 28.3832 29.9713C27.5481 29.1362 26.4154 28.667 25.2344 28.667C24.0533 28.667 22.9207 29.1362 22.0855 29.9713C21.2504 30.8064 20.7812 31.9391 20.7812 33.1201ZM53.4375 33.1201C53.4375 34.3012 53.9067 35.4338 54.7418 36.269C55.5769 37.1041 56.7096 37.5732 57.8906 37.5732C59.0717 37.5732 60.2043 37.1041 61.0395 36.269C61.8746 35.4338 62.3438 34.3012 62.3438 33.1201C62.3438 31.9391 61.8746 30.8064 61.0395 29.9713C60.2043 29.1362 59.0717 28.667 57.8906 28.667C56.7096 28.667 55.5769 29.1362 54.7418 29.9713C53.9067 30.8064 53.4375 31.9391 53.4375 33.1201ZM41.5625 0C18.6104 0 0 18.6104 0 41.5625C0 64.5146 18.6104 83.125 41.5625 83.125C64.5146 83.125 83.125 64.5146 83.125 41.5625C83.125 18.6104 64.5146 0 41.5625 0ZM65.9619 65.9619C62.7891 69.1348 59.0967 71.6211 54.9868 73.3652C50.7471 75.165 46.229 76.0742 41.5625 76.0742C36.896 76.0742 32.3779 75.165 28.1289 73.3652C24.0253 71.6321 20.2977 69.1177 17.1538 65.9619C13.981 62.7891 11.4946 59.0967 9.75049 54.9868C7.95996 50.7471 7.05078 46.229 7.05078 41.5625C7.05078 36.896 7.95996 32.3779 9.75977 28.1289C11.4928 24.0253 14.0073 20.2977 17.1631 17.1538C20.3359 13.981 24.0283 11.4946 28.1382 9.75049C32.3779 7.95996 36.896 7.05078 41.5625 7.05078C46.229 7.05078 50.7471 7.95996 54.9961 9.75977C59.0997 11.4928 62.8273 14.0073 65.9712 17.1631C69.144 20.3359 71.6304 24.0283 73.3745 28.1382C75.165 32.3779 76.0742 36.896 76.0742 41.5625C76.0742 46.229 75.165 50.7471 73.3652 54.9961C71.6342 59.0981 69.1195 62.823 65.9619 65.9619ZM55.6641 43.5107H51.2017C50.812 43.5107 50.478 43.8076 50.4502 44.1973C50.0977 48.7896 46.2476 52.417 41.5625 52.417C36.8774 52.417 33.0181 48.7896 32.6748 44.1973C32.647 43.8076 32.313 43.5107 31.9233 43.5107H27.4609C27.3603 43.5106 27.2606 43.531 27.1681 43.5706C27.0755 43.6102 26.992 43.6682 26.9226 43.7411C26.8531 43.814 26.7993 43.9002 26.7642 43.9946C26.7292 44.089 26.7137 44.1895 26.7188 44.29C27.127 52.1108 33.6304 58.3545 41.5625 58.3545C49.4946 58.3545 55.998 52.1108 56.4062 44.29C56.4113 44.1895 56.3958 44.089 56.3608 43.9946C56.3257 43.9002 56.2719 43.814 56.2024 43.7411C56.133 43.6682 56.0495 43.6102 55.9569 43.5706C55.8644 43.531 55.7647 43.5106 55.6641 43.5107Z" fill="url(#paint0_linear_8603_3520)"/>
<defs>
<linearGradient id="paint0_linear_8603_3520" x1="97" y1="83" x2="0" y2="0" gradientUnits="userSpaceOnUse">
<stop stop-color="#FF7D43"/>
<stop offset="1" stop-color="#A25DF9"/>
</linearGradient>
</defs>
</svg>
