<svg width="169" height="163" viewBox="0 0 169 163" fill="none" xmlns="http://www.w3.org/2000/svg">
<path id="Vector" d="M75.0672 94.4015L58.9326 78.2475C58.0941 77.4052 57.073 76.954 55.8692 76.8938C54.6594 76.8337 53.5604 77.303 52.5722 78.3017C51.6139 79.2643 51.1348 80.3292 51.1348 81.4964C51.1348 82.6635 51.6139 83.7284 52.5722 84.691L69.9825 102.181C71.4378 103.637 73.1327 104.365 75.0672 104.365C77.0017 104.365 78.6966 103.637 80.1519 102.181L116.428 65.7395C117.302 64.8611 117.76 63.8263 117.802 62.6351C117.844 61.4378 117.386 60.3428 116.428 59.3501C115.44 58.3574 114.371 57.8521 113.221 57.834C112.071 57.816 111.005 58.3033 110.022 59.296L75.0672 94.4015ZM54.5845 159.252L42.7621 139.398L20.4737 134.669C18.6889 134.338 17.2665 133.375 16.2065 131.781C15.1464 130.193 14.7092 128.502 14.8949 126.709L17.024 103.643L1.90453 86.3155C0.634842 85.0099 0 83.4035 0 81.4964C0 79.5892 0.634842 77.9828 1.90453 76.6773L17.024 59.3501L14.8949 36.2925C14.7152 34.4936 15.1524 32.8 16.2065 31.2116C17.2665 29.6233 18.6889 28.6607 20.4737 28.3238L42.7531 23.604L54.5755 3.74998C55.5458 2.1376 56.8484 1.02458 58.4834 0.410907C60.1184 -0.208778 61.8103 -0.127557 63.5592 0.654569L84.5 9.54374L105.432 0.654569C107.187 -0.127557 108.882 -0.208778 110.517 0.410907C112.152 1.02458 113.454 2.1376 114.424 3.74998L126.238 23.604L148.526 28.3238C150.311 28.6607 151.733 29.6233 152.794 31.2116C153.854 32.8 154.291 34.4936 154.105 36.2925L151.985 59.3501L167.095 76.6773C168.365 77.9828 169 79.5892 169 81.4964C169 83.4035 168.365 85.0129 167.095 86.3245L151.985 103.643L154.105 126.7C154.285 128.499 153.848 130.193 152.794 131.781C151.733 133.375 150.311 134.338 148.526 134.669L126.247 139.398L114.424 159.252C113.454 160.858 112.152 161.971 110.517 162.591C108.882 163.211 107.19 163.126 105.441 162.338L84.5 153.449L63.5681 162.338C61.8133 163.12 60.1184 163.202 58.4834 162.582C56.8484 161.968 55.5458 160.855 54.5755 159.243M61.5917 153.241L84.5 143.666L107.516 153.241L120.435 131.583L145.139 126.069L142.894 100.448L159.513 81.4964L142.894 62.4456L145.139 36.8249L120.435 31.4102L107.408 9.7513L84.5 19.3354L61.4929 9.7513L48.5655 31.4102L23.8605 36.8249L26.1064 62.4456L9.48671 81.4964L26.1064 100.448L23.8605 126.168L48.5655 131.583L61.5917 153.241Z" fill="#E24717"/>
</svg>
