<svg width="145" height="145" viewBox="0 0 145 145" fill="none" xmlns="http://www.w3.org/2000/svg">
<path d="M32.625 14.5C29.7408 14.5 26.9747 15.6458 24.9352 17.6852C22.8958 19.7247 21.75 22.4908 21.75 25.375V119.625C21.75 122.509 22.8958 125.275 24.9352 127.315C26.9747 129.354 29.7408 130.5 32.625 130.5H83.375C86.2592 130.5 89.0253 129.354 91.0648 127.315C93.1042 125.275 94.25 122.509 94.25 119.625V108.75C94.25 107.789 93.8681 106.867 93.1883 106.187C92.5084 105.507 91.5864 105.125 90.625 105.125C87.6308 105.125 85.7168 104.385 84.419 103.414C83.0995 102.428 82.0748 100.922 81.345 98.8972C79.7935 94.6342 79.75 88.9865 79.75 83.375C79.7499 82.8981 79.6557 82.426 79.4728 81.9856C79.29 81.5452 79.022 81.1452 78.6842 80.8085L76.6108 78.7278L67.8165 69.9335C64.4308 66.5477 63.4375 64.2785 63.249 63.0098C63.104 61.9948 63.4085 61.3133 64.1335 60.6172C65.685 59.131 66.7942 58.1232 68.0485 57.8187C68.7952 57.6302 70.499 57.4997 73.5585 60.5592L95.3085 82.3092C95.9882 82.9899 96.9105 83.3727 97.8724 83.3734C98.3487 83.3737 98.8204 83.2802 99.2606 83.0983C99.7008 82.9163 100.101 82.6494 100.438 82.3129C100.775 81.9763 101.042 81.5767 101.225 81.1367C101.408 80.6968 101.502 80.2252 101.502 79.7489C101.502 79.2726 101.409 78.8009 101.227 78.3607C101.045 77.9206 100.778 77.5205 100.441 77.1835L94.25 70.9993V48.6257L112.81 67.1858C113.821 68.1955 114.623 69.3946 115.17 70.7144C115.718 72.0343 116 73.4491 116 74.878V126.875C116 127.836 116.382 128.758 117.062 129.438C117.742 130.118 118.664 130.5 119.625 130.5C120.586 130.5 121.508 130.118 122.188 129.438C122.868 128.758 123.25 127.836 123.25 126.875V74.878C123.249 70.0731 121.34 65.4653 117.943 62.0672L94.25 38.3743V25.375C94.25 22.4908 93.1042 19.7247 91.0648 17.6852C89.0253 15.6458 86.2592 14.5 83.375 14.5H32.625ZM87 39.875V63.7493L78.6915 55.4335C74.501 51.243 70.325 49.8002 66.3302 50.7717C65.5452 50.9645 64.7841 51.2441 64.061 51.6055C60.8201 50.6651 57.4049 50.4918 54.0855 51.0991C50.766 51.7064 47.6334 53.0778 44.9355 55.1048C42.2376 57.1318 40.0483 59.7587 38.5408 62.7779C37.0333 65.797 36.2491 69.1255 36.25 72.5C36.2497 76.7046 37.4681 80.8192 39.7578 84.3457C42.0474 87.8722 45.3101 90.6594 49.151 92.3701C52.9919 94.0807 57.2463 94.6414 61.3992 93.9843C65.5522 93.3271 69.4256 91.4804 72.5508 88.6675C72.674 92.858 73.0945 97.44 74.53 101.377C75.603 104.327 77.314 107.148 80.069 109.207L80.1125 109.25C77.9048 109.945 75.9762 111.325 74.6071 113.191C73.238 115.057 72.4999 117.311 72.5 119.625V123.25H43.5V119.625C43.5 116.741 42.3542 113.975 40.3148 111.935C38.2753 109.896 35.5092 108.75 32.625 108.75H29V36.25H32.625C35.5092 36.25 38.2753 35.1042 40.3148 33.0648C42.3542 31.0253 43.5 28.2592 43.5 25.375V21.75H72.5V25.375C72.5 28.2592 73.6458 31.0253 75.6852 33.0648C77.7247 35.1042 80.4908 36.25 83.375 36.25H87V39.875ZM87 119.625V119.69C86.9829 120.64 86.5934 121.546 85.9155 122.211C85.2375 122.877 84.3252 123.25 83.375 123.25H79.75V119.625C79.75 118.664 80.1319 117.742 80.8117 117.062C81.4916 116.382 82.4136 116 83.375 116H87V119.625ZM43.5 72.5C43.5 68.8125 44.905 65.2636 47.429 62.5753C49.953 59.887 53.4064 58.2613 57.0865 58.029C56.1875 59.6965 55.7308 61.7265 56.0788 64.0682C56.5935 67.5627 58.8192 71.195 62.6835 75.0592L69.2593 81.635C67.3715 83.9613 64.8095 85.6457 61.9256 86.4568C59.0416 87.2679 55.9772 87.1657 53.1536 86.1644C50.33 85.1631 47.8859 83.3118 46.1573 80.8649C44.4287 78.4181 43.5004 75.4959 43.5 72.5ZM36.25 21.75V25.375C36.25 26.3364 35.8681 27.2584 35.1883 27.9383C34.5084 28.6181 33.5864 29 32.625 29H29V25.375C29 24.4136 29.3819 23.4916 30.0617 22.8117C30.7416 22.1319 31.6636 21.75 32.625 21.75H36.25ZM29 116H32.625C33.5864 116 34.5084 116.382 35.1883 117.062C35.8681 117.742 36.25 118.664 36.25 119.625V123.25H32.625C31.6636 123.25 30.7416 122.868 30.0617 122.188C29.3819 121.508 29 120.586 29 119.625V116ZM87 29H83.375C82.4136 29 81.4916 28.6181 80.8117 27.9383C80.1319 27.2584 79.75 26.3364 79.75 25.375V21.75H83.375C84.3364 21.75 85.2584 22.1319 85.9383 22.8117C86.6181 23.4916 87 24.4136 87 25.375V29Z" fill="#E24717"/>
</svg>
