<svg width="159" height="159" viewBox="0 0 159 159" fill="none" xmlns="http://www.w3.org/2000/svg">
<path d="M79.4866 13.25C59.5586 13.25 46.6398 26.6259 31.3626 31.5019C25.1483 33.4894 22.0412 34.4765 20.7824 35.8744C19.5237 37.2656 19.1593 39.3128 18.4239 43.3938C10.5402 87.0923 27.7652 127.491 68.8402 143.219C73.2458 144.909 75.4519 145.75 79.5064 145.75C83.5609 145.75 85.7737 144.902 90.1859 143.213C131.254 127.492 148.459 87.0923 140.576 43.3938C139.84 39.3128 139.469 37.2656 138.211 35.8678C136.952 34.4699 133.851 33.4828 127.637 31.5019C112.353 26.6259 99.4146 13.25 79.4866 13.25Z" stroke="#E24717" stroke-width="7" stroke-linecap="round" stroke-linejoin="round"/>
<path d="M67.9062 65.9784C67.9062 65.5809 67.9592 63.2886 67.9724 60.4134C67.9724 57.7766 67.7472 55.2459 69.0059 52.9271C73.7097 43.5594 87.2247 44.5134 90.5637 54.0534C91.1401 55.6235 91.1798 58.1079 91.1599 60.4134C91.1401 63.3482 91.1997 65.9784 91.1997 65.9784M68.4826 68.7675C61.3276 68.7675 57.7501 73.935 56.9551 77.115C56.1601 80.295 56.1601 91.8225 56.6371 96.5925C58.2271 102.555 62.2021 105.019 66.0976 105.814C69.6751 106.132 84.7801 106.013 89.1526 106.013C95.5126 106.132 100.283 103.747 102.27 96.5925C102.668 94.2075 103.065 81.09 102.071 77.115C99.9646 70.755 94.7176 68.7675 90.7426 68.7675H68.4826Z" stroke="#E24717" stroke-width="7" stroke-linecap="round" stroke-linejoin="round"/>
</svg>
