<svg width="346" height="56" viewBox="0 0 346 56" fill="none" xmlns="http://www.w3.org/2000/svg">
<g clip-path="url(#clip0_76_203)">
<g filter="url(#filter0_dd_76_203)">
<path d="M334 0H12C5.37258 0 0 5.37258 0 12V44C0 50.6274 5.37258 56 12 56H334C340.627 56 346 50.6274 346 44V12C346 5.37258 340.627 0 334 0Z" fill="white"/>
<path d="M334 1H12C5.92487 1 1 5.92487 1 12V44C1 50.0751 5.92487 55 12 55H334C340.075 55 345 50.0751 345 44V12C345 5.92487 340.075 1 334 1Z" stroke="#FF7D43" stroke-width="2"/>
<path d="M40.9752 37.0448L35.8297 31.8992C37.0685 30.25 37.7373 28.2426 37.735 26.18C37.735 20.9114 33.4486 16.625 28.18 16.625C22.9114 16.625 18.625 20.9114 18.625 26.18C18.625 31.4486 22.9114 35.735 28.18 35.735C30.2426 35.7373 32.25 35.0685 33.8992 33.8297L39.0448 38.9752C39.3052 39.2081 39.645 39.3324 39.9942 39.3226C40.3434 39.3128 40.6756 39.1697 40.9227 38.9227C41.1697 38.6756 41.3128 38.3434 41.3226 37.9942C41.3324 37.645 41.2081 37.3052 40.9752 37.0448ZM21.355 26.18C21.355 24.8301 21.7553 23.5106 22.5052 22.3882C23.2552 21.2659 24.3211 20.3911 25.5682 19.8745C26.8153 19.358 28.1876 19.2228 29.5115 19.4861C30.8354 19.7495 32.0515 20.3995 33.006 21.354C33.9605 22.3085 34.6105 23.5246 34.8739 24.8485C35.1372 26.1724 35.002 27.5447 34.4855 28.7918C33.9689 30.0389 33.0941 31.1048 31.9718 31.8548C30.8494 32.6047 29.5299 33.005 28.18 33.005C26.3706 33.0028 24.6359 32.2831 23.3564 31.0036C22.0769 29.7241 21.3572 27.9894 21.355 26.18Z" fill="#F4622F"/>
<path d="M54.56 32.9999C54.4747 32.9999 54.3947 32.9679 54.32 32.9039C54.256 32.8399 54.224 32.7599 54.224 32.6639C54.224 32.6212 54.2347 32.5732 54.256 32.5199L58.112 22.1999C58.144 22.0932 58.2027 22.0026 58.288 21.9279C58.384 21.8426 58.512 21.7999 58.672 21.7999H60.416C60.576 21.7999 60.6987 21.8426 60.784 21.9279C60.8693 22.0026 60.9333 22.0932 60.976 22.1999L64.832 32.5199C64.843 32.5732 64.848 32.6212 64.848 32.6639C64.848 32.7599 64.816 32.8399 64.752 32.9039C64.688 32.9679 64.613 32.9999 64.528 32.9999H63.136C62.987 32.9999 62.875 32.9679 62.8 32.9039C62.736 32.8292 62.693 32.7599 62.672 32.6959L61.92 30.7439H57.168L56.416 32.6959C56.3947 32.7599 56.3467 32.8292 56.272 32.9039C56.208 32.9679 56.1013 32.9999 55.952 32.9999H54.56ZM57.728 28.9039H61.36L59.536 23.9599L57.728 28.9039ZM66.726 32.9999C66.619 32.9999 66.528 32.9626 66.454 32.8879C66.379 32.8132 66.342 32.7226 66.342 32.6159V22.1999C66.342 22.0826 66.379 21.9866 66.454 21.9119C66.528 21.8372 66.619 21.7999 66.726 21.7999H71.366C72.23 21.7999 72.934 21.9332 73.478 22.1999C74.022 22.4559 74.422 22.8132 74.678 23.2719C74.944 23.7306 75.078 24.2639 75.078 24.8719C75.078 25.2772 75.003 25.6346 74.854 25.9439C74.715 26.2426 74.539 26.4879 74.326 26.6799C74.123 26.8719 73.92 27.0212 73.718 27.1279C74.134 27.3199 74.502 27.6399 74.822 28.0879C75.142 28.5359 75.302 29.0692 75.302 29.6879C75.302 30.3279 75.158 30.8986 74.87 31.3999C74.582 31.9012 74.155 32.2959 73.59 32.5839C73.024 32.8612 72.326 32.9999 71.494 32.9999H66.726ZM68.566 31.3039H71.238C71.814 31.3039 72.251 31.1492 72.55 30.8399C72.848 30.5199 72.998 30.1359 72.998 29.6879C72.998 29.2186 72.843 28.8292 72.534 28.5199C72.235 28.2106 71.803 28.0559 71.238 28.0559H68.566V31.3039ZM68.566 26.3919H71.078C71.643 26.3919 72.064 26.2586 72.342 25.9919C72.63 25.7146 72.774 25.3572 72.774 24.9199C72.774 24.4719 72.63 24.1252 72.342 23.8799C72.064 23.6239 71.643 23.4959 71.078 23.4959H68.566V26.3919ZM84.151 32.9999C84.033 32.9999 83.937 32.9626 83.863 32.8879C83.799 32.8132 83.767 32.7226 83.767 32.6159V24.3279L81.335 26.1999C81.239 26.2639 81.143 26.2906 81.047 26.2799C80.951 26.2586 80.865 26.1999 80.791 26.1039L80.119 25.2399C80.055 25.1439 80.028 25.0426 80.039 24.9359C80.06 24.8292 80.119 24.7439 80.215 24.6799L83.799 21.9119C83.863 21.8586 83.927 21.8266 83.991 21.8159C84.055 21.8052 84.124 21.7999 84.199 21.7999H85.607C85.713 21.7999 85.804 21.8372 85.879 21.9119C85.953 21.9866 85.991 22.0772 85.991 22.1839V32.6159C85.991 32.7226 85.953 32.8132 85.879 32.8879C85.804 32.9626 85.713 32.9999 85.607 32.9999H84.151ZM88.229 32.9999C88.122 32.9999 88.032 32.9626 87.957 32.8879C87.882 32.8132 87.845 32.7226 87.845 32.6159V31.7999C87.845 31.7039 87.866 31.5919 87.909 31.4639C87.962 31.3252 88.074 31.1866 88.245 31.0479L90.773 28.5359C91.477 27.9812 92.042 27.5119 92.469 27.1279C92.906 26.7332 93.221 26.3759 93.413 26.0559C93.616 25.7252 93.717 25.3999 93.717 25.0799C93.717 24.5999 93.584 24.2106 93.317 23.9119C93.061 23.6132 92.65 23.4639 92.085 23.4639C91.712 23.4639 91.397 23.5439 91.141 23.7039C90.885 23.8532 90.682 24.0559 90.533 24.3119C90.394 24.5679 90.298 24.8506 90.245 25.1599C90.224 25.2986 90.165 25.3946 90.069 25.4479C89.973 25.5012 89.877 25.5279 89.781 25.5279H88.357C88.261 25.5279 88.181 25.4959 88.117 25.4319C88.053 25.3679 88.021 25.2932 88.021 25.2079C88.032 24.7492 88.128 24.3066 88.309 23.8799C88.49 23.4426 88.752 23.0586 89.093 22.7279C89.445 22.3866 89.872 22.1146 90.373 21.9119C90.874 21.7092 91.44 21.6079 92.069 21.6079C92.954 21.6079 93.685 21.7572 94.261 22.0559C94.848 22.3546 95.285 22.7599 95.573 23.2719C95.872 23.7839 96.021 24.3599 96.021 24.9999C96.021 25.5012 95.925 25.9652 95.733 26.3919C95.541 26.8079 95.264 27.2132 94.901 27.6079C94.538 27.9919 94.101 28.3866 93.589 28.7919L91.317 31.0959H95.877C95.994 31.0959 96.085 31.1332 96.149 31.2079C96.224 31.2719 96.261 31.3626 96.261 31.4799V32.6159C96.261 32.7226 96.224 32.8132 96.149 32.8879C96.085 32.9626 95.994 32.9999 95.877 32.9999H88.229ZM102.007 33.1599C101.261 33.1599 100.615 33.0692 100.071 32.8879C99.527 32.7066 99.074 32.4719 98.711 32.1839C98.359 31.8852 98.093 31.5652 97.911 31.2239C97.73 30.8719 97.634 30.5252 97.623 30.1839C97.623 30.0879 97.655 30.0132 97.719 29.9599C97.794 29.8959 97.879 29.8639 97.975 29.8639H99.415C99.522 29.8639 99.613 29.8852 99.687 29.9279C99.762 29.9706 99.826 30.0559 99.879 30.1839C99.975 30.4719 100.13 30.7012 100.343 30.8719C100.567 31.0426 100.823 31.1652 101.111 31.2399C101.399 31.3039 101.703 31.3359 102.023 31.3359C102.663 31.3359 103.17 31.1866 103.543 30.8879C103.927 30.5786 104.119 30.1412 104.119 29.5759C104.119 29.0106 103.943 28.6052 103.591 28.3599C103.239 28.1039 102.749 27.9759 102.119 27.9759H100.471C100.354 27.9759 100.258 27.9439 100.183 27.8799C100.109 27.8052 100.071 27.7092 100.071 27.5919V26.9199C100.071 26.8132 100.093 26.7226 100.135 26.6479C100.189 26.5626 100.242 26.4932 100.295 26.4399L103.159 23.6399H98.583C98.466 23.6399 98.37 23.6026 98.295 23.5279C98.231 23.4532 98.199 23.3626 98.199 23.2559V22.1999C98.199 22.0826 98.231 21.9866 98.295 21.9119C98.37 21.8372 98.466 21.7999 98.583 21.7999H105.447C105.565 21.7999 105.661 21.8372 105.735 21.9119C105.81 21.9866 105.847 22.0826 105.847 22.1999V23.1599C105.847 23.2559 105.826 23.3412 105.783 23.4159C105.741 23.4906 105.693 23.5546 105.639 23.6079L102.871 26.4559L103.063 26.4719C103.714 26.5252 104.29 26.6746 104.791 26.9199C105.303 27.1546 105.698 27.5012 105.975 27.9599C106.263 28.4186 106.407 28.9946 106.407 29.6879C106.407 30.4132 106.215 31.0372 105.831 31.5599C105.458 32.0719 104.941 32.4666 104.279 32.7439C103.618 33.0212 102.861 33.1599 102.007 33.1599ZM113.429 32.9999C113.323 32.9999 113.232 32.9626 113.157 32.8879C113.083 32.8132 113.045 32.7226 113.045 32.6159V30.5679H107.973C107.856 30.5679 107.76 30.5306 107.685 30.4559C107.621 30.3812 107.589 30.2906 107.589 30.1839V29.0959C107.589 29.0319 107.6 28.9572 107.621 28.8719C107.653 28.7759 107.701 28.6906 107.765 28.6159L112.485 22.0719C112.624 21.8906 112.821 21.7999 113.077 21.7999H114.821C114.928 21.7999 115.019 21.8372 115.093 21.9119C115.168 21.9866 115.205 22.0772 115.205 22.1839V28.6799H116.629C116.757 28.6799 116.853 28.7172 116.917 28.7919C116.992 28.8559 117.029 28.9466 117.029 29.0639V30.1839C117.029 30.2906 116.992 30.3812 116.917 30.4559C116.843 30.5306 116.752 30.5679 116.645 30.5679H115.205V32.6159C115.205 32.7226 115.168 32.8132 115.093 32.8879C115.019 32.9626 114.928 32.9999 114.821 32.9999H113.429ZM109.813 28.7439H113.093V24.1199L109.813 28.7439ZM126.771 33.1599C125.779 33.1599 124.936 32.9892 124.243 32.6479C123.56 32.2959 123.038 31.7999 122.675 31.1599C122.312 30.5092 122.11 29.7306 122.067 28.8239C122.056 28.3866 122.051 27.9172 122.051 27.4159C122.051 26.9146 122.056 26.4346 122.067 25.9759C122.11 25.0799 122.312 24.3066 122.675 23.6559C123.048 23.0052 123.576 22.5092 124.259 22.1679C124.952 21.8159 125.79 21.6399 126.771 21.6399C127.496 21.6399 128.147 21.7359 128.723 21.9279C129.299 22.1199 129.79 22.3866 130.195 22.7279C130.6 23.0586 130.915 23.4479 131.139 23.8959C131.363 24.3439 131.48 24.8292 131.491 25.3519C131.502 25.4479 131.47 25.5279 131.395 25.5919C131.331 25.6559 131.251 25.6879 131.155 25.6879H129.635C129.518 25.6879 129.422 25.6612 129.347 25.6079C129.272 25.5439 129.219 25.4426 129.187 25.3039C129.016 24.5999 128.723 24.1199 128.307 23.8639C127.891 23.6079 127.374 23.4799 126.755 23.4799C126.04 23.4799 125.47 23.6826 125.043 24.0879C124.616 24.4826 124.387 25.1386 124.355 26.0559C124.323 26.9306 124.323 27.8266 124.355 28.7439C124.387 29.6612 124.616 30.3226 125.043 30.7279C125.47 31.1226 126.04 31.3199 126.755 31.3199C127.374 31.3199 127.891 31.1919 128.307 30.9359C128.723 30.6692 129.016 30.1892 129.187 29.4959C129.219 29.3466 129.272 29.2452 129.347 29.1919C129.422 29.1386 129.518 29.1119 129.635 29.1119H131.155C131.251 29.1119 131.331 29.1439 131.395 29.2079C131.47 29.2719 131.502 29.3519 131.491 29.4479C131.48 29.9706 131.363 30.4559 131.139 30.9039C130.915 31.3519 130.6 31.7466 130.195 32.0879C129.79 32.4186 129.299 32.6799 128.723 32.8719C128.147 33.0639 127.496 33.1599 126.771 33.1599ZM133.773 32.9999C133.666 32.9999 133.575 32.9626 133.501 32.8879C133.426 32.8132 133.389 32.7226 133.389 32.6159V22.1999C133.389 22.0826 133.426 21.9866 133.501 21.9119C133.575 21.8372 133.666 21.7999 133.773 21.7999H137.677C138.754 21.7999 139.639 21.9652 140.333 22.2959C141.037 22.6266 141.565 23.1172 141.917 23.7679C142.279 24.4186 142.466 25.2132 142.477 26.1519C142.498 26.6212 142.509 27.0372 142.509 27.3999C142.509 27.7626 142.498 28.1732 142.477 28.6319C142.455 29.6239 142.274 30.4452 141.933 31.0959C141.591 31.7359 141.074 32.2159 140.381 32.5359C139.698 32.8452 138.823 32.9999 137.757 32.9999H133.773ZM135.613 31.1599H137.677C138.274 31.1599 138.759 31.0746 139.133 30.9039C139.506 30.7332 139.778 30.4612 139.949 30.0879C140.13 29.7039 140.226 29.2026 140.237 28.5839C140.247 28.2639 140.253 27.9866 140.253 27.7519C140.263 27.5066 140.263 27.2666 140.253 27.0319C140.253 26.7866 140.247 26.5092 140.237 26.1999C140.215 25.3252 139.997 24.6799 139.581 24.2639C139.165 23.8479 138.503 23.6399 137.597 23.6399H135.613V31.1599Z" fill="#323232"/>
</g>
<path d="M318.856 28.0001L324.051 22.8047C324.298 22.5586 324.437 22.2246 324.437 21.8762C324.437 21.5278 324.299 21.1936 324.053 20.947C323.807 20.7004 323.473 20.5617 323.124 20.5614C322.776 20.5611 322.442 20.6992 322.195 20.9454L317 26.1407L311.805 20.9454C311.558 20.6988 311.224 20.5603 310.875 20.5603C310.526 20.5603 310.192 20.6988 309.945 20.9454C309.699 21.1919 309.56 21.5264 309.56 21.8751C309.56 22.2238 309.699 22.5582 309.945 22.8047L315.14 28.0001L309.945 33.1954C309.699 33.4419 309.56 33.7764 309.56 34.1251C309.56 34.4738 309.699 34.8082 309.945 35.0547C310.192 35.3013 310.526 35.4398 310.875 35.4398C311.224 35.4398 311.558 35.3013 311.805 35.0547L317 29.8594L322.195 35.0547C322.442 35.3013 322.776 35.4398 323.125 35.4398C323.474 35.4398 323.808 35.3013 324.055 35.0547C324.301 34.8082 324.44 34.4738 324.44 34.1251C324.44 33.7764 324.301 33.4419 324.055 33.1954L318.856 28.0001Z" fill="#323232"/>
</g>
<defs>
<filter id="filter0_dd_76_203" x="-48" y="-24" width="442" height="152" filterUnits="userSpaceOnUse" color-interpolation-filters="sRGB">
<feFlood flood-opacity="0" result="BackgroundImageFix"/>
<feColorMatrix in="SourceAlpha" type="matrix" values="0 0 0 0 0 0 0 0 0 0 0 0 0 0 0 0 0 0 127 0" result="hardAlpha"/>
<feOffset dy="24"/>
<feGaussianBlur stdDeviation="24"/>
<feComposite in2="hardAlpha" operator="out"/>
<feColorMatrix type="matrix" values="0 0 0 0 0.298039 0 0 0 0 0.109804 0 0 0 0 0.509804 0 0 0 0.16 0"/>
<feBlend mode="normal" in2="BackgroundImageFix" result="effect1_dropShadow_76_203"/>
<feColorMatrix in="SourceAlpha" type="matrix" values="0 0 0 0 0 0 0 0 0 0 0 0 0 0 0 0 0 0 127 0" result="hardAlpha"/>
<feOffset dy="16"/>
<feGaussianBlur stdDeviation="10"/>
<feComposite in2="hardAlpha" operator="out"/>
<feColorMatrix type="matrix" values="0 0 0 0 0.760784 0 0 0 0 0.54902 0 0 0 0 1 0 0 0 0.05 0"/>
<feBlend mode="normal" in2="effect1_dropShadow_76_203" result="effect2_dropShadow_76_203"/>
<feBlend mode="normal" in="SourceGraphic" in2="effect2_dropShadow_76_203" result="shape"/>
</filter>
<clipPath id="clip0_76_203">
<rect width="346" height="56" fill="white"/>
</clipPath>
</defs>
</svg>
