<svg width="83" height="89" viewBox="0 0 83 89" fill="none" xmlns="http://www.w3.org/2000/svg">
<path d="M9.94921 32.2372L9.7199 30.9491L7.69858 31.7752C7.18072 31.9869 6.59999 31.9841 6.08415 31.7676C5.56831 31.5511 5.15961 31.1385 4.94796 30.6206C4.73631 30.1028 4.73904 29.5221 4.95556 29.0062C5.17209 28.4904 5.58466 28.0817 6.10252 27.87L8.97048 26.6979L8.26046 22.6858C7.90808 20.6922 8.24911 18.6381 9.22679 16.8653C10.2045 15.0925 11.7598 13.7081 13.6339 12.9424L31.6665 5.57244C33.5404 4.80628 35.6202 4.70503 37.5597 5.28555C39.4992 5.86606 41.1813 7.09332 42.3261 8.76303L44.6725 12.1847C44.8171 12.0746 44.9777 11.9828 45.1543 11.9094L47.4974 10.9518C48.0153 10.7401 48.596 10.7429 49.1119 10.9594C49.6277 11.1759 50.0364 11.5885 50.2481 12.1063C50.4597 12.6242 50.457 13.2049 50.2405 13.7208C50.0239 14.2366 49.6114 14.6453 49.0935 14.857L47.0706 15.6837L47.8092 16.7637C49.0815 16.7452 50.3299 17.1107 51.3914 17.8125C52.4529 18.5143 53.2781 19.5198 53.7594 20.6977L59.5052 34.7564C59.532 34.822 59.5555 34.8884 59.5756 34.9555C59.6083 35.0175 59.638 35.0813 59.6648 35.1469L61.1013 38.6616C61.6516 40.008 61.6444 41.5179 61.0815 42.8591C60.5185 44.2003 59.4459 45.2629 58.0994 45.8132L54.1942 47.4092C52.8478 47.9595 51.3379 47.9524 49.9967 47.3895C48.6555 46.8265 47.5929 45.7538 47.0426 44.4074L46.2446 42.4548L29.0618 49.4775L29.8598 51.4301C30.4101 52.7765 30.403 54.2864 29.84 55.6276C29.2771 56.9688 28.2044 58.0314 26.858 58.5817L22.9528 60.1777C21.6064 60.728 20.0965 60.7209 18.7553 60.158C17.4141 59.595 16.3515 58.5223 15.8012 57.1759L14.3647 53.6612C14.3379 53.5956 14.3144 53.5292 14.2943 53.4621C14.2606 53.4002 14.2308 53.3363 14.2051 53.2707L8.45929 39.212C7.97774 38.0342 7.86247 36.7385 8.12854 35.4941C8.39461 34.2498 9.02809 33.1151 9.94921 32.2372ZM12.4153 21.9503L13.8678 30.1653L43.5628 18.0289L38.8468 11.1512C38.2474 10.2761 37.3663 9.63266 36.3503 9.32814C35.3342 9.02362 34.2445 9.07638 33.2626 9.47763L15.23 16.8476C14.2483 17.2488 13.4337 17.9741 12.9216 18.9028C12.4096 19.8315 12.2311 20.9075 12.4159 21.9518M50.9478 42.8113C51.2121 43.458 51.9515 43.7684 52.5982 43.5041L56.5034 41.908C56.8141 41.781 57.0616 41.5358 57.1915 41.2263C57.3214 40.9168 57.3231 40.5683 57.1961 40.2576L56.3981 38.305L50.1498 40.8587L50.9478 42.8113ZM25.1566 51.0735L18.9083 53.6272L19.7064 55.5798C19.9707 56.2265 20.71 56.5369 21.3567 56.2726L25.2619 54.6765C25.5726 54.5495 25.8202 54.3043 25.9501 53.9948C26.08 53.6853 26.0816 53.3368 25.9546 53.0261L25.1566 51.0735ZM22.1071 41.3819C22.9357 41.0432 23.5958 40.3893 23.9422 39.564C24.2887 38.7386 24.293 37.8095 23.9544 36.9809C23.6158 36.1523 22.9618 35.4922 22.1365 35.1458C21.3111 34.7993 20.382 34.7949 19.5534 35.1336C18.7248 35.4722 18.0647 36.1262 17.7183 36.9515C17.3718 37.7768 17.3675 38.706 17.7061 39.5346C18.0447 40.3632 18.6987 41.0233 19.524 41.3697C20.3494 41.7161 21.2785 41.7205 22.1071 41.3819ZM47.3855 27.4045C47.0468 26.5759 46.3929 25.9158 45.5676 25.5694C44.7422 25.223 43.8131 25.2186 42.9845 25.5572C42.1559 25.8959 41.4958 26.5498 41.1494 27.3751C40.8029 28.2005 40.7986 29.1296 41.1372 29.9582C41.4758 30.7868 42.1298 31.4469 42.9551 31.7933C43.7805 32.1398 44.7096 32.1442 45.5382 31.8055C46.3668 31.4669 47.0269 30.813 47.3733 29.9876C47.7197 29.1623 47.7241 28.2331 47.3855 27.4045ZM29.6696 36.4681C29.1517 36.6797 28.7391 37.0884 28.5226 37.6043C28.3061 38.1201 28.3033 38.7008 28.515 39.2187C28.7266 39.7366 29.1354 40.1491 29.6512 40.3657C30.167 40.5822 30.7478 40.5849 31.2656 40.3733L38.2949 37.5004C38.8128 37.2887 39.2254 36.88 39.4419 36.3642C39.6584 35.8483 39.6612 35.2676 39.4495 34.7497C39.2379 34.2319 38.8292 33.8193 38.3133 33.6028C37.7975 33.3863 37.2167 33.3835 36.6989 33.5952L29.6696 36.4681Z" fill="#FF7D43"/>
<path d="M17 51.998L10.5 48.998L10 62.998L14.5 66.998L33 60.498V49.998L29 50.998L21.5 51.998H17Z" fill="white"/>
<path d="M21.2571 51.1822C23.274 51.1822 24.7601 50.6514 25.7155 49.5899C26.6709 48.5283 28.7143 47.9976 31.8458 47.9976C34.8712 47.9976 36.9284 48.5283 38.0175 49.5899C39.1067 50.6514 40.6055 51.1822 42.5142 51.1822C44.5311 51.1822 46.0172 50.6514 46.9726 49.5899C47.9279 48.5283 49.9714 47.9976 53.1029 47.9976C55.1729 47.9976 56.7121 48.2768 57.7205 48.8351C58.729 49.3935 59.6844 49.9104 60.5867 50.386C61.3828 50.8106 62.0993 51.3552 62.7363 52.0197C63.3732 52.6842 63.6916 53.4666 63.6916 54.3667C63.6916 55.2669 63.3732 56.01 62.7363 56.5959C62.0993 57.1819 61.3563 57.3677 60.507 57.1532C58.8086 56.7286 57.5348 56.1586 56.6855 55.4431C55.8363 54.7276 54.6421 54.3689 53.1029 54.3667C51.1391 54.3667 49.6529 54.8975 48.6445 55.959C47.636 57.0205 45.5926 57.5513 42.5142 57.5513C39.4357 57.5513 37.3796 57.0205 36.3456 55.959C35.3117 54.8975 33.8118 54.3667 31.8458 54.3667C29.8289 54.3667 28.3428 54.8975 27.3874 55.959C26.432 57.0205 24.3886 57.5513 21.2571 57.5513C18.1256 57.5513 16.0821 57.0205 15.1268 55.959C14.1714 54.8975 12.6853 54.3667 10.6684 54.3667C9.12914 54.3667 7.93492 54.7255 7.0857 55.4431C6.23648 56.1607 4.96265 56.7307 3.26421 57.1532C2.41498 57.3655 1.65918 57.1798 0.996785 56.5959C0.334392 56.0121 0.00213403 55.269 1.09813e-05 54.3667C-0.00211207 53.4644 0.303608 52.6821 0.917171 52.0197C1.53073 51.3573 2.23346 50.8127 3.02536 50.386C3.92766 49.9083 4.89683 49.3903 5.93288 48.8319C6.96893 48.2736 8.54742 47.9954 10.6684 47.9976C13.7999 47.9976 15.8433 48.5283 16.7987 49.5899C17.754 50.6514 19.2402 51.1822 21.2571 51.1822Z" fill="#FD873A"/>
<path d="M21.2571 63.1822C23.274 63.1822 24.7601 62.6514 25.7155 61.5899C26.6709 60.5283 28.7143 59.9976 31.8458 59.9976C34.8712 59.9976 36.9284 60.5283 38.0175 61.5899C39.1067 62.6514 40.6055 63.1822 42.5142 63.1822C44.5311 63.1822 46.0172 62.6514 46.9726 61.5899C47.9279 60.5283 49.9714 59.9976 53.1029 59.9976C55.1729 59.9976 56.7121 60.2768 57.7205 60.8351C58.729 61.3935 59.6844 61.9104 60.5867 62.386C61.3828 62.8106 62.0993 63.3552 62.7363 64.0197C63.3732 64.6842 63.6916 65.4666 63.6916 66.3667C63.6916 67.2669 63.3732 68.01 62.7363 68.5959C62.0993 69.1819 61.3563 69.3677 60.507 69.1532C58.8086 68.7286 57.5348 68.1586 56.6855 67.4431C55.8363 66.7276 54.6421 66.3689 53.1029 66.3667C51.1391 66.3667 49.6529 66.8975 48.6445 67.959C47.636 69.0205 45.5926 69.5513 42.5142 69.5513C39.4357 69.5513 37.3796 69.0205 36.3456 67.959C35.3117 66.8975 33.8118 66.3667 31.8458 66.3667C29.8289 66.3667 28.3428 66.8975 27.3874 67.959C26.432 69.0205 24.3886 69.5513 21.2571 69.5513C18.1256 69.5513 16.0821 69.0205 15.1268 67.959C14.1714 66.8975 12.6853 66.3667 10.6684 66.3667C9.12914 66.3667 7.93492 66.7255 7.0857 67.4431C6.23648 68.1607 4.96265 68.7307 3.26421 69.1532C2.41498 69.3655 1.65918 69.1798 0.996785 68.5959C0.334392 68.0121 0.00213403 67.269 1.09813e-05 66.3667C-0.00211207 65.4644 0.303608 64.6821 0.917171 64.0197C1.53073 63.3573 2.23346 62.8127 3.02536 62.386C3.92766 61.9083 4.89683 61.3903 5.93288 60.8319C6.96893 60.2736 8.54742 59.9954 10.6684 59.9976C13.7999 59.9976 15.8433 60.5283 16.7987 61.5899C17.754 62.6514 19.2402 63.1822 21.2571 63.1822Z" fill="#FD873A"/>
<path d="M71.793 42.5845L78.4102 49.2085L79.8223 50.6226L78.4102 52.0356L66.9492 63.4985L78.4141 74.9663L79.8291 76.3823L78.4131 77.7964L71.7842 84.4126L70.3701 85.8247L68.957 84.4116L57.4971 72.9478L46.0381 84.4116L44.625 85.8257L43.21 84.4126L36.5859 77.7925L35.1709 76.3794L36.5859 74.9644L48.0459 63.4995L36.5859 52.0356L35.1719 50.6216L36.585 49.2075L43.2051 42.5835L44.6191 41.1685L46.0332 42.5835L57.498 54.0474L68.9639 42.5835L70.3789 41.1685L71.793 42.5845Z" fill="#F24091" stroke="white" stroke-width="4"/>
</svg>
