<svg width="46" height="42" viewBox="0 0 46 42" fill="none" xmlns="http://www.w3.org/2000/svg">
<g id="Group">
<path id="Vector" d="M26.1253 27.25H10.5003C6.57116 27.25 4.60866 27.25 3.38783 26.0292C2.16699 24.8083 2.16699 22.8458 2.16699 18.9167V10.5833C2.16699 6.65417 2.16699 4.69167 3.38783 3.47083C4.60866 2.25 6.57116 2.25 10.5003 2.25H35.5003C39.4295 2.25 41.392 2.25 42.6128 3.47083C43.8337 4.69167 43.8337 6.65417 43.8337 10.5833V21C43.8337 22.9417 43.8337 23.9125 43.517 24.6771C43.3076 25.183 43.0005 25.6426 42.6134 26.0297C42.2263 26.4169 41.7666 26.7239 41.2607 26.9333C40.4962 27.25 39.5253 27.25 37.5837 27.25" stroke="black" stroke-width="3" stroke-linecap="round" stroke-linejoin="round"/>
<path id="Vector_2" d="M25.0833 31.4168C25.0833 29.7592 25.7418 28.1695 26.9139 26.9974C28.086 25.8253 29.6757 25.1668 31.3333 25.1668V21.0002C31.3333 19.3426 31.9918 17.7528 33.1639 16.5807C34.336 15.4086 35.9257 14.7502 37.5833 14.7502V26.2085C37.5833 31.0731 37.5833 33.5043 36.6 35.346C35.8231 36.7995 34.6326 37.9899 33.1792 38.7668C31.3375 39.7502 28.9062 39.7502 24.0417 39.7502H23C19.1167 39.7502 17.175 39.7502 15.6458 39.1147C14.6345 38.6964 13.7154 38.083 12.9412 37.3094C12.1669 36.5359 11.5526 35.6174 11.1333 34.6064C10.5 33.0752 10.5 31.1335 10.5 27.2502M27.1667 14.7502C27.1667 15.8552 26.7277 16.915 25.9463 17.6964C25.1649 18.4778 24.1051 18.9168 23 18.9168C21.8949 18.9168 20.8351 18.4778 20.0537 17.6964C19.2723 16.915 18.8333 15.8552 18.8333 14.7502C18.8333 13.6451 19.2723 12.5853 20.0537 11.8039C20.8351 11.0225 21.8949 10.5835 23 10.5835C24.1051 10.5835 25.1649 11.0225 25.9463 11.8039C26.7277 12.5853 27.1667 13.6451 27.1667 14.7502Z" stroke="black" stroke-width="3" stroke-linecap="round" stroke-linejoin="round"/>
</g>
</svg>
