<svg width="27" height="26" viewBox="0 0 27 26" fill="none" xmlns="http://www.w3.org/2000/svg">
<path d="M14.7869 8.66667V4.33333C14.7869 4.02639 14.8909 3.76928 15.0989 3.562C15.3069 3.35472 15.5641 3.25072 15.8703 3.25H22.3703C22.6772 3.25 22.9347 3.354 23.1427 3.562C23.3507 3.77 23.4543 4.02711 23.4536 4.33333V8.66667C23.4536 8.97361 23.3496 9.23108 23.1416 9.43908C22.9336 9.64708 22.6765 9.75072 22.3703 9.75H15.8703C15.5633 9.75 15.3062 9.646 15.0989 9.438C14.8917 9.23 14.7877 8.97289 14.7869 8.66667ZM3.95361 13V4.33333C3.95361 4.02639 4.05761 3.76928 4.26561 3.562C4.47361 3.35472 4.73072 3.25072 5.03694 3.25H11.5369C11.8439 3.25 12.1014 3.354 12.3094 3.562C12.5174 3.77 12.621 4.02711 12.6203 4.33333V13C12.6203 13.3069 12.5163 13.5644 12.3083 13.7724C12.1003 13.9804 11.8432 14.0841 11.5369 14.0833H5.03694C4.72999 14.0833 4.47288 13.9793 4.26561 13.7713C4.05833 13.5633 3.95433 13.3062 3.95361 13ZM14.7869 21.6667V13C14.7869 12.6931 14.8909 12.4359 15.0989 12.2287C15.3069 12.0214 15.5641 11.9174 15.8703 11.9167H22.3703C22.6772 11.9167 22.9347 12.0207 23.1427 12.2287C23.3507 12.4367 23.4543 12.6938 23.4536 13V21.6667C23.4536 21.9736 23.3496 22.2311 23.1416 22.4391C22.9336 22.6471 22.6765 22.7507 22.3703 22.75H15.8703C15.5633 22.75 15.3062 22.646 15.0989 22.438C14.8917 22.23 14.7877 21.9729 14.7869 21.6667ZM3.95361 21.6667V17.3333C3.95361 17.0264 4.05761 16.7693 4.26561 16.562C4.47361 16.3547 4.73072 16.2507 5.03694 16.25H11.5369C11.8439 16.25 12.1014 16.354 12.3094 16.562C12.5174 16.77 12.621 17.0271 12.6203 17.3333V21.6667C12.6203 21.9736 12.5163 22.2311 12.3083 22.4391C12.1003 22.6471 11.8432 22.7507 11.5369 22.75H5.03694C4.72999 22.75 4.47288 22.646 4.26561 22.438C4.05833 22.23 3.95433 21.9729 3.95361 21.6667ZM6.12027 11.9167H10.4536V5.41667H6.12027V11.9167ZM16.9536 20.5833H21.2869V14.0833H16.9536V20.5833ZM16.9536 7.58333H21.2869V5.41667H16.9536V7.58333ZM6.12027 20.5833H10.4536V18.4167H6.12027V20.5833Z" fill="#FF7D43"/>
</svg>
