<svg width="27" height="26" viewBox="0 0 27 26" fill="none" xmlns="http://www.w3.org/2000/svg">
<path fill-rule="evenodd" clip-rule="evenodd" d="M15.3286 4.0625C15.3286 4.49348 15.1574 4.9068 14.8527 5.21155C14.5479 5.51629 14.1346 5.6875 13.7036 5.6875C13.2726 5.6875 12.8593 5.51629 12.5546 5.21155C12.2498 4.9068 12.0786 4.49348 12.0786 4.0625C12.0786 3.63152 12.2498 3.2182 12.5546 2.91345C12.8593 2.6087 13.2726 2.4375 13.7036 2.4375C14.1346 2.4375 14.5479 2.6087 14.8527 2.91345C15.1574 3.2182 15.3286 3.63152 15.3286 4.0625ZM17.6849 3.25C17.4984 2.33164 17.0001 1.50599 16.2746 0.912942C15.549 0.319895 14.6407 -0.0040741 13.7036 -0.0040741C12.7665 -0.0040741 11.8582 0.319895 11.1326 0.912942C10.4071 1.50599 9.90884 2.33164 9.72236 3.25H5.57861C5.14763 3.25 4.7343 3.4212 4.42956 3.72595C4.12481 4.0307 3.95361 4.44402 3.95361 4.875V24.375C3.95361 24.806 4.12481 25.2193 4.42956 25.524C4.7343 25.8288 5.14763 26 5.57861 26H21.8286C22.2596 26 22.6729 25.8288 22.9777 25.524C23.2824 25.2193 23.4536 24.806 23.4536 24.375V4.875C23.4536 4.44402 23.2824 4.0307 22.9777 3.72595C22.6729 3.4212 22.2596 3.25 21.8286 3.25H17.6849ZM13.7036 8.125H9.64111V5.6875H6.39111V23.5625H21.0161V5.6875H17.7661V8.125H13.7036ZM8.82861 12.5937C8.82861 12.2705 8.95701 11.9605 9.18557 11.732C9.41413 11.5034 9.72412 11.375 10.0474 11.375H17.3599C17.6831 11.375 17.9931 11.5034 18.2216 11.732C18.4502 11.9605 18.5786 12.2705 18.5786 12.5937C18.5786 12.917 18.4502 13.227 18.2216 13.4555C17.9931 13.6841 17.6831 13.8125 17.3599 13.8125H10.0474C9.72412 13.8125 9.41413 13.6841 9.18557 13.4555C8.95701 13.227 8.82861 12.917 8.82861 12.5937ZM10.0474 15.4375C9.72412 15.4375 9.41413 15.5659 9.18557 15.7945C8.95701 16.023 8.82861 16.333 8.82861 16.6562C8.82861 16.9795 8.95701 17.2895 9.18557 17.518C9.41413 17.7466 9.72412 17.875 10.0474 17.875H17.3599C17.6831 17.875 17.9931 17.7466 18.2216 17.518C18.4502 17.2895 18.5786 16.9795 18.5786 16.6562C18.5786 16.333 18.4502 16.023 18.2216 15.7945C17.9931 15.5659 17.6831 15.4375 17.3599 15.4375H10.0474Z" fill="#409EFF"/>
</svg>
