<svg width="87" height="76" viewBox="0 0 87 76" fill="none" xmlns="http://www.w3.org/2000/svg">
<path d="M34.5 60.375C37.898 60.375 41.2626 59.7057 44.4019 58.4054C47.5412 57.105 50.3937 55.1991 52.7964 52.7964C55.1991 50.3937 57.105 47.5412 58.4054 44.4019C59.7057 41.2626 60.375 37.898 60.375 34.5C60.375 31.102 59.7057 27.7374 58.4054 24.5981C57.105 21.4588 55.1991 18.6063 52.7964 16.2036C50.3937 13.8009 47.5412 11.895 44.4019 10.5946C41.2626 9.29428 37.898 8.625 34.5 8.625C27.6375 8.625 21.0561 11.3511 16.2036 16.2036C11.3511 21.0561 8.625 27.6375 8.625 34.5C8.625 41.3625 11.3511 47.9439 16.2036 52.7964C21.0561 57.6489 27.6375 60.375 34.5 60.375ZM34.5 64.6875C26.4938 64.6875 18.8155 61.507 13.1542 55.8458C7.49296 50.1845 4.3125 42.5062 4.3125 34.5C4.3125 26.4938 7.49296 18.8155 13.1542 13.1542C18.8155 7.49296 26.4938 4.3125 34.5 4.3125C42.5062 4.3125 50.1845 7.49296 55.8458 13.1542C61.507 18.8155 64.6875 26.4938 64.6875 34.5C64.6875 42.5062 61.507 50.1845 55.8458 55.8458C50.1845 61.507 42.5062 64.6875 34.5 64.6875Z" fill="#FD873A"/>
<path d="M12.9375 34.5C12.9375 28.7813 15.2093 23.2968 19.253 19.253C23.2968 15.2093 28.7813 12.9375 34.5 12.9375C40.2187 12.9375 45.7032 15.2093 49.747 19.253C53.7907 23.2968 56.0625 28.7813 56.0625 34.5C56.0625 35.0719 55.8353 35.6203 55.431 36.0247C55.0266 36.4291 54.4781 36.6562 53.9062 36.6562C53.3344 36.6562 52.7859 36.4291 52.3815 36.0247C51.9772 35.6203 51.75 35.0719 51.75 34.5C51.75 29.925 49.9326 25.5374 46.6976 22.3024C43.4626 19.0674 39.075 17.25 34.5 17.25C29.925 17.25 25.5374 19.0674 22.3024 22.3024C19.0674 25.5374 17.25 29.925 17.25 34.5C17.25 35.0719 17.0228 35.6203 16.6184 36.0247C16.2141 36.4291 15.6656 36.6562 15.0938 36.6562C14.5219 36.6562 13.9734 36.4291 13.5691 36.0247C13.1647 35.6203 12.9375 35.0719 12.9375 34.5Z" fill="#FD873A"/>
<path d="M38.4368 42.3057C39.6469 43.2353 40.4894 44.5627 40.8155 46.0533C41.1415 47.544 40.9301 49.1019 40.2186 50.4518C39.5071 51.8017 38.3414 52.8566 36.9273 53.4301C35.5133 54.0036 33.9421 54.0587 32.4913 53.5858C31.0405 53.1129 29.8036 52.1424 28.9992 50.8457C28.1948 49.5491 27.8747 48.0098 28.0954 46.5C28.3161 44.9901 29.0634 43.6069 30.2053 42.5947C31.3472 41.5826 32.8102 41.0067 34.3356 40.9688L38.4454 28.316C38.5306 28.0438 38.6689 27.7913 38.8523 27.573C39.0357 27.3547 39.2606 27.1749 39.5139 27.0441C39.7673 26.9132 40.044 26.834 40.3282 26.8108C40.6124 26.7877 40.8984 26.8211 41.1696 26.9092C41.4408 26.9974 41.6918 27.1384 41.9081 27.3241C42.1244 27.5099 42.3017 27.7367 42.4298 27.9915C42.5578 28.2463 42.6341 28.5239 42.6542 28.8083C42.6742 29.0927 42.6377 29.3783 42.5466 29.6485L38.4368 42.3014V42.3057ZM33.831 49.4903C34.1006 49.5781 34.3848 49.6119 34.6675 49.5899C34.9501 49.5678 35.2257 49.4903 35.4783 49.3618C35.731 49.2332 35.9559 49.0562 36.1402 48.8407C36.3244 48.6252 36.4645 48.3756 36.5522 48.106C36.64 47.8364 36.6738 47.5522 36.6518 47.2696C36.6297 46.9869 36.5522 46.7114 36.4237 46.4587C36.2951 46.206 36.1181 45.9811 35.9026 45.7969C35.6871 45.6126 35.4375 45.4726 35.1679 45.3848C34.6235 45.2076 34.0309 45.2538 33.5206 45.5134C33.0103 45.773 32.624 46.2247 32.4467 46.7691C32.2695 47.3136 32.3157 47.9061 32.5753 48.4164C32.8349 48.9268 33.2866 49.3131 33.831 49.4903Z" fill="#FD873A"/>
<path d="M75.793 29.5869L82.4102 36.2109L83.8223 37.625L82.4102 39.0381L70.9492 50.501L82.4141 61.9688L83.8291 63.3848L82.4131 64.7988L75.7842 71.415L74.3701 72.8271L72.957 71.4141L61.4971 59.9502L50.0381 71.4141L48.625 72.8281L47.21 71.415L40.5859 64.7949L39.1709 63.3818L40.5859 61.9668L52.0459 50.502L40.5859 39.0381L39.1719 37.624L40.585 36.21L47.2051 29.5859L48.6191 28.1709L50.0332 29.5859L61.498 41.0498L72.9639 29.5859L74.3789 28.1709L75.793 29.5869Z" fill="#F24091" stroke="white" stroke-width="4"/>
</svg>
