<svg width="50" height="50" viewBox="0 0 50 50" fill="none" xmlns="http://www.w3.org/2000/svg">
<g id="ep:odometer">
<path id="Vector" d="M25 43.75C27.4623 43.75 29.9005 43.265 32.1753 42.3227C34.4502 41.3805 36.5172 39.9994 38.2583 38.2583C39.9994 36.5172 41.3805 34.4502 42.3227 32.1753C43.265 29.9005 43.75 27.4623 43.75 25C43.75 22.5377 43.265 20.0995 42.3227 17.8247C41.3805 15.5498 39.9994 13.4828 38.2583 11.7417C36.5172 10.0006 34.4502 8.61953 32.1753 7.67726C29.9005 6.73498 27.4623 6.25 25 6.25C20.0272 6.25 15.2581 8.22544 11.7417 11.7417C8.22544 15.2581 6.25 20.0272 6.25 25C6.25 29.9728 8.22544 34.7419 11.7417 38.2583C15.2581 41.7746 20.0272 43.75 25 43.75ZM25 46.875C19.1984 46.875 13.6344 44.5703 9.53204 40.468C5.42968 36.3656 3.125 30.8016 3.125 25C3.125 19.1984 5.42968 13.6344 9.53204 9.53204C13.6344 5.42968 19.1984 3.125 25 3.125C30.8016 3.125 36.3656 5.42968 40.468 9.53204C44.5703 13.6344 46.875 19.1984 46.875 25C46.875 30.8016 44.5703 36.3656 40.468 40.468C36.3656 44.5703 30.8016 46.875 25 46.875Z" fill="black"/>
<path id="Vector_2" d="M9.375 25C9.375 20.856 11.0212 16.8817 13.9515 13.9515C16.8817 11.0212 20.856 9.375 25 9.375C29.144 9.375 33.1183 11.0212 36.0485 13.9515C38.9788 16.8817 40.625 20.856 40.625 25C40.625 25.4144 40.4604 25.8118 40.1674 26.1049C39.8743 26.3979 39.4769 26.5625 39.0625 26.5625C38.6481 26.5625 38.2507 26.3979 37.9576 26.1049C37.6646 25.8118 37.5 25.4144 37.5 25C37.5 21.6848 36.183 18.5054 33.8388 16.1612C31.4946 13.817 28.3152 12.5 25 12.5C21.6848 12.5 18.5054 13.817 16.1612 16.1612C13.817 18.5054 12.5 21.6848 12.5 25C12.5 25.4144 12.3354 25.8118 12.0424 26.1049C11.7493 26.3979 11.3519 26.5625 10.9375 26.5625C10.5231 26.5625 10.1257 26.3979 9.83265 26.1049C9.53962 25.8118 9.375 25.4144 9.375 25Z" fill="black"/>
<path id="Vector_3" d="M27.8527 30.6562C28.7295 31.3298 29.34 32.2917 29.5763 33.3719C29.8126 34.452 29.6594 35.581 29.1438 36.5591C28.6283 37.5373 27.7835 38.3017 26.7588 38.7173C25.7342 39.1329 24.5956 39.1729 23.5443 38.8302C22.493 38.4875 21.5967 37.7842 21.0138 36.8446C20.4309 35.905 20.1989 34.7896 20.3589 33.6955C20.5188 32.6014 21.0604 31.5991 21.8878 30.8656C22.7153 30.1322 23.7754 29.7149 24.8808 29.6874L27.8589 20.5187C27.9206 20.3215 28.0208 20.1385 28.1537 19.9803C28.2866 19.8221 28.4496 19.6918 28.6332 19.597C28.8168 19.5022 29.0173 19.4448 29.2233 19.428C29.4292 19.4112 29.6364 19.4355 29.8329 19.4993C30.0294 19.5632 30.2113 19.6654 30.3681 19.8C30.5248 19.9346 30.6533 20.099 30.7461 20.2836C30.8389 20.4682 30.8942 20.6693 30.9087 20.8755C30.9232 21.0816 30.8968 21.2885 30.8308 21.4843L27.8527 30.6531V30.6562ZM24.5152 35.8624C24.7105 35.926 24.9164 35.9506 25.1213 35.9346C25.3261 35.9186 25.5257 35.8624 25.7088 35.7693C25.8919 35.6761 26.0549 35.5478 26.1884 35.3917C26.322 35.2355 26.4234 35.0546 26.487 34.8593C26.5506 34.664 26.5751 34.458 26.5592 34.2532C26.5432 34.0484 26.487 33.8487 26.3939 33.6656C26.3007 33.4825 26.1724 33.3195 26.0163 33.186C25.8601 33.0525 25.6792 32.951 25.4839 32.8874C25.0894 32.759 24.66 32.7925 24.2902 32.9806C23.9204 33.1687 23.6405 33.496 23.512 33.8906C23.3836 34.2851 23.4171 34.7145 23.6052 35.0842C23.7933 35.454 24.1206 35.734 24.5152 35.8624Z" fill="black"/>
</g>
</svg>
