<svg width="66" height="66" viewBox="0 0 66 66" fill="none" xmlns="http://www.w3.org/2000/svg">
<path d="M32.7693 13.6539C27.4443 13.6539 22.9276 15.509 19.2192 19.2192C15.5108 22.9294 13.6557 27.4461 13.6539 32.7693C13.6539 36.0462 14.394 39.0501 15.874 41.7808C17.3541 44.5116 19.3448 46.7417 21.8462 48.4712V43.6924C21.8462 42.9187 22.1084 42.2706 22.6327 41.7481C23.157 41.2256 23.8051 40.9634 24.577 40.9616C25.3489 40.9598 25.9979 41.2219 26.524 41.7481C27.0502 42.2742 27.3114 42.9223 27.3078 43.6924V54.6155C27.3078 55.3892 27.0456 56.0382 26.5213 56.5625C25.997 57.0868 25.3489 57.348 24.577 57.3462H13.6539C12.8802 57.3462 12.2321 57.0841 11.7096 56.5598C11.1871 56.0355 10.925 55.3874 10.9232 54.6155C10.9213 53.8436 11.1835 53.1955 11.7096 52.6712C12.2357 52.1468 12.8838 51.8847 13.6539 51.8847H17.3405C14.5187 49.609 12.2885 46.8218 10.6501 43.5231C9.01161 40.2243 8.19238 36.6397 8.19238 32.7693C8.19238 29.3558 8.8414 26.159 10.1394 23.1788C11.4374 20.1987 13.1888 17.6044 15.3934 15.3962C17.5981 13.1879 20.1923 11.4356 23.1761 10.1394C26.1599 8.84322 29.3577 8.1942 32.7693 8.19238C37.9122 8.19238 42.5436 9.62604 46.6635 12.4933C50.7833 15.3607 53.7525 19.0472 55.5712 23.553C55.8443 24.2812 55.8443 24.9866 55.5712 25.6693C55.2981 26.352 54.7975 26.8299 54.0693 27.103C53.3411 27.376 52.6238 27.376 51.9175 27.103C51.2111 26.8299 50.7223 26.3292 50.451 25.601C49.0401 22.051 46.7527 19.1728 43.5886 16.9663C40.4246 14.7599 36.8181 13.6557 32.7693 13.6539Z" fill="#8D0A0A"/>
<path d="M47.5023 59.7147C49.2815 59.7147 51.0434 59.3642 52.6872 58.6833C54.331 58.0024 55.8246 57.0044 57.0827 55.7463C58.3408 54.4882 59.3388 52.9946 60.0197 51.3507C60.7006 49.7069 61.0511 47.9451 61.0511 46.1658C61.0511 44.3866 60.7006 42.6247 60.0197 40.9809C59.3388 39.3371 58.3408 37.8435 57.0827 36.5854C55.8246 35.3273 54.331 34.3293 52.6872 33.6484C51.0434 32.9675 49.2815 32.617 47.5023 32.617C43.9089 32.617 40.4627 34.0445 37.9218 36.5854C35.3809 39.1263 33.9534 42.5725 33.9534 46.1658C33.9534 49.7592 35.3809 53.2054 37.9218 55.7463C40.4627 58.2872 43.9089 59.7147 47.5023 59.7147ZM47.5023 61.9728C43.31 61.9728 39.2894 60.3074 36.3251 57.343C33.3607 54.3787 31.6953 50.3581 31.6953 46.1658C31.6953 41.9736 33.3607 37.953 36.3251 34.9886C39.2894 32.0243 43.31 30.3589 47.5023 30.3589C51.6945 30.3589 55.7151 32.0243 58.6795 34.9886C61.6438 37.953 63.3092 41.9736 63.3092 46.1658C63.3092 50.3581 61.6438 54.3787 58.6795 57.343C55.7151 60.3074 51.6945 61.9728 47.5023 61.9728Z" fill="#8D0A0A"/>
<path d="M36.2119 46.1657C36.2119 43.1712 37.4015 40.2994 39.5189 38.182C41.6363 36.0646 44.5081 34.875 47.5026 34.875C50.4971 34.875 53.3689 36.0646 55.4863 38.182C57.6037 40.2994 58.7933 43.1712 58.7933 46.1657C58.7933 46.4651 58.6743 46.7523 58.4626 46.9641C58.2508 47.1758 57.9637 47.2947 57.6642 47.2947C57.3648 47.2947 57.0776 47.1758 56.8658 46.9641C56.6541 46.7523 56.5351 46.4651 56.5351 46.1657C56.5351 43.7701 55.5835 41.4726 53.8896 39.7787C52.1956 38.0848 49.8982 37.1331 47.5026 37.1331C45.107 37.1331 42.8096 38.0848 41.1156 39.7787C39.4217 41.4726 38.4701 43.7701 38.4701 46.1657C38.4701 46.4651 38.3511 46.7523 38.1394 46.9641C37.9276 47.1758 37.6404 47.2947 37.341 47.2947C37.0415 47.2947 36.7544 47.1758 36.5426 46.9641C36.3309 46.7523 36.2119 46.4651 36.2119 46.1657Z" fill="#8D0A0A"/>
<path d="M49.5639 50.253C50.1976 50.7397 50.6387 51.4348 50.8095 52.2153C50.9802 52.9959 50.8695 53.8117 50.4969 54.5185C50.1244 55.2253 49.514 55.7777 48.7735 56.078C48.0331 56.3783 47.2104 56.4072 46.4507 56.1596C45.6911 55.9119 45.0434 55.4037 44.6222 54.7248C44.201 54.0458 44.0333 53.2398 44.1489 52.4492C44.2645 51.6586 44.6558 50.9343 45.2537 50.4043C45.8517 49.8743 46.6177 49.5728 47.4165 49.553L49.5685 42.9276C49.613 42.7851 49.6855 42.6529 49.7815 42.5386C49.8775 42.4242 49.9953 42.3301 50.1279 42.2616C50.2606 42.1931 50.4055 42.1516 50.5543 42.1395C50.7032 42.1273 50.8529 42.1449 50.9949 42.191C51.1369 42.2371 51.2683 42.311 51.3816 42.4083C51.4949 42.5055 51.5877 42.6243 51.6548 42.7577C51.7218 42.8911 51.7618 43.0365 51.7723 43.1854C51.7828 43.3343 51.7636 43.4839 51.7159 43.6254L49.5639 50.2507V50.253ZM47.1522 54.015C47.2934 54.061 47.4422 54.0787 47.5902 54.0672C47.7382 54.0556 47.8825 54.015 48.0148 53.9477C48.1471 53.8804 48.2649 53.7877 48.3614 53.6749C48.4579 53.5621 48.5312 53.4313 48.5771 53.2902C48.6231 53.149 48.6408 53.0002 48.6293 52.8522C48.6177 52.7042 48.5771 52.5599 48.5098 52.4276C48.4425 52.2953 48.3498 52.1775 48.237 52.0811C48.1241 51.9846 47.9934 51.9113 47.8523 51.8653C47.5672 51.7725 47.2569 51.7967 46.9897 51.9326C46.7225 52.0686 46.5202 52.3051 46.4274 52.5902C46.3346 52.8752 46.3588 53.1855 46.4947 53.4527C46.6307 53.7199 46.8672 53.9222 47.1522 54.015Z" fill="#8D0A0A"/>
</svg>
