<svg width="46" height="46" viewBox="0 0 46 46" fill="none" xmlns="http://www.w3.org/2000/svg">
<g id="Group">
<path id="Vector" d="M6.33366 18.8332V36.5415M14.667 18.8332V36.5415M20.917 36.5415H8.41699C6.75939 36.5415 5.16968 37.2 3.99758 38.3721C2.82547 39.5442 2.16699 41.1339 2.16699 42.7915C2.16699 43.0678 2.27674 43.3327 2.47209 43.5281C2.66744 43.7234 2.93239 43.8332 3.20866 43.8332H20.917M42.792 28.2082L28.2087 42.7915M2.16699 15.854C2.16699 13.3603 3.17116 11.8332 5.25033 10.6748L13.8128 5.91025C18.2982 3.4165 20.542 2.1665 23.0003 2.1665C25.4587 2.1665 27.7024 3.4165 32.1878 5.91025L40.7503 10.6748C42.8274 11.8332 43.8337 13.3603 43.8337 15.854C43.8337 16.529 43.8337 16.8686 43.7607 17.1457C43.3732 18.604 42.0503 18.8353 40.7732 18.8353H5.22741C3.95033 18.8353 2.62949 18.6061 2.23991 17.1457C2.16699 16.8665 2.16699 16.529 2.16699 15.854Z" stroke="black" stroke-width="3" stroke-linecap="round" stroke-linejoin="round"/>
<path id="Vector_2" d="M29.7715 31.333C30.6344 31.333 31.334 30.6335 31.334 29.7705C31.334 28.9076 30.6344 28.208 29.7715 28.208C28.9085 28.208 28.209 28.9076 28.209 29.7705C28.209 30.6335 28.9085 31.333 29.7715 31.333Z" stroke="black" stroke-width="3" stroke-linecap="round" stroke-linejoin="round"/>
<path id="Vector_3" d="M41.2295 42.7915C42.0924 42.7915 42.792 42.0919 42.792 41.229C42.792 40.3661 42.0924 39.6665 41.2295 39.6665C40.3665 39.6665 39.667 40.3661 39.667 41.229C39.667 42.0919 40.3665 42.7915 41.2295 42.7915Z" stroke="black" stroke-width="3" stroke-linecap="round" stroke-linejoin="round"/>
</g>
</svg>
