<svg width="48" height="47" viewBox="0 0 48 47" fill="none" xmlns="http://www.w3.org/2000/svg">
<g id="Group 328">
<path id="Vector" d="M35.1628 27.3496C35.7549 27.3496 36.3228 27.1144 36.7415 26.6957C37.1602 26.277 37.3955 25.7091 37.3955 25.1169C37.3955 24.5248 37.1602 23.9569 36.7415 23.5382C36.3228 23.1195 35.7549 22.8843 35.1628 22.8843C34.5707 22.8843 34.0028 23.1195 33.5841 23.5382C33.1654 23.9569 32.9301 24.5248 32.9301 25.1169C32.9301 25.7091 33.1654 26.277 33.5841 26.6957C34.0028 27.1144 34.5707 27.3496 35.1628 27.3496ZM35.1628 36.2802C35.7549 36.2802 36.3228 36.045 36.7415 35.6263C37.1602 35.2076 37.3955 34.6397 37.3955 34.0476C37.3955 33.4554 37.1602 32.8876 36.7415 32.4689C36.3228 32.0501 35.7549 31.8149 35.1628 31.8149C34.5707 31.8149 34.0028 32.0501 33.5841 32.4689C33.1654 32.8876 32.9301 33.4554 32.9301 34.0476C32.9301 34.6397 33.1654 35.2076 33.5841 35.6263C34.0028 36.045 34.5707 36.2802 35.1628 36.2802ZM26.2322 25.1169C26.2322 25.7091 25.9969 26.277 25.5782 26.6957C25.1595 27.1144 24.5916 27.3496 23.9995 27.3496C23.4073 27.3496 22.8395 27.1144 22.4208 26.6957C22.0021 26.277 21.7668 25.7091 21.7668 25.1169C21.7668 24.5248 22.0021 23.9569 22.4208 23.5382C22.8395 23.1195 23.4073 22.8843 23.9995 22.8843C24.5916 22.8843 25.1595 23.1195 25.5782 23.5382C25.9969 23.9569 26.2322 24.5248 26.2322 25.1169ZM26.2322 34.0476C26.2322 34.6397 25.9969 35.2076 25.5782 35.6263C25.1595 36.045 24.5916 36.2802 23.9995 36.2802C23.4073 36.2802 22.8395 36.045 22.4208 35.6263C22.0021 35.2076 21.7668 34.6397 21.7668 34.0476C21.7668 33.4554 22.0021 32.8876 22.4208 32.4689C22.8395 32.0501 23.4073 31.8149 23.9995 31.8149C24.5916 31.8149 25.1595 32.0501 25.5782 32.4689C25.9969 32.8876 26.2322 33.4554 26.2322 34.0476ZM12.8362 27.3496C13.4283 27.3496 13.9962 27.1144 14.4149 26.6957C14.8336 26.277 15.0688 25.7091 15.0688 25.1169C15.0688 24.5248 14.8336 23.9569 14.4149 23.5382C13.9962 23.1195 13.4283 22.8843 12.8362 22.8843C12.244 22.8843 11.6762 23.1195 11.2574 23.5382C10.8387 23.9569 10.6035 24.5248 10.6035 25.1169C10.6035 25.7091 10.8387 26.277 11.2574 26.6957C11.6762 27.1144 12.244 27.3496 12.8362 27.3496ZM12.8362 36.2802C13.4283 36.2802 13.9962 36.045 14.4149 35.6263C14.8336 35.2076 15.0688 34.6397 15.0688 34.0476C15.0688 33.4554 14.8336 32.8876 14.4149 32.4689C13.9962 32.0501 13.4283 31.8149 12.8362 31.8149C12.244 31.8149 11.6762 32.0501 11.2574 32.4689C10.8387 32.8876 10.6035 33.4554 10.6035 34.0476C10.6035 34.6397 10.8387 35.2076 11.2574 35.6263C11.6762 36.045 12.244 36.2802 12.8362 36.2802Z" fill="black"/>
<path id="Vector_2" fill-rule="evenodd" clip-rule="evenodd" d="M12.8356 0C13.2797 0 13.7056 0.17642 14.0196 0.490449C14.3337 0.804478 14.5101 1.23039 14.5101 1.6745V3.37802C15.9881 3.34899 17.6157 3.34899 19.4063 3.34899H28.5892C30.3821 3.34899 32.0097 3.34899 33.4877 3.37802V1.6745C33.4877 1.23039 33.6641 0.804478 33.9781 0.490449C34.2922 0.17642 34.7181 0 35.1622 0C35.6063 0 36.0322 0.17642 36.3462 0.490449C36.6603 0.804478 36.8367 1.23039 36.8367 1.6745V3.52091C37.4172 3.56556 37.9672 3.62212 38.4866 3.69059C41.1033 4.04335 43.2221 4.78459 44.8944 6.45463C46.5644 8.12689 47.3056 10.2457 47.6584 12.8624C48 15.4076 48 18.6561 48 22.7598V27.4751C48 31.5788 48 34.8295 47.6584 37.3725C47.3056 39.9892 46.5644 42.108 44.8944 43.7803C43.2221 45.4503 41.1033 46.1915 38.4866 46.5443C35.9414 46.8859 32.6929 46.8859 28.5892 46.8859H19.4108C15.3071 46.8859 12.0564 46.8859 9.51337 46.5443C6.89669 46.1915 4.7779 45.4503 3.10563 43.7803C1.4356 42.108 0.694358 39.9892 0.341597 37.3725C0 34.8273 0 31.5788 0 27.4751V22.7598C0 18.6561 0 15.4054 0.341597 12.8624C0.694358 10.2457 1.4356 8.12689 3.10563 6.45463C4.7779 4.78459 6.89669 4.04335 9.51337 3.69059C10.0343 3.62212 10.5843 3.56556 11.1633 3.52091V1.6745C11.1633 1.23078 11.3394 0.805202 11.653 0.491237C11.9665 0.177272 12.3919 0.000591623 12.8356 0ZM9.95544 7.01056C7.71162 7.31197 6.41667 7.87906 5.47225 8.82348C4.52784 9.7679 3.96074 11.0628 3.65933 13.3067C3.60873 13.6862 3.56556 14.0874 3.52984 14.5101H44.4679C44.4322 14.0874 44.389 13.6855 44.3384 13.3044C44.037 11.0606 43.4699 9.76566 42.5255 8.82125C41.5811 7.87683 40.2862 7.30974 38.0401 7.00833C35.7472 6.70022 32.7219 6.69575 28.4642 6.69575H19.5336C15.2759 6.69575 12.2529 6.70245 9.95544 7.01056ZM3.34676 22.8848C3.34676 20.9781 3.34676 19.3192 3.37579 17.8613H44.622C44.651 19.3192 44.651 20.9781 44.651 22.8848V27.3501C44.651 31.6078 44.6465 34.6331 44.3384 36.9282C44.037 39.1721 43.4699 40.467 42.5255 41.4114C41.5811 42.3558 40.2862 42.9229 38.0401 43.2243C35.7472 43.5324 32.7219 43.5369 28.4642 43.5369H19.5336C15.2759 43.5369 12.2529 43.5324 9.95544 43.2243C7.71162 42.9229 6.41667 42.3558 5.47225 41.4114C4.52784 40.467 3.96074 39.1721 3.65933 36.926C3.35123 34.6331 3.34676 31.6078 3.34676 27.3501V22.8848Z" fill="black"/>
</g>
</svg>
