<svg width="90" height="81" viewBox="0 0 90 81" fill="none" xmlns="http://www.w3.org/2000/svg">
<path d="M9.94921 32.2367L9.7199 30.9486L7.69858 31.7747C7.18072 31.9864 6.59999 31.9836 6.08415 31.7671C5.56831 31.5506 5.15961 31.138 4.94796 30.6202C4.73631 30.1023 4.73904 29.5216 4.95556 29.0057C5.17209 28.4899 5.58466 28.0812 6.10252 27.8695L8.97048 26.6974L8.26046 22.6853C7.90808 20.6917 8.24911 18.6376 9.22679 16.8648C10.2045 15.092 11.7598 13.7076 13.6339 12.9419L31.6665 5.57195C33.5404 4.80579 35.6202 4.70454 37.5597 5.28506C39.4992 5.86557 41.1813 7.09283 42.3261 8.76254L44.6725 12.1842C44.8171 12.0741 44.9777 11.9823 45.1543 11.9089L47.4974 10.9513C48.0153 10.7396 48.596 10.7424 49.1119 10.9589C49.6277 11.1754 50.0364 11.588 50.2481 12.1058C50.4597 12.6237 50.457 13.2044 50.2405 13.7203C50.0239 14.2361 49.6114 14.6448 49.0935 14.8565L47.0706 15.6832L47.8092 16.7632C49.0815 16.7447 50.3299 17.1102 51.3914 17.812C52.4529 18.5138 53.2781 19.5193 53.7594 20.6972L59.5052 34.7559C59.532 34.8215 59.5555 34.8879 59.5756 34.955C59.6083 35.017 59.638 35.0808 59.6648 35.1464L61.1013 38.6611C61.6516 40.0075 61.6444 41.5174 61.0815 42.8586C60.5185 44.1998 59.4459 45.2624 58.0994 45.8127L54.1942 47.4088C52.8478 47.9591 51.3379 47.9519 49.9967 47.389C48.6555 46.826 47.5929 45.7533 47.0426 44.4069L46.2446 42.4543L29.0618 49.477L29.8598 51.4296C30.4101 52.776 30.403 54.2859 29.84 55.6271C29.2771 56.9683 28.2044 58.0309 26.858 58.5812L22.9528 60.1772C21.6064 60.7275 20.0965 60.7204 18.7553 60.1575C17.4141 59.5945 16.3515 58.5218 15.8012 57.1754L14.3647 53.6607C14.3379 53.5951 14.3144 53.5288 14.2943 53.4616C14.2606 53.3998 14.2308 53.3358 14.2051 53.2702L8.45929 39.2116C7.97774 38.0337 7.86247 36.738 8.12854 35.4936C8.39461 34.2493 9.02809 33.1147 9.94921 32.2367ZM12.4153 21.9498L13.8678 30.1649L43.5628 18.0284L38.8468 11.1508C38.2474 10.2756 37.3663 9.63217 36.3503 9.32765C35.3342 9.02313 34.2445 9.07589 33.2626 9.47714L15.23 16.8471C14.2483 17.2483 13.4337 17.9736 12.9216 18.9023C12.4096 19.831 12.2311 20.9071 12.4159 21.9513M50.9478 42.8108C51.2121 43.4575 51.9515 43.7679 52.5982 43.5036L56.5034 41.9075C56.8141 41.7805 57.0616 41.5353 57.1915 41.2258C57.3214 40.9163 57.3231 40.5679 57.1961 40.2571L56.3981 38.3046L50.1498 40.8583L50.9478 42.8108ZM25.1566 51.073L18.9083 53.6267L19.7064 55.5793C19.9707 56.226 20.71 56.5364 21.3567 56.2721L25.2619 54.676C25.5726 54.549 25.8202 54.3038 25.9501 53.9943C26.08 53.6848 26.0816 53.3363 25.9546 53.0256L25.1566 51.073ZM22.1071 41.3814C22.9357 41.0427 23.5958 40.3888 23.9422 39.5635C24.2887 38.7381 24.293 37.809 23.9544 36.9804C23.6158 36.1518 22.9618 35.4917 22.1365 35.1453C21.3111 34.7988 20.382 34.7945 19.5534 35.1331C18.7248 35.4717 18.0647 36.1257 17.7183 36.951C17.3718 37.7764 17.3675 38.7055 17.7061 39.5341C18.0447 40.3627 18.6987 41.0228 19.524 41.3692C20.3494 41.7157 21.2785 41.72 22.1071 41.3814ZM47.3855 27.404C47.0468 26.5755 46.3929 25.9153 45.5676 25.5689C44.7422 25.2225 43.8131 25.2181 42.9845 25.5567C42.1559 25.8954 41.4958 26.5493 41.1494 27.3746C40.8029 28.2 40.7986 29.1292 41.1372 29.9577C41.4758 30.7863 42.1298 31.4464 42.9551 31.7929C43.7805 32.1393 44.7096 32.1437 45.5382 31.805C46.3668 31.4664 47.0269 30.8125 47.3733 29.9871C47.7197 29.1618 47.7241 28.2326 47.3855 27.404ZM29.6696 36.4676C29.1517 36.6792 28.7391 37.0879 28.5226 37.6038C28.3061 38.1196 28.3033 38.7004 28.515 39.2182C28.7266 39.7361 29.1354 40.1486 29.6512 40.3652C30.167 40.5817 30.7478 40.5844 31.2656 40.3728L38.2949 37.4999C38.8128 37.2882 39.2254 36.8795 39.4419 36.3637C39.6584 35.8478 39.6612 35.2671 39.4495 34.7492C39.2379 34.2314 38.8292 33.8188 38.3133 33.6023C37.7975 33.3858 37.2167 33.383 36.6989 33.5947L29.6696 36.4676Z" fill="#FF7D43"/>
<path d="M19 51L12.5 48L12 62L16.5 66L35 59.5V49L31 50L23.5 51H19Z" fill="white"/>
<path d="M23.2571 50.1846C25.274 50.1846 26.7601 49.6538 27.7155 48.5923C28.6709 47.5308 30.7143 47 33.8458 47C36.8712 47 38.9284 47.5308 40.0175 48.5923C41.1067 49.6538 42.6055 50.1846 44.5142 50.1846C46.5311 50.1846 48.0172 49.6538 48.9726 48.5923C49.9279 47.5308 51.9714 47 55.1029 47C57.1729 47 58.7121 47.2792 59.7205 47.8376C60.729 48.3959 61.6844 48.9129 62.5867 49.3884C63.3828 49.8131 64.0993 50.3576 64.7363 51.0221C65.3732 51.6867 65.6916 52.469 65.6916 53.3692C65.6916 54.2693 65.3732 55.0124 64.7363 55.5984C64.0993 56.1843 63.3563 56.3701 62.507 56.1557C60.8086 55.7311 59.5348 55.161 58.6855 54.4456C57.8363 53.7301 56.6421 53.3713 55.1029 53.3692C53.1391 53.3692 51.6529 53.8999 50.6445 54.9615C49.636 56.023 47.5926 56.5538 44.5142 56.5538C41.4357 56.5538 39.3796 56.023 38.3456 54.9615C37.3117 53.8999 35.8118 53.3692 33.8458 53.3692C31.8289 53.3692 30.3428 53.8999 29.3874 54.9615C28.432 56.023 26.3886 56.5538 23.2571 56.5538C20.1256 56.5538 18.0821 56.023 17.1268 54.9615C16.1714 53.8999 14.6853 53.3692 12.6684 53.3692C11.1291 53.3692 9.93492 53.728 9.0857 54.4456C8.23648 55.1632 6.96265 55.7332 5.26421 56.1557C4.41498 56.368 3.65918 56.1822 2.99678 55.5984C2.33439 55.0145 2.00213 54.2715 2.00001 53.3692C1.99789 52.4669 2.30361 51.6845 2.91717 51.0221C3.53073 50.3597 4.23346 49.8152 5.02536 49.3884C5.92766 48.9108 6.89683 48.3927 7.93288 47.8344C8.96893 47.276 10.5474 46.9979 12.6684 47C15.7999 47 17.8433 47.5308 18.7987 48.5923C19.754 49.6538 21.2402 50.1846 23.2571 50.1846Z" fill="#FD873A"/>
<path d="M23.2571 62.1846C25.274 62.1846 26.7601 61.6538 27.7155 60.5923C28.6709 59.5308 30.7143 59 33.8458 59C36.8712 59 38.9284 59.5308 40.0175 60.5923C41.1067 61.6538 42.6055 62.1846 44.5142 62.1846C46.5311 62.1846 48.0172 61.6538 48.9726 60.5923C49.9279 59.5308 51.9714 59 55.1029 59C57.1729 59 58.7121 59.2792 59.7205 59.8376C60.729 60.3959 61.6844 60.9129 62.5867 61.3884C63.3828 61.8131 64.0993 62.3576 64.7363 63.0221C65.3732 63.6867 65.6916 64.469 65.6916 65.3692C65.6916 66.2693 65.3732 67.0124 64.7363 67.5984C64.0993 68.1843 63.3563 68.3701 62.507 68.1557C60.8086 67.7311 59.5348 67.161 58.6855 66.4456C57.8363 65.7301 56.6421 65.3713 55.1029 65.3692C53.1391 65.3692 51.6529 65.8999 50.6445 66.9615C49.636 68.023 47.5926 68.5538 44.5142 68.5538C41.4357 68.5538 39.3796 68.023 38.3456 66.9615C37.3117 65.8999 35.8118 65.3692 33.8458 65.3692C31.8289 65.3692 30.3428 65.8999 29.3874 66.9615C28.432 68.023 26.3886 68.5538 23.2571 68.5538C20.1256 68.5538 18.0821 68.023 17.1268 66.9615C16.1714 65.8999 14.6853 65.3692 12.6684 65.3692C11.1291 65.3692 9.93492 65.728 9.0857 66.4456C8.23648 67.1632 6.96265 67.7332 5.26421 68.1557C4.41498 68.368 3.65918 68.1822 2.99678 67.5984C2.33439 67.0145 2.00213 66.2715 2.00001 65.3692C1.99789 64.4669 2.30361 63.6845 2.91717 63.0221C3.53073 62.3597 4.23346 61.8152 5.02536 61.3884C5.92766 60.9108 6.89683 60.3927 7.93288 59.8344C8.96893 59.276 10.5474 58.9979 12.6684 59C15.7999 59 17.8433 59.5308 18.7987 60.5923C19.754 61.6538 21.2402 62.1846 23.2571 62.1846Z" fill="#FD873A"/>
<path d="M78.9756 38.5791L85.4082 44.9531L86.8418 46.374L85.4082 47.7949L56.5215 76.4209L55.1133 77.8154L53.7061 76.4209L39.5918 62.4346L38.1582 61.0137L39.5918 59.5928L46.0244 53.2188L47.4336 51.8223L48.8418 53.2207L55.1143 59.4561L76.1592 38.5801L77.5674 37.1836L78.9756 38.5791Z" fill="#6CC854" stroke="white" stroke-width="4"/>
</svg>
