<svg width="50" height="50" viewBox="0 0 50 50" fill="none" xmlns="http://www.w3.org/2000/svg">
<g id="solar:transmission-bold">
<path id="Vector" d="M4.167 8.33314C4.16736 7.57723 4.37335 6.83564 4.76291 6.18784C5.15248 5.54003 5.71093 5.0104 6.37845 4.65569C7.04598 4.30097 7.79743 4.13453 8.55231 4.1742C9.30718 4.21386 10.037 4.45814 10.6637 4.88086C11.2904 5.30358 11.7903 5.88882 12.1098 6.57389C12.4293 7.25895 12.5565 8.01804 12.4776 8.76983C12.3987 9.52163 12.1168 10.2378 11.6621 10.8416C11.2074 11.4455 10.5969 11.9143 9.89617 12.1977V23.4373H23.4378V12.1977C22.5414 11.8351 21.7991 11.172 21.338 10.3221C20.8768 9.4722 20.7257 8.48836 20.9104 7.53922C21.0951 6.59007 21.6042 5.73472 22.3503 5.11974C23.0965 4.50476 24.0334 4.16846 25.0003 4.16846C25.9673 4.16846 26.9041 4.50476 27.6503 5.11974C28.3965 5.73472 28.9056 6.59007 29.0903 7.53922C29.275 8.48836 29.1238 9.4722 28.6627 10.3221C28.2016 11.172 27.4592 11.8351 26.5628 12.1977V23.4373H33.3337C35.342 23.4373 36.692 23.4331 37.6982 23.2998C38.6587 23.1686 39.0712 22.9456 39.342 22.6748C39.6128 22.404 39.8358 21.9915 39.967 21.029C40.1003 20.0248 40.1045 18.6748 40.1045 16.6665V12.1977C39.2081 11.8351 38.4657 11.172 38.0046 10.3221C37.5435 9.4722 37.3923 8.48836 37.5771 7.53922C37.7618 6.59007 38.2708 5.73472 39.017 5.11974C39.7632 4.50476 40.7001 4.16846 41.667 4.16846C42.6339 4.16846 43.5708 4.50476 44.317 5.11974C45.0632 5.73472 45.5722 6.59007 45.7569 7.53922C45.9416 8.48836 45.7905 9.4722 45.3294 10.3221C44.8683 11.172 44.1259 11.8351 43.2295 12.1977V16.7748C43.2295 18.6456 43.2295 20.2081 43.0628 21.4456C42.8878 22.754 42.5003 23.9352 41.5503 24.8831C40.6024 25.8331 39.4212 26.2206 38.1128 26.3956C36.8753 26.5623 35.3149 26.5623 33.442 26.5623H26.5628V37.8019C27.4592 38.1645 28.2016 38.8276 28.6627 39.6775C29.1238 40.5274 29.275 41.5113 29.0903 42.4604C28.9056 43.4095 28.3965 44.2649 27.6503 44.8799C26.9041 45.4949 25.9673 45.8312 25.0003 45.8312C24.0334 45.8312 23.0965 45.4949 22.3503 44.8799C21.6042 44.2649 21.0951 43.4095 20.9104 42.4604C20.7257 41.5113 20.8768 40.5274 21.338 39.6775C21.7991 38.8276 22.5414 38.1645 23.4378 37.8019V26.5623H9.89617V37.8019C10.7926 38.1645 11.5349 38.8276 11.996 39.6775C12.4572 40.5274 12.6083 41.5113 12.4236 42.4604C12.2389 43.4095 11.7298 44.2649 10.9837 44.8799C10.2375 45.4949 9.30062 45.8312 8.33367 45.8312C7.36672 45.8312 6.42987 45.4949 5.68368 44.8799C4.93749 44.2649 4.42843 43.4095 4.24372 42.4604C4.05902 41.5113 4.21018 40.5274 4.6713 39.6775C5.13241 38.8276 5.87478 38.1645 6.77117 37.8019V12.1977C6.00144 11.8864 5.34229 11.3521 4.87829 10.6635C4.4143 9.97497 4.1666 9.16346 4.167 8.33314Z" fill="black"/>
<path id="Vector_2" fill-rule="evenodd" clip-rule="evenodd" d="M35.9375 31.25C35.9375 30.8356 36.1021 30.4382 36.3951 30.1451C36.6882 29.8521 37.0856 29.6875 37.5 29.6875H42.2625C45.1271 29.6875 47.3958 32.05 47.3958 34.8958C47.4002 35.9668 47.0743 37.0131 46.4625 37.8922C45.8508 38.7712 44.9829 39.4403 43.9771 39.8083L47.1646 45.0167C47.2718 45.1916 47.3436 45.386 47.3757 45.5887C47.4078 45.7914 47.3997 45.9984 47.3518 46.1979C47.304 46.3975 47.2172 46.5856 47.0966 46.7517C46.976 46.9177 46.8239 47.0584 46.649 47.1656C46.474 47.2729 46.2796 47.3446 46.0769 47.3767C45.8743 47.4089 45.6672 47.4008 45.4677 47.3529C45.2681 47.305 45.08 47.2183 44.9139 47.0977C44.7479 46.9771 44.6072 46.825 44.5 46.65L40.4938 40.1042H39.0625V45.8333C39.0625 46.2477 38.8979 46.6452 38.6049 46.9382C38.3118 47.2312 37.9144 47.3958 37.5 47.3958C37.0856 47.3958 36.6882 47.2312 36.3951 46.9382C36.1021 46.6452 35.9375 46.2477 35.9375 45.8333V31.25ZM39.0625 36.9792H42.2625C43.3417 36.9792 44.2708 36.0771 44.2708 34.8958C44.2708 33.7146 43.3417 32.8125 42.2625 32.8125H39.0625V36.9792Z" fill="black"/>
</g>
</svg>
