<svg width="48" height="49" viewBox="0 0 48 49" fill="none" xmlns="http://www.w3.org/2000/svg">
<g id="Group">
<path id="Vector" d="M18.2227 5.71243L3.49143 20.4437C2.7103 21.2251 2.27148 22.2847 2.27148 23.3895C2.27148 24.4944 2.7103 25.554 3.49143 26.3354L15.2748 38.1208C15.6617 38.5082 16.1213 38.8155 16.6271 39.0252C17.1329 39.2349 17.6751 39.3428 18.2227 39.3428C18.7702 39.3428 19.3124 39.2349 19.8183 39.0252C20.3241 38.8155 20.7836 38.5082 21.1706 38.1208L35.8998 23.3895L18.2227 5.71243ZM18.2227 5.71243L15.2768 2.7666" stroke="black" stroke-width="4" stroke-linecap="round" stroke-linejoin="round"/>
<path id="Vector_2" d="M39.666 30.25C39.666 30.25 45.916 36.4854 45.916 40.4312C45.916 43.8792 43.1139 46.6812 39.666 46.6812C36.2181 46.6812 33.441 43.8792 33.416 40.4312C33.4368 36.4833 39.666 30.25 39.666 30.25Z" stroke="black" stroke-width="4" stroke-miterlimit="1.5" stroke-linecap="round" stroke-linejoin="round"/>
</g>
</svg>
